%TF.GenerationSoftware,KiCad,Pcbnew,9.0.0*%
%TF.CreationDate,2025-02-24T12:48:06+01:00*%
%TF.ProjectId,mixed_signal,6d697865-645f-4736-9967-6e616c2e6b69,rev?*%
%TF.SameCoordinates,Original*%
%TF.FileFunction,Copper,L1,Top*%
%TF.FilePolarity,Positive*%
%FSLAX45Y45*%
G04 Gerber Fmt 4.5, Leading zero omitted, Abs format (unit mm)*
G04 Created by KiCad (PCBNEW 9.0.0) date 2025-02-24 12:48:06*
%MOMM*%
%LPD*%
G01*
G04 APERTURE LIST*
G04 Aperture macros list*
%AMRoundRect*
0 Rectangle with rounded corners*
0 $1 Rounding radius*
0 $2 $3 $4 $5 $6 $7 $8 $9 X,Y pos of 4 corners*
0 Add a 4 corners polygon primitive as box body*
4,1,4,$2,$3,$4,$5,$6,$7,$8,$9,$2,$3,0*
0 Add four circle primitives for the rounded corners*
1,1,$1+$1,$2,$3*
1,1,$1+$1,$4,$5*
1,1,$1+$1,$6,$7*
1,1,$1+$1,$8,$9*
0 Add four rect primitives between the rounded corners*
20,1,$1+$1,$2,$3,$4,$5,0*
20,1,$1+$1,$4,$5,$6,$7,0*
20,1,$1+$1,$6,$7,$8,$9,0*
20,1,$1+$1,$8,$9,$2,$3,0*%
%AMFreePoly0*
4,1,9,3.862500,-0.866500,0.737500,-0.866500,0.737500,-0.450000,-0.737500,-0.450000,-0.737500,0.450000,0.737500,0.450000,0.737500,0.866500,3.862500,0.866500,3.862500,-0.866500,3.862500,-0.866500,$1*%
G04 Aperture macros list end*
%TA.AperFunction,SMDPad,CuDef*%
%ADD10RoundRect,0.155000X0.212500X0.155000X-0.212500X0.155000X-0.212500X-0.155000X0.212500X-0.155000X0*%
%TD*%
%TA.AperFunction,SMDPad,CuDef*%
%ADD11RoundRect,0.112500X-0.187500X-0.112500X0.187500X-0.112500X0.187500X0.112500X-0.187500X0.112500X0*%
%TD*%
%TA.AperFunction,SMDPad,CuDef*%
%ADD12RoundRect,0.112500X0.112500X-0.187500X0.112500X0.187500X-0.112500X0.187500X-0.112500X-0.187500X0*%
%TD*%
%TA.AperFunction,SMDPad,CuDef*%
%ADD13RoundRect,0.155000X-0.155000X0.212500X-0.155000X-0.212500X0.155000X-0.212500X0.155000X0.212500X0*%
%TD*%
%TA.AperFunction,SMDPad,CuDef*%
%ADD14RoundRect,0.135000X0.185000X-0.135000X0.185000X0.135000X-0.185000X0.135000X-0.185000X-0.135000X0*%
%TD*%
%TA.AperFunction,SMDPad,CuDef*%
%ADD15R,0.300000X1.450000*%
%TD*%
%TA.AperFunction,SMDPad,CuDef*%
%ADD16RoundRect,0.140000X-0.170000X0.140000X-0.170000X-0.140000X0.170000X-0.140000X0.170000X0.140000X0*%
%TD*%
%TA.AperFunction,SMDPad,CuDef*%
%ADD17RoundRect,0.135000X0.135000X0.185000X-0.135000X0.185000X-0.135000X-0.185000X0.135000X-0.185000X0*%
%TD*%
%TA.AperFunction,SMDPad,CuDef*%
%ADD18RoundRect,0.140000X0.140000X0.170000X-0.140000X0.170000X-0.140000X-0.170000X0.140000X-0.170000X0*%
%TD*%
%TA.AperFunction,SMDPad,CuDef*%
%ADD19RoundRect,0.112500X-0.112500X0.187500X-0.112500X-0.187500X0.112500X-0.187500X0.112500X0.187500X0*%
%TD*%
%TA.AperFunction,SMDPad,CuDef*%
%ADD20RoundRect,0.225000X-0.250000X0.225000X-0.250000X-0.225000X0.250000X-0.225000X0.250000X0.225000X0*%
%TD*%
%TA.AperFunction,ComponentPad*%
%ADD21C,2.300000*%
%TD*%
%TA.AperFunction,ComponentPad*%
%ADD22C,1.524000*%
%TD*%
%TA.AperFunction,SMDPad,CuDef*%
%ADD23RoundRect,0.135000X-0.135000X-0.185000X0.135000X-0.185000X0.135000X0.185000X-0.135000X0.185000X0*%
%TD*%
%TA.AperFunction,SMDPad,CuDef*%
%ADD24RoundRect,0.112500X0.187500X0.112500X-0.187500X0.112500X-0.187500X-0.112500X0.187500X-0.112500X0*%
%TD*%
%TA.AperFunction,SMDPad,CuDef*%
%ADD25RoundRect,0.140000X-0.140000X-0.170000X0.140000X-0.170000X0.140000X0.170000X-0.140000X0.170000X0*%
%TD*%
%TA.AperFunction,SMDPad,CuDef*%
%ADD26RoundRect,0.250000X0.400000X0.625000X-0.400000X0.625000X-0.400000X-0.625000X0.400000X-0.625000X0*%
%TD*%
%TA.AperFunction,SMDPad,CuDef*%
%ADD27RoundRect,0.135000X-0.185000X0.135000X-0.185000X-0.135000X0.185000X-0.135000X0.185000X0.135000X0*%
%TD*%
%TA.AperFunction,SMDPad,CuDef*%
%ADD28RoundRect,0.150000X0.150000X-0.587500X0.150000X0.587500X-0.150000X0.587500X-0.150000X-0.587500X0*%
%TD*%
%TA.AperFunction,SMDPad,CuDef*%
%ADD29R,2.500000X2.000000*%
%TD*%
%TA.AperFunction,SMDPad,CuDef*%
%ADD30R,0.800000X0.700000*%
%TD*%
%TA.AperFunction,SMDPad,CuDef*%
%ADD31R,0.740000X2.400000*%
%TD*%
%TA.AperFunction,SMDPad,CuDef*%
%ADD32RoundRect,0.150000X0.512500X0.150000X-0.512500X0.150000X-0.512500X-0.150000X0.512500X-0.150000X0*%
%TD*%
%TA.AperFunction,SMDPad,CuDef*%
%ADD33RoundRect,0.147500X-0.147500X-0.172500X0.147500X-0.172500X0.147500X0.172500X-0.147500X0.172500X0*%
%TD*%
%TA.AperFunction,SMDPad,CuDef*%
%ADD34R,1.200000X1.400000*%
%TD*%
%TA.AperFunction,SMDPad,CuDef*%
%ADD35RoundRect,0.155000X-0.212500X-0.155000X0.212500X-0.155000X0.212500X0.155000X-0.212500X0.155000X0*%
%TD*%
%TA.AperFunction,SMDPad,CuDef*%
%ADD36RoundRect,0.225000X0.225000X0.250000X-0.225000X0.250000X-0.225000X-0.250000X0.225000X-0.250000X0*%
%TD*%
%TA.AperFunction,SMDPad,CuDef*%
%ADD37R,1.450000X0.600000*%
%TD*%
%TA.AperFunction,SMDPad,CuDef*%
%ADD38R,1.450000X0.300000*%
%TD*%
%TA.AperFunction,ComponentPad*%
%ADD39O,2.100000X1.000000*%
%TD*%
%TA.AperFunction,ComponentPad*%
%ADD40O,1.600000X1.000000*%
%TD*%
%TA.AperFunction,SMDPad,CuDef*%
%ADD41RoundRect,0.155000X0.155000X-0.212500X0.155000X0.212500X-0.155000X0.212500X-0.155000X-0.212500X0*%
%TD*%
%TA.AperFunction,SMDPad,CuDef*%
%ADD42RoundRect,0.225000X0.250000X-0.225000X0.250000X0.225000X-0.250000X0.225000X-0.250000X-0.225000X0*%
%TD*%
%TA.AperFunction,SMDPad,CuDef*%
%ADD43RoundRect,0.075000X-0.662500X-0.075000X0.662500X-0.075000X0.662500X0.075000X-0.662500X0.075000X0*%
%TD*%
%TA.AperFunction,SMDPad,CuDef*%
%ADD44RoundRect,0.075000X-0.075000X-0.662500X0.075000X-0.662500X0.075000X0.662500X-0.075000X0.662500X0*%
%TD*%
%TA.AperFunction,SMDPad,CuDef*%
%ADD45RoundRect,0.160000X0.160000X-0.222500X0.160000X0.222500X-0.160000X0.222500X-0.160000X-0.222500X0*%
%TD*%
%TA.AperFunction,SMDPad,CuDef*%
%ADD46RoundRect,0.225000X0.225000X-0.425000X0.225000X0.425000X-0.225000X0.425000X-0.225000X-0.425000X0*%
%TD*%
%TA.AperFunction,SMDPad,CuDef*%
%ADD47FreePoly0,90.000000*%
%TD*%
%TA.AperFunction,SMDPad,CuDef*%
%ADD48RoundRect,0.150000X-0.512500X-0.150000X0.512500X-0.150000X0.512500X0.150000X-0.512500X0.150000X0*%
%TD*%
%TA.AperFunction,SMDPad,CuDef*%
%ADD49RoundRect,0.150000X0.150000X-0.512500X0.150000X0.512500X-0.150000X0.512500X-0.150000X-0.512500X0*%
%TD*%
%TA.AperFunction,SMDPad,CuDef*%
%ADD50R,1.500000X1.100000*%
%TD*%
%TA.AperFunction,ViaPad*%
%ADD51C,0.700000*%
%TD*%
%TA.AperFunction,Conductor*%
%ADD52C,0.500000*%
%TD*%
%TA.AperFunction,Conductor*%
%ADD53C,0.300000*%
%TD*%
%TA.AperFunction,Conductor*%
%ADD54C,0.200000*%
%TD*%
G04 APERTURE END LIST*
D10*
%TO.P,C302,1*%
%TO.N,+3V3*%
X13796750Y-6432500D03*
%TO.P,C302,2*%
%TO.N,GND*%
X13683250Y-6432500D03*
%TD*%
D11*
%TO.P,D304,1,A1*%
%TO.N,/MICRO/CONN_SWO*%
X14142500Y-5041000D03*
%TO.P,D304,2,A2*%
%TO.N,GND*%
X14352500Y-5041000D03*
%TD*%
D12*
%TO.P,D501,1,A1*%
%TO.N,/ADC/IN*%
X13787500Y-9192500D03*
%TO.P,D501,2,A2*%
%TO.N,GND*%
X13787500Y-8982500D03*
%TD*%
D13*
%TO.P,C204,1*%
%TO.N,+3.3VA*%
X13137500Y-7105750D03*
%TO.P,C204,2*%
%TO.N,GND*%
X13137500Y-7219250D03*
%TD*%
D14*
%TO.P,R403,1*%
%TO.N,Net-(C404-Pad1)*%
X16092500Y-8830000D03*
%TO.P,R403,2*%
%TO.N,/DAC/DAC_OUT_A*%
X16092500Y-8728000D03*
%TD*%
D15*
%TO.P,U504,1,VREF*%
%TO.N,/ADC/ADC_VREF*%
X13767500Y-7285000D03*
%TO.P,U504,2,+IN*%
%TO.N,/ADC/ADC_IN+*%
X13817500Y-7285000D03*
%TO.P,U504,3,-IN*%
%TO.N,/ADC/ADC_IN-*%
X13867500Y-7285000D03*
%TO.P,U504,4,GND*%
%TO.N,GND*%
X13917500Y-7285000D03*
%TO.P,U504,5,GND*%
X13967500Y-7285000D03*
%TO.P,U504,6,NCS*%
%TO.N,/ADC/SPI1_NSS*%
X13967500Y-6845000D03*
%TO.P,U504,7,DOUT*%
%TO.N,/ADC/SPI1_MISO*%
X13917500Y-6845000D03*
%TO.P,U504,8,SCLK*%
%TO.N,Net-(U504-SCLK)*%
X13867500Y-6845000D03*
%TO.P,U504,9,VIO*%
%TO.N,+3V3*%
X13817500Y-6845000D03*
%TO.P,U504,10,VA*%
%TO.N,+3.3VA*%
X13767500Y-6845000D03*
%TD*%
D14*
%TO.P,R602,1*%
%TO.N,/USBC/USB_CONN_CC2*%
X15127500Y-5518500D03*
%TO.P,R602,2*%
%TO.N,GND*%
X15127500Y-5416500D03*
%TD*%
D16*
%TO.P,C514,1*%
%TO.N,+3V3*%
X14122500Y-7004000D03*
%TO.P,C514,2*%
%TO.N,GND*%
X14122500Y-7100000D03*
%TD*%
D17*
%TO.P,R309,1*%
%TO.N,/MICRO/TIM4_CH3*%
X13074000Y-4450000D03*
%TO.P,R309,2*%
%TO.N,/MICRO/LED_R_K*%
X12972000Y-4450000D03*
%TD*%
D18*
%TO.P,C515,1*%
%TO.N,/ADC/ADC_VREF*%
X13518000Y-7817500D03*
%TO.P,C515,2*%
%TO.N,GND*%
X13422000Y-7817500D03*
%TD*%
D16*
%TO.P,C512,1*%
%TO.N,+3.3VA*%
X13615000Y-7002000D03*
%TO.P,C512,2*%
%TO.N,GND*%
X13615000Y-7098000D03*
%TD*%
D19*
%TO.P,D303,1,A1*%
%TO.N,/MICRO/CONN_SWCLK*%
X13747500Y-4261000D03*
%TO.P,D303,2,A2*%
%TO.N,GND*%
X13747500Y-4471000D03*
%TD*%
D20*
%TO.P,C401,1*%
%TO.N,+3V3*%
X15570000Y-7007500D03*
%TO.P,C401,2*%
%TO.N,GND*%
X15570000Y-7162500D03*
%TD*%
D17*
%TO.P,R203,1*%
%TO.N,Net-(U201-FB)*%
X15167750Y-4192500D03*
%TO.P,R203,2*%
%TO.N,GND*%
X15065750Y-4192500D03*
%TD*%
D14*
%TO.P,R302,1*%
%TO.N,/MICRO/BOOT0*%
X13402500Y-5191000D03*
%TO.P,R302,2*%
%TO.N,GND*%
X13402500Y-5089000D03*
%TD*%
D21*
%TO.P,J401,*%
%TO.N,*%
X15896000Y-9988000D03*
X14880000Y-9990000D03*
D22*
%TO.P,J401,1,In*%
%TO.N,GND*%
X15642000Y-9480000D03*
%TO.P,J401,2,Ext*%
%TO.N,/DAC/OUT*%
X15388000Y-9480000D03*
%TD*%
D11*
%TO.P,D305,1,A1*%
%TO.N,/MICRO/CONN_NRST*%
X14492500Y-5041000D03*
%TO.P,D305,2,A2*%
%TO.N,GND*%
X14702500Y-5041000D03*
%TD*%
D23*
%TO.P,R401,1*%
%TO.N,/DAC/SPI2_SCK*%
X14441500Y-6070000D03*
%TO.P,R401,2*%
%TO.N,/DAC/DAC_SCLK*%
X14543500Y-6070000D03*
%TD*%
D17*
%TO.P,R503,1*%
%TO.N,GND*%
X13613500Y-9047500D03*
%TO.P,R503,2*%
%TO.N,/ADC/IN_RF*%
X13511500Y-9047500D03*
%TD*%
D24*
%TO.P,D401,1,A1*%
%TO.N,/DAC/OUT*%
X15520000Y-9160000D03*
%TO.P,D401,2,A2*%
%TO.N,GND*%
X15310000Y-9160000D03*
%TD*%
D20*
%TO.P,C510,1*%
%TO.N,+3.3VA*%
X13440000Y-7022500D03*
%TO.P,C510,2*%
%TO.N,GND*%
X13440000Y-7177500D03*
%TD*%
D25*
%TO.P,C508,1*%
%TO.N,/ADC/ADC_IN+*%
X13799500Y-7835000D03*
%TO.P,C508,2*%
%TO.N,/ADC/ADC_IN-*%
X13895500Y-7835000D03*
%TD*%
D26*
%TO.P,R201,1*%
%TO.N,+5V*%
X13058750Y-7570000D03*
%TO.P,R201,2*%
%TO.N,Net-(U202-VIN)*%
X12748750Y-7570000D03*
%TD*%
D27*
%TO.P,R308,1*%
%TO.N,+3V3*%
X14327500Y-5599000D03*
%TO.P,R308,2*%
%TO.N,/MICRO/USB_D+*%
X14327500Y-5701000D03*
%TD*%
D10*
%TO.P,C205,1*%
%TO.N,+3V3*%
X15398500Y-3942500D03*
%TO.P,C205,2*%
%TO.N,GND*%
X15285000Y-3942500D03*
%TD*%
D17*
%TO.P,R311,1*%
%TO.N,/MICRO/TIM4_CH2*%
X13375000Y-4900000D03*
%TO.P,R311,2*%
%TO.N,/MICRO/LED_B_K*%
X13273000Y-4900000D03*
%TD*%
D28*
%TO.P,U503,1,IN*%
%TO.N,/ADC/ADC_VREF_VIN*%
X13327500Y-8176250D03*
%TO.P,U503,2,OUT*%
%TO.N,/ADC/ADC_VREF*%
X13517500Y-8176250D03*
%TO.P,U503,3,GND*%
%TO.N,GND*%
X13422500Y-7988750D03*
%TD*%
D27*
%TO.P,R301,1*%
%TO.N,+3V3*%
X14347500Y-5871500D03*
%TO.P,R301,2*%
%TO.N,/DAC/SPI2_NSS*%
X14347500Y-5973500D03*
%TD*%
D29*
%TO.P,L201,1*%
%TO.N,Net-(U201-SW)*%
X15907500Y-4617500D03*
%TO.P,L201,2*%
%TO.N,+3V3*%
X15907500Y-4117500D03*
%TD*%
D30*
%TO.P,L601,1,1*%
%TO.N,/USBC/USB_CMC_D-*%
X14730000Y-5800000D03*
%TO.P,L601,2,2*%
%TO.N,/USBC/USB_CMC_D+*%
X14730000Y-5700000D03*
%TO.P,L601,3,3*%
%TO.N,/MICRO/USB_D+*%
X14470000Y-5700000D03*
%TO.P,L601,4,4*%
%TO.N,/MICRO/USB_D-*%
X14470000Y-5800000D03*
%TD*%
D31*
%TO.P,J301,1,Pin_1*%
%TO.N,+3V3*%
X14501500Y-4271000D03*
%TO.P,J301,2,Pin_2*%
%TO.N,GND*%
X14501500Y-4661000D03*
%TO.P,J301,3,Pin_3*%
X14374500Y-4271000D03*
%TO.P,J301,4,Pin_4*%
%TO.N,unconnected-(J301-Pin_4-Pad4)*%
X14374500Y-4661000D03*
%TO.P,J301,5,Pin_5*%
%TO.N,GND*%
X14247500Y-4271000D03*
%TO.P,J301,6,Pin_6*%
%TO.N,/MICRO/CONN_NRST*%
X14247500Y-4661000D03*
%TO.P,J301,7,Pin_7*%
%TO.N,unconnected-(J301-Pin_7-Pad7)*%
X14120500Y-4271000D03*
%TO.P,J301,8,Pin_8*%
%TO.N,/MICRO/CONN_SWO*%
X14120500Y-4661000D03*
%TO.P,J301,9,Pin_9*%
%TO.N,/MICRO/CONN_SWCLK*%
X13993500Y-4271000D03*
%TO.P,J301,10,Pin_10*%
%TO.N,/MICRO/CONN_SWDIO*%
X13993500Y-4661000D03*
%TD*%
D14*
%TO.P,R508,1*%
%TO.N,VCOM*%
X13912500Y-8751000D03*
%TO.P,R508,2*%
%TO.N,/ADC/ADC_IN-*%
X13912500Y-8649000D03*
%TD*%
D27*
%TO.P,R405,1*%
%TO.N,Net-(U402-+)*%
X15842500Y-8729000D03*
%TO.P,R405,2*%
%TO.N,Net-(C406-Pad1)*%
X15842500Y-8831000D03*
%TD*%
D14*
%TO.P,R404,1*%
%TO.N,Net-(C406-Pad1)*%
X15967500Y-8830000D03*
%TO.P,R404,2*%
%TO.N,Net-(C404-Pad1)*%
X15967500Y-8728000D03*
%TD*%
D16*
%TO.P,C406,1*%
%TO.N,Net-(C406-Pad1)*%
X15842500Y-8955000D03*
%TO.P,C406,2*%
%TO.N,Net-(U402--)*%
X15842500Y-9051000D03*
%TD*%
D27*
%TO.P,R502,1*%
%TO.N,Net-(C501-Pad1)*%
X12847500Y-8679000D03*
%TO.P,R502,2*%
%TO.N,/ADC/BUF_OUT*%
X12847500Y-8781000D03*
%TD*%
D32*
%TO.P,U601,1,I/O1*%
%TO.N,/USBC/USB_CONN_D-*%
X15133750Y-5843750D03*
%TO.P,U601,2,GND*%
%TO.N,GND*%
X15133750Y-5748750D03*
%TO.P,U601,3,I/O2*%
%TO.N,/USBC/USB_CONN_D+*%
X15133750Y-5653750D03*
%TO.P,U601,4,I/O2*%
%TO.N,/USBC/USB_CMC_D+*%
X14906250Y-5653750D03*
%TO.P,U601,5,VBUS*%
%TO.N,VBUS*%
X14906250Y-5748750D03*
%TO.P,U601,6,I/O1*%
%TO.N,/USBC/USB_CMC_D-*%
X14906250Y-5843750D03*
%TD*%
D17*
%TO.P,R509,1*%
%TO.N,/ADC/ADC_VREF_VIN*%
X13093500Y-8240000D03*
%TO.P,R509,2*%
%TO.N,+5V*%
X12991500Y-8240000D03*
%TD*%
D32*
%TO.P,U502,1*%
%TO.N,/ADC/BUF_OUT*%
X13143750Y-9117500D03*
%TO.P,U502,2,V-*%
%TO.N,GND*%
X13143750Y-9022500D03*
%TO.P,U502,3,+*%
%TO.N,/ADC/IN_BUF*%
X13143750Y-8927500D03*
%TO.P,U502,4,-*%
%TO.N,/ADC/BUF_OUT*%
X12916250Y-8927500D03*
%TO.P,U502,5,V+*%
%TO.N,+3.3VA*%
X12916250Y-9117500D03*
%TD*%
D33*
%TO.P,L301,1,1*%
%TO.N,VDDA*%
X12885000Y-6347500D03*
%TO.P,L301,2,2*%
%TO.N,+3V3*%
X12982000Y-6347500D03*
%TD*%
D16*
%TO.P,C405,1*%
%TO.N,Net-(U402-+)*%
X15720000Y-8731500D03*
%TO.P,C405,2*%
%TO.N,GND*%
X15720000Y-8827500D03*
%TD*%
D13*
%TO.P,C601,1*%
%TO.N,VBUS*%
X15270000Y-6128250D03*
%TO.P,C601,2*%
%TO.N,GND*%
X15270000Y-6241750D03*
%TD*%
D25*
%TO.P,C505,1*%
%TO.N,Net-(C505-Pad1)*%
X12979500Y-8382500D03*
%TO.P,C505,2*%
%TO.N,Net-(U501--)*%
X13075500Y-8382500D03*
%TD*%
D24*
%TO.P,D301,1,A1*%
%TO.N,+3V3*%
X14602500Y-3916000D03*
%TO.P,D301,2,A2*%
%TO.N,GND*%
X14392500Y-3916000D03*
%TD*%
D34*
%TO.P,Y301,1,1*%
%TO.N,/MICRO/HSE_IN*%
X12400000Y-5902500D03*
%TO.P,Y301,2,2*%
%TO.N,GND*%
X12400000Y-6122500D03*
%TO.P,Y301,3,3*%
%TO.N,/MICRO/XTAL_IN*%
X12570000Y-6122500D03*
%TO.P,Y301,4,4*%
%TO.N,GND*%
X12570000Y-5902500D03*
%TD*%
D27*
%TO.P,R504,1*%
%TO.N,Net-(C505-Pad1)*%
X12850000Y-8285500D03*
%TO.P,R504,2*%
%TO.N,Net-(C501-Pad1)*%
X12850000Y-8387500D03*
%TD*%
D21*
%TO.P,J501,*%
%TO.N,*%
X13547500Y-9995000D03*
X12531500Y-9997000D03*
D22*
%TO.P,J501,1,In*%
%TO.N,GND*%
X13293500Y-9487000D03*
%TO.P,J501,2,Ext*%
%TO.N,/ADC/IN*%
X13039500Y-9487000D03*
%TD*%
D16*
%TO.P,C404,1*%
%TO.N,Net-(C404-Pad1)*%
X16092500Y-8957000D03*
%TO.P,C404,2*%
%TO.N,GND*%
X16092500Y-9053000D03*
%TD*%
D35*
%TO.P,C311,1*%
%TO.N,+3V3*%
X12966250Y-4900000D03*
%TO.P,C311,2*%
%TO.N,GND*%
X13079750Y-4900000D03*
%TD*%
D18*
%TO.P,C501,1*%
%TO.N,Net-(C501-Pad1)*%
X12850500Y-8512500D03*
%TO.P,C501,2*%
%TO.N,GND*%
X12754500Y-8512500D03*
%TD*%
D13*
%TO.P,C310,1*%
%TO.N,+3V3*%
X14058750Y-5521500D03*
%TO.P,C310,2*%
%TO.N,GND*%
X14058750Y-5635000D03*
%TD*%
%TO.P,C206,1*%
%TO.N,/POWER & BIAS/VREF*%
X14338750Y-8980750D03*
%TO.P,C206,2*%
%TO.N,GND*%
X14338750Y-9094250D03*
%TD*%
D36*
%TO.P,C513,1*%
%TO.N,/ADC/ADC_VREF*%
X13517500Y-7667500D03*
%TO.P,C513,2*%
%TO.N,GND*%
X13362500Y-7667500D03*
%TD*%
D13*
%TO.P,C402,1*%
%TO.N,+3V3*%
X15370000Y-7003250D03*
%TO.P,C402,2*%
%TO.N,GND*%
X15370000Y-7116750D03*
%TD*%
D27*
%TO.P,R507,1*%
%TO.N,/ADC/ADC_IN+*%
X13787500Y-8649000D03*
%TO.P,R507,2*%
%TO.N,Net-(U501--)*%
X13787500Y-8751000D03*
%TD*%
D23*
%TO.P,R506,1*%
%TO.N,/ADC/IN_BUF*%
X13389000Y-8795000D03*
%TO.P,R506,2*%
%TO.N,VCOM*%
X13491000Y-8795000D03*
%TD*%
D14*
%TO.P,R406,1*%
%TO.N,/DAC/OUT*%
X15720000Y-9158500D03*
%TO.P,R406,2*%
%TO.N,Net-(U402--)*%
X15720000Y-9056500D03*
%TD*%
D17*
%TO.P,R505,1*%
%TO.N,Net-(U501-+)*%
X13068500Y-8642500D03*
%TO.P,R505,2*%
%TO.N,Net-(C505-Pad1)*%
X12966500Y-8642500D03*
%TD*%
D35*
%TO.P,C303,1*%
%TO.N,+3V3*%
X12959500Y-5050000D03*
%TO.P,C303,2*%
%TO.N,GND*%
X13073000Y-5050000D03*
%TD*%
D37*
%TO.P,J601,A1,GND*%
%TO.N,GND*%
X15503000Y-6100000D03*
%TO.P,J601,A4,VBUS*%
%TO.N,VBUS*%
X15503000Y-6020000D03*
D38*
%TO.P,J601,A5,CC1*%
%TO.N,/USBC/USB_CONN_CC1*%
X15503000Y-5900000D03*
%TO.P,J601,A6,D+*%
%TO.N,/USBC/USB_CONN_D+*%
X15503000Y-5800000D03*
%TO.P,J601,A7,D-*%
%TO.N,/USBC/USB_CONN_D-*%
X15503000Y-5750000D03*
%TO.P,J601,A8,SBU1*%
%TO.N,unconnected-(J601-SBU1-PadA8)*%
X15503000Y-5650000D03*
D37*
%TO.P,J601,A9,VBUS*%
%TO.N,VBUS*%
X15503000Y-5530000D03*
%TO.P,J601,A12,GND*%
%TO.N,GND*%
X15503000Y-5450000D03*
%TO.P,J601,B1,GND*%
X15503000Y-5450000D03*
%TO.P,J601,B4,VBUS*%
%TO.N,VBUS*%
X15503000Y-5530000D03*
D38*
%TO.P,J601,B5,CC2*%
%TO.N,/USBC/USB_CONN_CC2*%
X15503000Y-5600000D03*
%TO.P,J601,B6,D+*%
%TO.N,/USBC/USB_CONN_D+*%
X15503000Y-5700000D03*
%TO.P,J601,B7,D-*%
%TO.N,/USBC/USB_CONN_D-*%
X15503000Y-5850000D03*
%TO.P,J601,B8,SBU2*%
%TO.N,unconnected-(J601-SBU2-PadB8)*%
X15503000Y-5950000D03*
D37*
%TO.P,J601,B9,VBUS*%
%TO.N,VBUS*%
X15503000Y-6020000D03*
%TO.P,J601,B12,GND*%
%TO.N,GND*%
X15503000Y-6100000D03*
D39*
%TO.P,J601,S1,SHIELD*%
%TO.N,unconnected-(J601-SHIELD-PadS1)_1*%
X15594500Y-6207000D03*
D40*
%TO.N,unconnected-(J601-SHIELD-PadS1)*%
X16012500Y-6207000D03*
D39*
%TO.N,unconnected-(J601-SHIELD-PadS1)_3*%
X15594500Y-5343000D03*
D40*
%TO.N,unconnected-(J601-SHIELD-PadS1)_2*%
X16012500Y-5343000D03*
%TD*%
D17*
%TO.P,R306,1*%
%TO.N,/MICRO/NRST*%
X14569250Y-5216000D03*
%TO.P,R306,2*%
%TO.N,/MICRO/CONN_NRST*%
X14467250Y-5216000D03*
%TD*%
D23*
%TO.P,R205,1*%
%TO.N,/POWER & BIAS/VREF*%
X14462750Y-9087500D03*
%TO.P,R205,2*%
%TO.N,GND*%
X14564750Y-9087500D03*
%TD*%
D13*
%TO.P,C507,1*%
%TO.N,GND*%
X12752500Y-9005750D03*
%TO.P,C507,2*%
%TO.N,+3.3VA*%
X12752500Y-9119250D03*
%TD*%
%TO.P,C208,1*%
%TO.N,+3.3VA*%
X14688750Y-8980750D03*
%TO.P,C208,2*%
%TO.N,GND*%
X14688750Y-9094250D03*
%TD*%
D17*
%TO.P,R202,1*%
%TO.N,+3V3*%
X15392750Y-4192500D03*
%TO.P,R202,2*%
%TO.N,Net-(U201-FB)*%
X15290750Y-4192500D03*
%TD*%
D41*
%TO.P,C209,1*%
%TO.N,+5V*%
X15032250Y-5004292D03*
%TO.P,C209,2*%
%TO.N,GND*%
X15032250Y-4890792D03*
%TD*%
D35*
%TO.P,C207,1*%
%TO.N,VBUS*%
X15270750Y-5140000D03*
%TO.P,C207,2*%
%TO.N,GND*%
X15384250Y-5140000D03*
%TD*%
D42*
%TO.P,C511,1*%
%TO.N,/ADC/ADC_VREF_VIN*%
X13150000Y-8087500D03*
%TO.P,C511,2*%
%TO.N,GND*%
X13150000Y-7932500D03*
%TD*%
D10*
%TO.P,C503,1*%
%TO.N,/ADC/IN_RF*%
X13499250Y-8922500D03*
%TO.P,C503,2*%
%TO.N,/ADC/IN_BUF*%
X13385750Y-8922500D03*
%TD*%
D17*
%TO.P,R204,1*%
%TO.N,+3.3VA*%
X14564750Y-8962500D03*
%TO.P,R204,2*%
%TO.N,/POWER & BIAS/VREF*%
X14462750Y-8962500D03*
%TD*%
D35*
%TO.P,C201,1*%
%TO.N,+5V*%
X15153250Y-4767500D03*
%TO.P,C201,2*%
%TO.N,GND*%
X15266750Y-4767500D03*
%TD*%
D13*
%TO.P,C407,1*%
%TO.N,+3.3VA*%
X15155000Y-8955750D03*
%TO.P,C407,2*%
%TO.N,GND*%
X15155000Y-9069250D03*
%TD*%
D27*
%TO.P,R312,1*%
%TO.N,/MICRO/HSE_OUT*%
X12745000Y-6126500D03*
%TO.P,R312,2*%
%TO.N,/MICRO/XTAL_IN*%
X12745000Y-6228500D03*
%TD*%
D15*
%TO.P,U401,1,VOUT_A*%
%TO.N,/DAC/DAC_OUT_A*%
X15012500Y-7287500D03*
%TO.P,U401,2,VOUT_B*%
%TO.N,/DAC/DAC_OUT_B*%
X15062500Y-7287500D03*
%TO.P,U401,3,GND*%
%TO.N,GND*%
X15112500Y-7287500D03*
%TO.P,U401,4,NLDAC*%
%TO.N,/DAC/DAC_NLDAC*%
X15162500Y-7287500D03*
%TO.P,U401,5,NCLR*%
%TO.N,/DAC/DAC_NCLR*%
X15212500Y-7287500D03*
%TO.P,U401,6,NSYNC*%
%TO.N,/DAC/SPI2_NSS*%
X15212500Y-6847500D03*
%TO.P,U401,7,SCLK*%
%TO.N,/DAC/DAC_SCLK*%
X15162500Y-6847500D03*
%TO.P,U401,8,DIN*%
%TO.N,/DAC/SPI2_MOSI*%
X15112500Y-6847500D03*
%TO.P,U401,9,AVDD*%
%TO.N,+3V3*%
X15062500Y-6847500D03*
%TO.P,U401,10,VREFIN/VREFOUT*%
%TO.N,/DAC/DAC_VREF*%
X15012500Y-6847500D03*
%TD*%
D13*
%TO.P,C305,1*%
%TO.N,+3V3*%
X14197500Y-5521500D03*
%TO.P,C305,2*%
%TO.N,GND*%
X14197500Y-5635000D03*
%TD*%
D16*
%TO.P,C502,1*%
%TO.N,/ADC/IN_RF*%
X13400000Y-9059500D03*
%TO.P,C502,2*%
%TO.N,GND*%
X13400000Y-9155500D03*
%TD*%
D20*
%TO.P,C516,1*%
%TO.N,+3V3*%
X14287500Y-6965000D03*
%TO.P,C516,2*%
%TO.N,GND*%
X14287500Y-7120000D03*
%TD*%
D10*
%TO.P,C203,1*%
%TO.N,+3V3*%
X15398500Y-4067500D03*
%TO.P,C203,2*%
%TO.N,GND*%
X15285000Y-4067500D03*
%TD*%
D13*
%TO.P,C304,1*%
%TO.N,VDDA*%
X12752250Y-6491250D03*
%TO.P,C304,2*%
%TO.N,GND*%
X12752250Y-6604750D03*
%TD*%
D32*
%TO.P,U402,1*%
%TO.N,Net-(U402--)*%
X15558750Y-8950000D03*
%TO.P,U402,2,V-*%
%TO.N,GND*%
X15558750Y-8855000D03*
%TO.P,U402,3,+*%
%TO.N,Net-(U402-+)*%
X15558750Y-8760000D03*
%TO.P,U402,4,-*%
%TO.N,Net-(U402--)*%
X15331250Y-8760000D03*
%TO.P,U402,5,V+*%
%TO.N,+3.3VA*%
X15331250Y-8950000D03*
%TD*%
D13*
%TO.P,C307,1*%
%TO.N,VDDA*%
X12877250Y-6491250D03*
%TO.P,C307,2*%
%TO.N,GND*%
X12877250Y-6604750D03*
%TD*%
D23*
%TO.P,R303,1*%
%TO.N,/MICRO/SWDIO*%
X13896500Y-5216000D03*
%TO.P,R303,2*%
%TO.N,/MICRO/CONN_SWDIO*%
X13998500Y-5216000D03*
%TD*%
D17*
%TO.P,R310,1*%
%TO.N,/MICRO/TIM4_CH1*%
X13374000Y-4450000D03*
%TO.P,R310,2*%
%TO.N,/MICRO/LED_G_K*%
X13272000Y-4450000D03*
%TD*%
D13*
%TO.P,C506,1*%
%TO.N,+3.3VA*%
X13657500Y-8410750D03*
%TO.P,C506,2*%
%TO.N,GND*%
X13657500Y-8524250D03*
%TD*%
D14*
%TO.P,R304,1*%
%TO.N,/MICRO/SWCLK*%
X13572500Y-4342000D03*
%TO.P,R304,2*%
%TO.N,/MICRO/CONN_SWCLK*%
X13572500Y-4240000D03*
%TD*%
D43*
%TO.P,U301,1,VBAT*%
%TO.N,+3V3*%
X13051250Y-5573750D03*
%TO.P,U301,2,PC13*%
%TO.N,unconnected-(U301-PC13-Pad2)*%
X13051250Y-5623750D03*
%TO.P,U301,3,PC14*%
%TO.N,unconnected-(U301-PC14-Pad3)*%
X13051250Y-5673750D03*
%TO.P,U301,4,PC15*%
%TO.N,unconnected-(U301-PC15-Pad4)*%
X13051250Y-5723750D03*
%TO.P,U301,5,PD0*%
%TO.N,/MICRO/HSE_IN*%
X13051250Y-5773750D03*
%TO.P,U301,6,PD1*%
%TO.N,/MICRO/HSE_OUT*%
X13051250Y-5823750D03*
%TO.P,U301,7,NRST*%
%TO.N,/MICRO/NRST*%
X13051250Y-5873750D03*
%TO.P,U301,8,VSSA*%
%TO.N,GND*%
X13051250Y-5923750D03*
%TO.P,U301,9,VDDA*%
%TO.N,VDDA*%
X13051250Y-5973750D03*
%TO.P,U301,10,PA0*%
%TO.N,unconnected-(U301-PA0-Pad10)*%
X13051250Y-6023750D03*
%TO.P,U301,11,PA1*%
%TO.N,unconnected-(U301-PA1-Pad11)*%
X13051250Y-6073750D03*
%TO.P,U301,12,PA2*%
%TO.N,unconnected-(U301-PA2-Pad12)*%
X13051250Y-6123750D03*
D44*
%TO.P,U301,13,PA3*%
%TO.N,unconnected-(U301-PA3-Pad13)*%
X13192500Y-6265000D03*
%TO.P,U301,14,PA4*%
%TO.N,/ADC/SPI1_SCK*%
X13242500Y-6265000D03*
%TO.P,U301,15,PA5*%
%TO.N,/ADC/SPI1_MISO*%
X13292500Y-6265000D03*
%TO.P,U301,16,PA6*%
%TO.N,/ADC/SPI1_NSS*%
X13342500Y-6265000D03*
%TO.P,U301,17,PA7*%
%TO.N,unconnected-(U301-PA7-Pad17)*%
X13392500Y-6265000D03*
%TO.P,U301,18,PB0*%
%TO.N,unconnected-(U301-PB0-Pad18)*%
X13442500Y-6265000D03*
%TO.P,U301,19,PB1*%
%TO.N,unconnected-(U301-PB1-Pad19)*%
X13492500Y-6265000D03*
%TO.P,U301,20,PB2*%
%TO.N,/DAC/DAC_NCLR*%
X13542500Y-6265000D03*
%TO.P,U301,21,PB10*%
%TO.N,/DAC/DAC_NLDAC*%
X13592500Y-6265000D03*
%TO.P,U301,22,PB11*%
%TO.N,unconnected-(U301-PB11-Pad22)*%
X13642500Y-6265000D03*
%TO.P,U301,23,VSS*%
%TO.N,GND*%
X13692500Y-6265000D03*
%TO.P,U301,24,VDD*%
%TO.N,+3V3*%
X13742500Y-6265000D03*
D43*
%TO.P,U301,25,PB12*%
%TO.N,/DAC/SPI2_MOSI*%
X13883750Y-6123750D03*
%TO.P,U301,26,PB13*%
%TO.N,/DAC/SPI2_SCK*%
X13883750Y-6073750D03*
%TO.P,U301,27,PB14*%
%TO.N,unconnected-(U301-PB14-Pad27)*%
X13883750Y-6023750D03*
%TO.P,U301,28,PB15*%
%TO.N,/DAC/SPI2_NSS*%
X13883750Y-5973750D03*
%TO.P,U301,29,PA8*%
%TO.N,unconnected-(U301-PA8-Pad29)*%
X13883750Y-5923750D03*
%TO.P,U301,30,PA9*%
%TO.N,unconnected-(U301-PA9-Pad30)*%
X13883750Y-5873750D03*
%TO.P,U301,31,PA10*%
%TO.N,unconnected-(U301-PA10-Pad31)*%
X13883750Y-5823750D03*
%TO.P,U301,32,PA11*%
%TO.N,/MICRO/USB_D-*%
X13883750Y-5773750D03*
%TO.P,U301,33,PA12*%
%TO.N,/MICRO/USB_D+*%
X13883750Y-5723750D03*
%TO.P,U301,34,PA13*%
%TO.N,/MICRO/SWDIO*%
X13883750Y-5673750D03*
%TO.P,U301,35,VSS*%
%TO.N,GND*%
X13883750Y-5623750D03*
%TO.P,U301,36,VDD*%
%TO.N,+3V3*%
X13883750Y-5573750D03*
D44*
%TO.P,U301,37,PA14*%
%TO.N,/MICRO/SWCLK*%
X13742500Y-5432500D03*
%TO.P,U301,38,PA15*%
%TO.N,unconnected-(U301-PA15-Pad38)*%
X13692500Y-5432500D03*
%TO.P,U301,39,PB3*%
%TO.N,/MICRO/SWO*%
X13642500Y-5432500D03*
%TO.P,U301,40,PB4*%
%TO.N,unconnected-(U301-PB4-Pad40)*%
X13592500Y-5432500D03*
%TO.P,U301,41,PB5*%
%TO.N,unconnected-(U301-PB5-Pad41)*%
X13542500Y-5432500D03*
%TO.P,U301,42,PB6*%
%TO.N,/MICRO/TIM4_CH1*%
X13492500Y-5432500D03*
%TO.P,U301,43,PB7*%
%TO.N,/MICRO/TIM4_CH2*%
X13442500Y-5432500D03*
%TO.P,U301,44,BOOT0*%
%TO.N,/MICRO/BOOT0*%
X13392500Y-5432500D03*
%TO.P,U301,45,PB8*%
%TO.N,/MICRO/TIM4_CH3*%
X13342500Y-5432500D03*
%TO.P,U301,46,PB9*%
%TO.N,unconnected-(U301-PB9-Pad46)*%
X13292500Y-5432500D03*
%TO.P,U301,47,VSS*%
%TO.N,GND*%
X13242500Y-5432500D03*
%TO.P,U301,48,VDD*%
%TO.N,+3V3*%
X13192500Y-5432500D03*
%TD*%
D18*
%TO.P,C504,1*%
%TO.N,Net-(U501-+)*%
X13260500Y-8750000D03*
%TO.P,C504,2*%
%TO.N,GND*%
X13164500Y-8750000D03*
%TD*%
D24*
%TO.P,D302,1,A1*%
%TO.N,/MICRO/CONN_SWDIO*%
X14002500Y-5041000D03*
%TO.P,D302,2,A2*%
%TO.N,GND*%
X13792500Y-5041000D03*
%TD*%
D35*
%TO.P,C301,1*%
%TO.N,/MICRO/NRST*%
X14686500Y-5216000D03*
%TO.P,C301,2*%
%TO.N,GND*%
X14800000Y-5216000D03*
%TD*%
D17*
%TO.P,R305,1*%
%TO.N,/MICRO/SWO*%
X14248500Y-5216000D03*
%TO.P,R305,2*%
%TO.N,/MICRO/CONN_SWO*%
X14146500Y-5216000D03*
%TD*%
D41*
%TO.P,C308,1*%
%TO.N,+3V3*%
X12883750Y-5555500D03*
%TO.P,C308,2*%
%TO.N,GND*%
X12883750Y-5442000D03*
%TD*%
%TO.P,C202,1*%
%TO.N,Net-(U202-VIN)*%
X12542500Y-7626750D03*
%TO.P,C202,2*%
%TO.N,GND*%
X12542500Y-7513250D03*
%TD*%
D45*
%TO.P,L202,1*%
%TO.N,VBUS*%
X15145000Y-5129792D03*
%TO.P,L202,2*%
%TO.N,+5V*%
X15145000Y-5015292D03*
%TD*%
D41*
%TO.P,C403,1*%
%TO.N,/DAC/DAC_VREF*%
X14842500Y-6849250D03*
%TO.P,C403,2*%
%TO.N,GND*%
X14842500Y-6735750D03*
%TD*%
D14*
%TO.P,R402,1*%
%TO.N,/DAC/DAC_OUT_B*%
X14855000Y-7123500D03*
%TO.P,R402,2*%
%TO.N,GND*%
X14855000Y-7021500D03*
%TD*%
D27*
%TO.P,R307,1*%
%TO.N,+3V3*%
X14002500Y-6504000D03*
%TO.P,R307,2*%
%TO.N,/ADC/SPI1_NSS*%
X14002500Y-6606000D03*
%TD*%
D13*
%TO.P,C309,1*%
%TO.N,+3V3*%
X13002250Y-6491250D03*
%TO.P,C309,2*%
%TO.N,GND*%
X13002250Y-6604750D03*
%TD*%
D18*
%TO.P,C313,1*%
%TO.N,/MICRO/XTAL_IN*%
X12571000Y-6297500D03*
%TO.P,C313,2*%
%TO.N,GND*%
X12475000Y-6297500D03*
%TD*%
D23*
%TO.P,R510,1*%
%TO.N,/ADC/SPI1_SCK*%
X13329000Y-6717500D03*
%TO.P,R510,2*%
%TO.N,Net-(U504-SCLK)*%
X13431000Y-6717500D03*
%TD*%
D35*
%TO.P,C306,1*%
%TO.N,+3V3*%
X13120250Y-5248750D03*
%TO.P,C306,2*%
%TO.N,GND*%
X13233750Y-5248750D03*
%TD*%
D17*
%TO.P,R601,1*%
%TO.N,/USBC/USB_CONN_CC1*%
X15201000Y-5997500D03*
%TO.P,R601,2*%
%TO.N,GND*%
X15099000Y-5997500D03*
%TD*%
D42*
%TO.P,C509,1*%
%TO.N,+5V*%
X12942500Y-8082500D03*
%TO.P,C509,2*%
%TO.N,GND*%
X12942500Y-7927500D03*
%TD*%
D46*
%TO.P,U202,1,GND*%
%TO.N,GND*%
X12642500Y-7315000D03*
D47*
%TO.P,U202,2,VIN*%
%TO.N,Net-(U202-VIN)*%
X12792500Y-7306250D03*
D46*
%TO.P,U202,3,VOUT*%
%TO.N,+3.3VA*%
X12942500Y-7315000D03*
%TD*%
D16*
%TO.P,C312,1*%
%TO.N,/MICRO/HSE_IN*%
X12746250Y-5775750D03*
%TO.P,C312,2*%
%TO.N,GND*%
X12746250Y-5871750D03*
%TD*%
D48*
%TO.P,U203,1*%
%TO.N,VCOM*%
X14388750Y-8622500D03*
%TO.P,U203,2,V-*%
%TO.N,GND*%
X14388750Y-8717500D03*
%TO.P,U203,3,+*%
%TO.N,/POWER & BIAS/VREF*%
X14388750Y-8812500D03*
%TO.P,U203,4,-*%
%TO.N,VCOM*%
X14616250Y-8812500D03*
%TO.P,U203,5,V+*%
%TO.N,+3.3VA*%
X14616250Y-8622500D03*
%TD*%
%TO.P,U501,1*%
%TO.N,Net-(U501--)*%
X13258750Y-8403750D03*
%TO.P,U501,2,V-*%
%TO.N,GND*%
X13258750Y-8498750D03*
%TO.P,U501,3,+*%
%TO.N,Net-(U501-+)*%
X13258750Y-8593750D03*
%TO.P,U501,4,-*%
%TO.N,Net-(U501--)*%
X13486250Y-8593750D03*
%TO.P,U501,5,V+*%
%TO.N,+3.3VA*%
X13486250Y-8403750D03*
%TD*%
D49*
%TO.P,U201,1,EN*%
%TO.N,+5V*%
X15175500Y-4592500D03*
%TO.P,U201,2,GND*%
%TO.N,GND*%
X15270500Y-4592500D03*
%TO.P,U201,3,SW*%
%TO.N,Net-(U201-SW)*%
X15365500Y-4592500D03*
%TO.P,U201,4,VIN*%
%TO.N,+5V*%
X15365500Y-4365000D03*
%TO.P,U201,5,FB*%
%TO.N,Net-(U201-FB)*%
X15175500Y-4365000D03*
%TD*%
D23*
%TO.P,R501,1*%
%TO.N,/ADC/IN_RF*%
X13516500Y-9170000D03*
%TO.P,R501,2*%
%TO.N,/ADC/IN*%
X13618500Y-9170000D03*
%TD*%
D50*
%TO.P,D306,1,RK*%
%TO.N,/MICRO/LED_R_K*%
X13023000Y-4600000D03*
%TO.P,D306,2,GK*%
%TO.N,/MICRO/LED_G_K*%
X13323000Y-4600000D03*
%TO.P,D306,3,BK*%
%TO.N,/MICRO/LED_B_K*%
X13323000Y-4750000D03*
%TO.P,D306,4,A*%
%TO.N,+3V3*%
X13023000Y-4750000D03*
%TD*%
D51*
%TO.N,+5V*%
X13542500Y-7477500D03*
X15270000Y-5015000D03*
%TO.N,GND*%
X14687500Y-9217500D03*
X13290000Y-5575000D03*
X15040000Y-9070000D03*
X13975000Y-6380000D03*
X13042500Y-8760000D03*
X15165500Y-4070000D03*
X13680000Y-5652500D03*
X14501500Y-4856000D03*
X13750000Y-8327500D03*
X13071250Y-8498750D03*
X15112500Y-7127500D03*
X15432500Y-6845000D03*
X14854905Y-5432577D03*
X14295000Y-7261000D03*
X13547500Y-6432500D03*
X15125000Y-5322500D03*
X14925000Y-7462500D03*
X12620000Y-7125000D03*
X15710000Y-8940000D03*
X15127500Y-6097500D03*
X12752500Y-8887500D03*
X12473750Y-6413750D03*
X14917500Y-7815000D03*
X14567500Y-9220000D03*
X15190000Y-9160000D03*
X15372500Y-5020000D03*
X13794000Y-4881000D03*
X14160095Y-5848673D03*
X14212500Y-8715000D03*
X13267500Y-7217500D03*
X15377500Y-6247500D03*
X13997500Y-5352500D03*
X13647500Y-8640000D03*
X15087500Y-7465000D03*
X15125000Y-7817500D03*
X12947500Y-7797500D03*
X14281500Y-3916000D03*
X12997500Y-5442500D03*
X15266240Y-5769526D03*
X12802500Y-9262500D03*
X12877250Y-6716250D03*
X13625000Y-8940000D03*
X14842500Y-6615000D03*
X14807500Y-5033500D03*
X14000000Y-8355000D03*
X15383000Y-4767500D03*
X12752500Y-8627500D03*
X13290000Y-9085000D03*
X15387500Y-5262500D03*
X13746500Y-4598500D03*
X15065500Y-4296375D03*
X13352500Y-6075000D03*
X14351500Y-5208500D03*
X15030000Y-4768000D03*
X13590000Y-7367500D03*
X15977500Y-9055000D03*
X13147500Y-6767500D03*
X13235000Y-5917500D03*
X15832500Y-4417500D03*
X12718750Y-6006250D03*
X14342500Y-9217500D03*
X14532500Y-5480000D03*
X13215000Y-7677500D03*
X13442500Y-7282500D03*
X15270000Y-6365000D03*
X15165500Y-3942500D03*
%TO.N,+3.3VA*%
X12925000Y-9262500D03*
X13635000Y-8257500D03*
X14000000Y-8242500D03*
X13265000Y-7355000D03*
%TO.N,/MICRO/NRST*%
X14600000Y-5392500D03*
X13227500Y-5782500D03*
%TO.N,+3V3*%
X14777500Y-5377500D03*
X14162500Y-6657500D03*
X13147500Y-6657500D03*
X15570000Y-6840000D03*
X14237500Y-5903750D03*
X15695000Y-4422500D03*
%TO.N,/MICRO/SWDIO*%
X13715000Y-5757500D03*
X13887500Y-5357500D03*
%TO.N,/DAC/DAC_NCLR*%
X13877500Y-6280000D03*
X14915000Y-7700000D03*
X13470000Y-6075000D03*
X15125000Y-7705000D03*
%TO.N,/DAC/DAC_NLDAC*%
X15130000Y-7565000D03*
X14915000Y-7570000D03*
%TD*%
D52*
%TO.N,+5V*%
X13542500Y-7477500D02*
X13151250Y-7477500D01*
X15175500Y-4745250D02*
X15175500Y-4592500D01*
X15153250Y-4767500D02*
X15175500Y-4745250D01*
D53*
X15336750Y-4365000D02*
X15365500Y-4365000D01*
X15175500Y-4526250D02*
X15336750Y-4365000D01*
D52*
X15145000Y-4775750D02*
X15153250Y-4767500D01*
X13042500Y-7570000D02*
X12795000Y-7817500D01*
X15145000Y-5015292D02*
X15269708Y-5015292D01*
X12848750Y-8083750D02*
X12945500Y-8083750D01*
X15026750Y-5012542D02*
X15142250Y-5012542D01*
X15142250Y-5012542D02*
X15145000Y-5015292D01*
X13058750Y-7570000D02*
X13042500Y-7570000D01*
X15269708Y-5015292D02*
X15270000Y-5015000D01*
D53*
X12945500Y-8176500D02*
X12999000Y-8230000D01*
D52*
X12795000Y-7817500D02*
X12795000Y-8035000D01*
D53*
X12945500Y-8083750D02*
X12945500Y-8176500D01*
D52*
X13151250Y-7477500D02*
X13058750Y-7570000D01*
X15145000Y-5015292D02*
X15145000Y-4895250D01*
X12795000Y-8035000D02*
X12800000Y-8035000D01*
D53*
X15175500Y-4592500D02*
X15175500Y-4526250D01*
D52*
X15145000Y-4895250D02*
X15145000Y-4775750D01*
X12800000Y-8035000D02*
X12848750Y-8083750D01*
%TO.N,GND*%
X12642500Y-7315000D02*
X12642500Y-7413250D01*
X12754500Y-8512500D02*
X12754500Y-8625500D01*
X13741250Y-8940000D02*
X13625000Y-8940000D01*
X14295000Y-7261000D02*
X14295000Y-7124000D01*
X13794000Y-5039500D02*
X13792500Y-5041000D01*
X15266750Y-4767500D02*
X15266750Y-4596250D01*
D54*
X13228750Y-5923750D02*
X13051250Y-5923750D01*
D52*
X15133750Y-5748750D02*
X15200000Y-5748750D01*
X14386250Y-8715000D02*
X14388750Y-8717500D01*
D53*
X13427000Y-7830000D02*
X13427000Y-7759500D01*
D54*
X13883750Y-5623750D02*
X14040500Y-5623750D01*
D52*
X14807500Y-5208500D02*
X14800000Y-5216000D01*
X15040750Y-9069250D02*
X15040000Y-9070000D01*
X14710000Y-5033500D02*
X14702500Y-5041000D01*
D54*
X12400000Y-6222500D02*
X12475000Y-6297500D01*
D52*
X15200000Y-5748750D02*
X15220775Y-5769526D01*
X15193250Y-9159250D02*
X15192500Y-9160000D01*
D54*
X13692500Y-6423250D02*
X13692500Y-6265000D01*
D53*
X13427000Y-8003000D02*
X13425000Y-8005000D01*
D52*
X13746500Y-4598500D02*
X13746500Y-4472000D01*
D53*
X15377500Y-6247500D02*
X15377500Y-6197500D01*
D52*
X14247500Y-4271000D02*
X14374500Y-4271000D01*
X14807500Y-5033500D02*
X14807500Y-5208500D01*
X12752500Y-9008875D02*
X12750625Y-9010750D01*
D54*
X13242500Y-5257500D02*
X13242500Y-5432500D01*
D52*
X13267500Y-7217500D02*
X13265750Y-7219250D01*
X13154500Y-8760000D02*
X13164500Y-8750000D01*
X15977500Y-9055000D02*
X16090500Y-9055000D01*
D54*
X13242500Y-5527500D02*
X13242500Y-5432500D01*
D52*
X12642500Y-7413250D02*
X12542500Y-7513250D01*
X13002250Y-6604750D02*
X12877250Y-6604750D01*
D53*
X13427000Y-7830000D02*
X13427000Y-8003000D01*
D54*
X13572500Y-7145000D02*
X13617500Y-7100000D01*
D52*
X16090500Y-9055000D02*
X16092500Y-9053000D01*
X13788750Y-8987500D02*
X13741250Y-8940000D01*
D53*
X15099000Y-5997500D02*
X15099000Y-6069000D01*
D52*
X13746500Y-4472000D02*
X13747500Y-4471000D01*
X15720000Y-8827500D02*
X15720000Y-8930000D01*
X15570000Y-7162500D02*
X15524250Y-7116750D01*
X14688750Y-9094250D02*
X14688750Y-9216250D01*
X15266750Y-4596250D02*
X15270500Y-4592500D01*
X12718750Y-6006250D02*
X12746250Y-5978750D01*
D54*
X13290000Y-5575000D02*
X13242500Y-5527500D01*
X13970000Y-7137500D02*
X14012000Y-7095500D01*
D52*
X13360500Y-9155500D02*
X13400000Y-9155500D01*
X13071250Y-8498750D02*
X13258750Y-8498750D01*
D54*
X14040500Y-5653250D02*
X14058750Y-5635000D01*
D52*
X13067500Y-8502500D02*
X13071250Y-8498750D01*
X13150625Y-9022500D02*
X13227500Y-9022500D01*
X15123250Y-7116750D02*
X15112500Y-7127500D01*
X13215000Y-7677500D02*
X13217500Y-7680000D01*
X14392500Y-3916000D02*
X14392500Y-4253000D01*
D54*
X12400000Y-6122500D02*
X12400000Y-6222500D01*
D52*
X12877250Y-6716250D02*
X12877250Y-6604750D01*
D54*
X13683250Y-6432500D02*
X13692500Y-6423250D01*
D53*
X13425000Y-8005000D02*
X13348750Y-7928750D01*
D52*
X14501500Y-4531000D02*
X14374500Y-4404000D01*
X15165500Y-4070000D02*
X15282500Y-4070000D01*
D53*
X15387500Y-5362500D02*
X15475000Y-5450000D01*
D52*
X14351500Y-5042000D02*
X14352500Y-5041000D01*
D54*
X13970000Y-7290000D02*
X13970000Y-7137500D01*
X15112500Y-7287500D02*
X15112500Y-7127500D01*
D52*
X15165500Y-3942500D02*
X15285000Y-3942500D01*
X12754500Y-8625500D02*
X12752500Y-8627500D01*
X12877250Y-6604750D02*
X12752250Y-6604750D01*
D53*
X15377500Y-6197500D02*
X15475000Y-6100000D01*
X13427000Y-7759500D02*
X13347500Y-7680000D01*
D52*
X12673750Y-6006250D02*
X12570000Y-5902500D01*
X15307500Y-9159250D02*
X15193250Y-9159250D01*
X15282500Y-4070000D02*
X15285000Y-4067500D01*
X15065500Y-4296375D02*
X15065500Y-4198625D01*
D54*
X14872500Y-7024000D02*
X15009000Y-7024000D01*
D52*
X13265750Y-7219250D02*
X13137500Y-7219250D01*
X14804750Y-5211250D02*
X14800000Y-5216000D01*
D54*
X13235000Y-5917500D02*
X13228750Y-5923750D01*
D52*
X13290000Y-9085000D02*
X13360500Y-9155500D01*
D54*
X12883750Y-5442000D02*
X12997000Y-5442000D01*
D52*
X14374500Y-4404000D02*
X14374500Y-4271000D01*
D53*
X15099000Y-6069000D02*
X15127500Y-6097500D01*
D52*
X13217500Y-7680000D02*
X13347500Y-7680000D01*
X12947500Y-7926750D02*
X12945500Y-7928750D01*
X13065000Y-8502500D02*
X13067500Y-8502500D01*
D54*
X14265500Y-7095500D02*
X14295000Y-7125000D01*
D52*
X14564750Y-9217250D02*
X14567500Y-9220000D01*
D54*
X13920000Y-7157500D02*
X13862500Y-7100000D01*
D52*
X12746250Y-5978750D02*
X12746250Y-5871750D01*
X15220775Y-5769526D02*
X15266240Y-5769526D01*
D54*
X13708750Y-5623750D02*
X13883750Y-5623750D01*
D52*
X13794000Y-4881000D02*
X13794000Y-5039500D01*
X14338750Y-9094250D02*
X14338750Y-9213750D01*
X15155000Y-9069250D02*
X15040750Y-9069250D01*
X14351500Y-5208500D02*
X14351500Y-5042000D01*
D54*
X13680000Y-5652500D02*
X13708750Y-5623750D01*
D52*
X14807500Y-5033500D02*
X14710000Y-5033500D01*
D53*
X14842500Y-6615000D02*
X14842500Y-6735750D01*
D52*
X15558750Y-8855000D02*
X15692500Y-8855000D01*
D53*
X13348750Y-7928750D02*
X13150000Y-7928750D01*
D52*
X15383000Y-4767500D02*
X15266750Y-4767500D01*
D54*
X14012000Y-7095500D02*
X14127500Y-7095500D01*
D52*
X13227500Y-9022500D02*
X13290000Y-9085000D01*
X13625000Y-9036000D02*
X13614750Y-9046250D01*
X14281500Y-3916000D02*
X14392500Y-3916000D01*
D53*
X15384250Y-5031750D02*
X15372500Y-5020000D01*
D52*
X15720000Y-8930000D02*
X15710000Y-8940000D01*
X13442500Y-7282500D02*
X13442500Y-7145500D01*
X12620000Y-7292500D02*
X12642500Y-7315000D01*
D54*
X13617500Y-7100000D02*
X13862500Y-7100000D01*
X13233750Y-5248750D02*
X13242500Y-5257500D01*
D53*
X13150000Y-7928750D02*
X12945500Y-7928750D01*
D52*
X12473750Y-6298750D02*
X12475000Y-6297500D01*
X15692500Y-8855000D02*
X15720000Y-8827500D01*
X12752500Y-8887500D02*
X12752500Y-9008875D01*
X13042500Y-8760000D02*
X13154500Y-8760000D01*
X14501500Y-4661000D02*
X14501500Y-4531000D01*
D54*
X15009000Y-7024000D02*
X15112500Y-7127500D01*
D52*
X13647500Y-8528000D02*
X13647500Y-8640000D01*
X12473750Y-6413750D02*
X12473750Y-6298750D01*
D54*
X12997000Y-5442000D02*
X12997500Y-5442500D01*
D52*
X12718750Y-6006250D02*
X12673750Y-6006250D01*
D54*
X14127500Y-7095500D02*
X14265500Y-7095500D01*
D52*
X14564750Y-9087500D02*
X14564750Y-9217250D01*
X12947500Y-7797500D02*
X12947500Y-7926750D01*
X15030000Y-4768000D02*
X15030000Y-4887500D01*
X12620000Y-7125000D02*
X12620000Y-7292500D01*
X15270000Y-6365000D02*
X15270000Y-6245500D01*
X14501500Y-4856000D02*
X14501500Y-4661000D01*
X14392500Y-4253000D02*
X14374500Y-4271000D01*
X14688750Y-9216250D02*
X14687500Y-9217500D01*
X13625000Y-8940000D02*
X13625000Y-9036000D01*
D53*
X15127500Y-5325000D02*
X15127500Y-5416500D01*
D52*
X15524250Y-7116750D02*
X15370000Y-7116750D01*
D53*
X13547500Y-6432500D02*
X13683250Y-6432500D01*
D52*
X15370000Y-7116750D02*
X15123250Y-7116750D01*
X14212500Y-8715000D02*
X14386250Y-8715000D01*
D54*
X13442000Y-7145000D02*
X13572500Y-7145000D01*
D52*
X13442500Y-7145500D02*
X13442000Y-7145000D01*
D53*
X15387500Y-5262500D02*
X15387500Y-5362500D01*
D54*
X14197500Y-5635000D02*
X14058750Y-5635000D01*
D53*
X15384250Y-5140000D02*
X15384250Y-5031750D01*
D54*
X13920000Y-7290000D02*
X13920000Y-7157500D01*
D53*
X15125000Y-5322500D02*
X15127500Y-5325000D01*
D52*
X14338750Y-9213750D02*
X14342500Y-9217500D01*
%TO.N,Net-(U202-VIN)*%
X12692000Y-7626750D02*
X12542500Y-7626750D01*
X12792500Y-7306250D02*
X12792500Y-7526250D01*
X12792500Y-7526250D02*
X12748750Y-7570000D01*
X12748750Y-7570000D02*
X12692000Y-7626750D01*
%TO.N,+3.3VA*%
X14670500Y-8962500D02*
X14688750Y-8980750D01*
D54*
X13767500Y-6977500D02*
X13770000Y-6980000D01*
D52*
X12945500Y-7318000D02*
X12942500Y-7315000D01*
X14616250Y-8622500D02*
X14682750Y-8622500D01*
X14728750Y-8940750D02*
X14688750Y-8980750D01*
X14236250Y-8242500D02*
X14000000Y-8242500D01*
D54*
X13767500Y-6845000D02*
X13767500Y-6977500D01*
D52*
X13493250Y-8410750D02*
X13486250Y-8403750D01*
X14682750Y-8622500D02*
X14728750Y-8668500D01*
X13137500Y-7105750D02*
X13253250Y-6990000D01*
X13617500Y-7004000D02*
X13746000Y-7004000D01*
X13137500Y-7105750D02*
X13121189Y-7105750D01*
X13456000Y-7004000D02*
X13617500Y-7004000D01*
X14564750Y-8962500D02*
X14670500Y-8962500D01*
X12942500Y-7315000D02*
X12982500Y-7355000D01*
D53*
X12757375Y-9117500D02*
X12750625Y-9124250D01*
D52*
X14616250Y-8622500D02*
X14236250Y-8242500D01*
X13121189Y-7105750D02*
X12942500Y-7284439D01*
X12982500Y-7355000D02*
X13265000Y-7355000D01*
X13442000Y-6990000D02*
X13456000Y-7004000D01*
X13746000Y-7004000D02*
X13770000Y-6980000D01*
X13657500Y-8410750D02*
X13493250Y-8410750D01*
X13253250Y-6990000D02*
X13442000Y-6990000D01*
X13635000Y-8257500D02*
X13491250Y-8401250D01*
X14688750Y-8980750D02*
X14713750Y-8955750D01*
D53*
X15331250Y-8950000D02*
X15154250Y-8950000D01*
D52*
X12923125Y-9117500D02*
X12923125Y-9260625D01*
X14713750Y-8955750D02*
X15155000Y-8955750D01*
X12923125Y-9260625D02*
X12925000Y-9262500D01*
D53*
X12923125Y-9117500D02*
X12757375Y-9117500D01*
D52*
X13491250Y-8401250D02*
X13477500Y-8401250D01*
X14728750Y-8668500D02*
X14728750Y-8940750D01*
X12942500Y-7284439D02*
X12942500Y-7315000D01*
D53*
X15154250Y-8950000D02*
X15147500Y-8956750D01*
%TO.N,/POWER & BIAS/VREF*%
X14338750Y-8980750D02*
X14357000Y-8962500D01*
X14338750Y-8862500D02*
X14338750Y-8980750D01*
X14388750Y-8812500D02*
X14338750Y-8862500D01*
X14357000Y-8962500D02*
X14462750Y-8962500D01*
X14462750Y-9087500D02*
X14462750Y-8962500D01*
%TO.N,VBUS*%
X15067500Y-6172500D02*
X15018750Y-6123750D01*
D52*
X15270000Y-6128250D02*
X15378250Y-6020000D01*
D53*
X14906250Y-5748750D02*
X15018750Y-5748750D01*
D52*
X15270750Y-5448250D02*
X15352500Y-5530000D01*
D53*
X15145000Y-5177500D02*
X15145000Y-5129792D01*
D52*
X15352500Y-5530000D02*
X15475000Y-5530000D01*
X15145000Y-5129792D02*
X15145000Y-5135000D01*
D53*
X15018750Y-5303750D02*
X15145000Y-5177500D01*
X15270000Y-6128250D02*
X15225750Y-6172500D01*
D52*
X15270750Y-5140000D02*
X15270750Y-5448250D01*
D53*
X15225750Y-6172500D02*
X15067500Y-6172500D01*
D52*
X15378250Y-6020000D02*
X15475000Y-6020000D01*
D53*
X15018750Y-6123750D02*
X15018750Y-5748750D01*
X15018750Y-5748750D02*
X15018750Y-5303750D01*
D52*
X15144750Y-5130042D02*
X15145000Y-5129792D01*
D54*
%TO.N,/MICRO/NRST*%
X13227500Y-5782500D02*
X13136250Y-5873750D01*
X13136250Y-5873750D02*
X13051250Y-5873750D01*
X14570750Y-5217500D02*
X14569250Y-5216000D01*
D53*
X14686500Y-5216000D02*
X14569250Y-5216000D01*
D54*
X14600000Y-5392500D02*
X14600000Y-5217500D01*
D52*
%TO.N,+3V3*%
X13023000Y-4750000D02*
X12943000Y-4750000D01*
D54*
X13192500Y-5321000D02*
X13192500Y-5432500D01*
X13862000Y-6999500D02*
X14127500Y-6999500D01*
D52*
X15570000Y-6840000D02*
X15570000Y-7007500D01*
X14517500Y-3831000D02*
X15303311Y-3831000D01*
D54*
X13820000Y-6957500D02*
X13862000Y-6999500D01*
D52*
X12966250Y-4806750D02*
X12966250Y-4900000D01*
D54*
X14295000Y-6790000D02*
X14162500Y-6657500D01*
D52*
X12959500Y-5050000D02*
X12959500Y-5088000D01*
D54*
X13742500Y-6265000D02*
X13742500Y-6378250D01*
X13192500Y-5432500D02*
X13192500Y-5537500D01*
X15062500Y-6847500D02*
X15062500Y-6955000D01*
D52*
X13023000Y-4750000D02*
X12966250Y-4806750D01*
X13002250Y-6367750D02*
X12982000Y-6347500D01*
X15877500Y-4147500D02*
X15907500Y-4117500D01*
X15398500Y-4067500D02*
X15398500Y-4186750D01*
D54*
X15110750Y-7003250D02*
X15188250Y-7003250D01*
D52*
X15374250Y-7007500D02*
X15370000Y-7003250D01*
X12860000Y-4667000D02*
X12860000Y-4345000D01*
D54*
X13742500Y-6378250D02*
X13796750Y-6432500D01*
X14002500Y-6504000D02*
X14009000Y-6504000D01*
D52*
X15907500Y-4117500D02*
X15915000Y-4117500D01*
D54*
X14250000Y-5521500D02*
X14327500Y-5599000D01*
X12902000Y-5573750D02*
X13051250Y-5573750D01*
D52*
X14501500Y-4017000D02*
X14501500Y-4271000D01*
D54*
X15062500Y-6955000D02*
X15110750Y-7003250D01*
D52*
X12966250Y-4900000D02*
X12966250Y-5043250D01*
X15398500Y-3942500D02*
X15398500Y-4067500D01*
X13374000Y-3831000D02*
X14517500Y-3831000D01*
X12943000Y-4750000D02*
X12860000Y-4667000D01*
D53*
X14269750Y-5871500D02*
X14360000Y-5871500D01*
D54*
X13120250Y-5248750D02*
X13192500Y-5321000D01*
X13192500Y-5537500D02*
X13156250Y-5573750D01*
D52*
X14892500Y-5262500D02*
X14556000Y-5599000D01*
X15398500Y-3926189D02*
X15398500Y-3942500D01*
X13002250Y-6491250D02*
X13002250Y-6367750D01*
D54*
X14127500Y-6999500D02*
X14265500Y-6999500D01*
D52*
X12860000Y-4345000D02*
X13374000Y-3831000D01*
D54*
X14002500Y-6504000D02*
X14002500Y-6505037D01*
D52*
X14892500Y-4662000D02*
X14892500Y-5262500D01*
D54*
X15188250Y-7003250D02*
X15370000Y-7003250D01*
D52*
X14501500Y-4271000D02*
X14892500Y-4662000D01*
X14602500Y-3916000D02*
X14501500Y-4017000D01*
D54*
X13796750Y-6432500D02*
X13819250Y-6455000D01*
D52*
X15907500Y-4117500D02*
X15907500Y-4210000D01*
D54*
X14197500Y-5521500D02*
X14250000Y-5521500D01*
D52*
X12966250Y-5043250D02*
X12959500Y-5050000D01*
D54*
X13953500Y-6455000D02*
X14002500Y-6504000D01*
X14006500Y-5573750D02*
X14058750Y-5521500D01*
D53*
X14237500Y-5903750D02*
X14269750Y-5871500D01*
D52*
X15398500Y-4186750D02*
X15392750Y-4192500D01*
D54*
X14265500Y-6999500D02*
X14295000Y-6970000D01*
X14197500Y-5521500D02*
X14220500Y-5521500D01*
D52*
X14600000Y-3831000D02*
X14600000Y-3913500D01*
D54*
X13147500Y-6636500D02*
X13002250Y-6491250D01*
D52*
X15303311Y-3831000D02*
X15398500Y-3926189D01*
D54*
X13819250Y-6455000D02*
X13953500Y-6455000D01*
X14295000Y-6970000D02*
X14295000Y-6790000D01*
D52*
X12959500Y-5088000D02*
X13120250Y-5248750D01*
D54*
X14009000Y-6504000D02*
X14162500Y-6657500D01*
X14058750Y-5521500D02*
X14197500Y-5521500D01*
X13156250Y-5573750D02*
X13051250Y-5573750D01*
D52*
X15570000Y-7007500D02*
X15374250Y-7007500D01*
D54*
X13883750Y-5573750D02*
X14006500Y-5573750D01*
D52*
X15907500Y-4210000D02*
X15695000Y-4422500D01*
X14556000Y-5599000D02*
X14327500Y-5599000D01*
D54*
X12883750Y-5555500D02*
X12902000Y-5573750D01*
X13820000Y-6850000D02*
X13820000Y-6957500D01*
D52*
X14600000Y-3913500D02*
X14602500Y-3916000D01*
D54*
X13147500Y-6657500D02*
X13147500Y-6636500D01*
D52*
%TO.N,VDDA*%
X12877250Y-6355250D02*
X12885000Y-6347500D01*
D54*
X12885000Y-6020438D02*
X12885000Y-6347500D01*
D52*
X12877250Y-6491250D02*
X12752250Y-6491250D01*
X12877250Y-6491250D02*
X12877250Y-6355250D01*
D54*
X12931688Y-5973750D02*
X12885000Y-6020438D01*
X13051250Y-5973750D02*
X12931688Y-5973750D01*
%TO.N,/MICRO/HSE_IN*%
X12466750Y-5775750D02*
X12746250Y-5775750D01*
X12748250Y-5773750D02*
X13051250Y-5773750D01*
X12402000Y-5900500D02*
X12400000Y-5902500D01*
X12400000Y-5902500D02*
X12400000Y-5842500D01*
X12400000Y-5842500D02*
X12466750Y-5775750D01*
X12746250Y-5775750D02*
X12748250Y-5773750D01*
X12746250Y-5775750D02*
X12747750Y-5774250D01*
%TO.N,/MICRO/XTAL_IN*%
X12571000Y-6123500D02*
X12570000Y-6122500D01*
X12571000Y-6297500D02*
X12676000Y-6297500D01*
X12571000Y-6297500D02*
X12571000Y-6123500D01*
X12676000Y-6297500D02*
X12745000Y-6228500D01*
%TO.N,/DAC/DAC_VREF*%
X15010750Y-6849250D02*
X15012500Y-6847500D01*
X14842500Y-6849250D02*
X15010750Y-6849250D01*
D53*
%TO.N,Net-(C404-Pad1)*%
X16092500Y-8957000D02*
X16092500Y-8830000D01*
X15973535Y-8728000D02*
X16075535Y-8830000D01*
X15967500Y-8728000D02*
X15973535Y-8728000D01*
X15951535Y-8728000D02*
X15967500Y-8728000D01*
X16075535Y-8830000D02*
X16092500Y-8830000D01*
%TO.N,Net-(U402-+)*%
X15720000Y-8731500D02*
X15840000Y-8731500D01*
X15558750Y-8760000D02*
X15587250Y-8731500D01*
X15840000Y-8731500D02*
X15842500Y-8729000D01*
X15587250Y-8731500D02*
X15720000Y-8731500D01*
%TO.N,Net-(C406-Pad1)*%
X15843500Y-8830000D02*
X15842500Y-8831000D01*
X15842500Y-8831000D02*
X15848535Y-8831000D01*
X15842500Y-8955000D02*
X15842500Y-8831000D01*
X15967500Y-8830000D02*
X15843500Y-8830000D01*
%TO.N,Net-(U402--)*%
X15331250Y-8790000D02*
X15491250Y-8950000D01*
X15491250Y-8950000D02*
X15558750Y-8950000D01*
X15837000Y-9056500D02*
X15842500Y-9051000D01*
X15720000Y-9056500D02*
X15837000Y-9056500D01*
X15823035Y-9051000D02*
X15842500Y-9051000D01*
X15665250Y-9056500D02*
X15720000Y-9056500D01*
X15558750Y-8950000D02*
X15665250Y-9056500D01*
X15331250Y-8760000D02*
X15331250Y-8790000D01*
%TO.N,/ADC/ADC_VREF_VIN*%
X13150000Y-8181000D02*
X13150000Y-8083750D01*
X13101000Y-8230000D02*
X13150000Y-8181000D01*
X13150000Y-8083750D02*
X13221250Y-8083750D01*
X13221250Y-8083750D02*
X13330000Y-8192500D01*
%TO.N,/ADC/IN_RF*%
X13388750Y-9048250D02*
X13510750Y-9048250D01*
X13510750Y-9048250D02*
X13512750Y-9046250D01*
X13495500Y-9029000D02*
X13512750Y-9046250D01*
X13512750Y-9046250D02*
X13512750Y-9171250D01*
X13495500Y-8921250D02*
X13495500Y-9029000D01*
%TO.N,/ADC/IN_BUF*%
X13382000Y-8803000D02*
X13388750Y-8796250D01*
X13382000Y-8921250D02*
X13382000Y-8803000D01*
X13188750Y-8926250D02*
X13377000Y-8926250D01*
X13377000Y-8926250D02*
X13382000Y-8921250D01*
%TO.N,/ADC/ADC_VREF*%
X13523000Y-7700500D02*
X13523000Y-7830000D01*
X13502500Y-7680000D02*
X13523000Y-7700500D01*
X13502500Y-7680000D02*
X13522500Y-7680000D01*
X13520000Y-8192500D02*
X13520000Y-7833000D01*
X13520000Y-7833000D02*
X13523000Y-7830000D01*
X13522500Y-7680000D02*
X13765000Y-7437500D01*
X13765000Y-7437500D02*
X13765000Y-7290000D01*
D54*
%TO.N,/ADC/ADC_IN+*%
X13820000Y-7750000D02*
X13799500Y-7770500D01*
X13799500Y-7770500D02*
X13799500Y-7835000D01*
X13785000Y-8554500D02*
X13785000Y-8658000D01*
X13799500Y-7835000D02*
X13810000Y-7845500D01*
X13810000Y-7845500D02*
X13810000Y-8529500D01*
X13817500Y-7285000D02*
X13817500Y-7393750D01*
X13817500Y-7393750D02*
X13820000Y-7396250D01*
X13810000Y-8529500D02*
X13785000Y-8554500D01*
X13820000Y-7396250D02*
X13820000Y-7750000D01*
%TO.N,/ADC/ADC_IN-*%
X13865000Y-7758000D02*
X13895500Y-7788500D01*
X13867500Y-7285000D02*
X13867500Y-7393750D01*
X13865000Y-7396250D02*
X13865000Y-7758000D01*
X13882500Y-7848000D02*
X13882500Y-8527000D01*
X13895500Y-7788500D02*
X13895500Y-7835000D01*
X13867500Y-7393750D02*
X13865000Y-7396250D01*
X13895500Y-7835000D02*
X13882500Y-7848000D01*
X13882500Y-8527000D02*
X13910000Y-8554500D01*
X13910000Y-8554500D02*
X13910000Y-8658000D01*
D53*
%TO.N,/MICRO/CONN_SWDIO*%
X13998500Y-5045000D02*
X14002500Y-5041000D01*
X14002500Y-4670000D02*
X13993500Y-4661000D01*
X14002500Y-5041000D02*
X14002500Y-4670000D01*
X13998500Y-5216000D02*
X13998500Y-5045000D01*
%TO.N,/MICRO/CONN_SWCLK*%
X13993500Y-4271000D02*
X13757500Y-4271000D01*
X13726500Y-4240000D02*
X13747500Y-4261000D01*
X13757500Y-4271000D02*
X13747500Y-4261000D01*
X13572500Y-4240000D02*
X13726500Y-4240000D01*
%TO.N,/MICRO/CONN_SWO*%
X14146500Y-5045000D02*
X14142500Y-5041000D01*
X14146500Y-5216000D02*
X14146500Y-5045000D01*
X14142500Y-4683000D02*
X14120500Y-4661000D01*
X14142500Y-5041000D02*
X14142500Y-4683000D01*
%TO.N,/MICRO/CONN_NRST*%
X14247500Y-4661000D02*
X14247500Y-4811000D01*
X14477500Y-5041000D02*
X14492500Y-5041000D01*
X14496500Y-5045000D02*
X14492500Y-5041000D01*
X14496500Y-5216000D02*
X14496500Y-5045000D01*
X14247500Y-4811000D02*
X14477500Y-5041000D01*
D52*
%TO.N,/MICRO/LED_G_K*%
X13272000Y-4549000D02*
X13323000Y-4600000D01*
X13272000Y-4450000D02*
X13272000Y-4549000D01*
%TO.N,/MICRO/LED_B_K*%
X13273000Y-4900000D02*
X13273000Y-4800000D01*
X13273000Y-4800000D02*
X13323000Y-4750000D01*
%TO.N,/MICRO/LED_R_K*%
X12972000Y-4450000D02*
X12972000Y-4549000D01*
X12972000Y-4549000D02*
X13023000Y-4600000D01*
D53*
%TO.N,/DAC/OUT*%
X15718500Y-9160000D02*
X15720000Y-9158500D01*
D52*
X15388000Y-9292000D02*
X15520000Y-9160000D01*
D53*
X15520000Y-9160000D02*
X15718500Y-9160000D01*
D52*
X15388000Y-9480000D02*
X15388000Y-9292000D01*
%TO.N,/ADC/IN*%
X13508677Y-9300000D02*
X13618500Y-9190177D01*
D53*
X13762500Y-9171250D02*
X13788750Y-9197500D01*
X13614750Y-9171250D02*
X13762500Y-9171250D01*
D52*
X13226500Y-9300000D02*
X13508677Y-9300000D01*
X13618500Y-9190177D02*
X13618500Y-9170000D01*
X13039500Y-9487000D02*
X13226500Y-9300000D01*
D54*
%TO.N,/USBC/USB_CONN_D-*%
X15185750Y-5843750D02*
X15192000Y-5850000D01*
X15367500Y-5750000D02*
X15335000Y-5782500D01*
X15335000Y-5850000D02*
X15475000Y-5850000D01*
X15192000Y-5850000D02*
X15335000Y-5850000D01*
X15335000Y-5782500D02*
X15335000Y-5850000D01*
X15475000Y-5750000D02*
X15367500Y-5750000D01*
%TO.N,/USBC/USB_CONN_D+*%
X15617500Y-5700000D02*
X15637500Y-5720000D01*
X15617500Y-5800000D02*
X15475000Y-5800000D01*
X15228126Y-5653750D02*
X15274376Y-5700000D01*
X15274376Y-5700000D02*
X15617500Y-5700000D01*
X15185750Y-5653750D02*
X15228126Y-5653750D01*
X15637500Y-5720000D02*
X15637500Y-5780000D01*
X15637500Y-5780000D02*
X15617500Y-5800000D01*
%TO.N,/USBC/USB_CONN_CC2*%
X15217376Y-5600000D02*
X15475000Y-5600000D01*
X15135876Y-5518500D02*
X15217376Y-5600000D01*
X15127500Y-5518500D02*
X15135876Y-5518500D01*
%TO.N,/USBC/USB_CONN_CC1*%
X15298500Y-5900000D02*
X15475000Y-5900000D01*
X15201000Y-5997500D02*
X15298500Y-5900000D01*
D53*
%TO.N,Net-(U201-SW)*%
X15365500Y-4592500D02*
X15420500Y-4537500D01*
D54*
%TO.N,/USBC/USB_CMC_D-*%
X14773750Y-5843750D02*
X14906250Y-5843750D01*
X14730000Y-5800000D02*
X14773750Y-5843750D01*
%TO.N,/USBC/USB_CMC_D+*%
X14776250Y-5653750D02*
X14906250Y-5653750D01*
X14730000Y-5700000D02*
X14776250Y-5653750D01*
D52*
%TO.N,Net-(U201-FB)*%
X15290750Y-4192500D02*
X15167750Y-4192500D01*
X15167750Y-4192500D02*
X15167750Y-4357250D01*
X15167750Y-4357250D02*
X15175500Y-4365000D01*
D54*
%TO.N,/DAC/SPI2_NSS*%
X15212500Y-6482500D02*
X15212500Y-6847500D01*
X13883750Y-5973750D02*
X14314750Y-5973750D01*
X14703500Y-5973500D02*
X15212500Y-6482500D01*
X14314750Y-5973750D02*
X14315000Y-5973500D01*
X14315000Y-5973500D02*
X14703500Y-5973500D01*
%TO.N,/MICRO/BOOT0*%
X13402500Y-5191000D02*
X13392500Y-5201000D01*
X13392500Y-5201000D02*
X13392500Y-5432500D01*
%TO.N,/MICRO/SWDIO*%
X13798750Y-5673750D02*
X13883750Y-5673750D01*
X13897500Y-5345000D02*
X13897500Y-5217000D01*
X13715000Y-5757500D02*
X13798750Y-5673750D01*
X13897500Y-5217000D02*
X13896500Y-5216000D01*
%TO.N,/MICRO/SWCLK*%
X13660000Y-4600000D02*
X13572500Y-4512500D01*
X13572500Y-4512500D02*
X13572500Y-4342000D01*
X13742500Y-5432500D02*
X13742500Y-5242500D01*
X13660000Y-5160000D02*
X13660000Y-4600000D01*
X13742500Y-5242500D02*
X13660000Y-5160000D01*
%TO.N,/MICRO/SWO*%
X13665000Y-5557500D02*
X13642500Y-5535000D01*
X13751562Y-5557500D02*
X13665000Y-5557500D01*
X14248500Y-5216000D02*
X13957000Y-5507500D01*
X13801562Y-5507500D02*
X13751562Y-5557500D01*
X13957000Y-5507500D02*
X13801562Y-5507500D01*
X13642500Y-5535000D02*
X13642500Y-5432500D01*
%TO.N,/ADC/SPI1_NSS*%
X13342500Y-6412500D02*
X13467500Y-6537500D01*
X13342500Y-6265000D02*
X13342500Y-6412500D01*
X13934000Y-6537500D02*
X14002500Y-6606000D01*
X13467500Y-6537500D02*
X13934000Y-6537500D01*
X13965000Y-6643500D02*
X13965000Y-6737500D01*
X13970000Y-6742500D02*
X13970000Y-6850000D01*
X14002500Y-6606000D02*
X13965000Y-6643500D01*
X13965000Y-6737500D02*
X13970000Y-6742500D01*
%TO.N,/MICRO/USB_D+*%
X14410000Y-5700000D02*
X14383750Y-5726250D01*
X13996875Y-5726250D02*
X13994375Y-5723750D01*
X14383750Y-5726250D02*
X13996875Y-5726250D01*
X13994375Y-5723750D02*
X13883750Y-5723750D01*
X14470000Y-5700000D02*
X14410000Y-5700000D01*
%TO.N,/MICRO/TIM4_CH3*%
X13320000Y-5150000D02*
X13162847Y-4992847D01*
X13320000Y-5279463D02*
X13320000Y-5150000D01*
X13342500Y-5432500D02*
X13342500Y-5301963D01*
X13162847Y-4538847D02*
X13074000Y-4450000D01*
X13162847Y-4992847D02*
X13162847Y-4538847D01*
X13342500Y-5301963D02*
X13320000Y-5279463D01*
%TO.N,/MICRO/TIM4_CH1*%
X13492500Y-5432500D02*
X13492500Y-5315000D01*
X13492500Y-5315000D02*
X13565000Y-5242500D01*
X13565000Y-4641000D02*
X13374000Y-4450000D01*
X13565000Y-5242500D02*
X13565000Y-4641000D01*
%TO.N,/MICRO/TIM4_CH2*%
X13510000Y-5200000D02*
X13510000Y-5035000D01*
X13442500Y-5267500D02*
X13510000Y-5200000D01*
X13510000Y-5035000D02*
X13375000Y-4900000D01*
X13442500Y-5432500D02*
X13442500Y-5267500D01*
%TO.N,/MICRO/HSE_OUT*%
X12916188Y-5823750D02*
X13051250Y-5823750D01*
X12745000Y-6126500D02*
X12810000Y-6061500D01*
X12810000Y-5929938D02*
X12916188Y-5823750D01*
X12810000Y-6061500D02*
X12810000Y-5929938D01*
%TO.N,/DAC/DAC_SCLK*%
X14543500Y-6070000D02*
X14586500Y-6070000D01*
X15162500Y-6646000D02*
X15162500Y-6847500D01*
X14586500Y-6070000D02*
X15162500Y-6646000D01*
%TO.N,/DAC/SPI2_SCK*%
X13883750Y-6073750D02*
X14437750Y-6073750D01*
X14437750Y-6073750D02*
X14441500Y-6070000D01*
%TO.N,/DAC/DAC_OUT_B*%
X14872500Y-7126000D02*
X15008500Y-7126000D01*
X15008500Y-7126000D02*
X15062500Y-7180000D01*
X15062500Y-7180000D02*
X15062500Y-7287500D01*
%TO.N,/DAC/DAC_OUT_A*%
X15012500Y-7287500D02*
X15012500Y-7882500D01*
X16090500Y-8728000D02*
X16092500Y-8728000D01*
X15405000Y-8275000D02*
X15637500Y-8275000D01*
X15012500Y-7882500D02*
X15405000Y-8275000D01*
X15637500Y-8275000D02*
X16090500Y-8728000D01*
D52*
%TO.N,VCOM*%
X13576500Y-8855000D02*
X13517750Y-8796250D01*
X13910000Y-8760000D02*
X13910000Y-8840000D01*
D53*
X14388750Y-8622500D02*
X14455000Y-8622500D01*
D52*
X13910000Y-8840000D02*
X13895000Y-8855000D01*
D53*
X14616250Y-8783750D02*
X14616250Y-8812500D01*
D52*
X13895000Y-8855000D02*
X13576500Y-8855000D01*
X14388750Y-8622500D02*
X14155000Y-8622500D01*
D53*
X14455000Y-8622500D02*
X14616250Y-8783750D01*
D52*
X14040000Y-8857500D02*
X13922500Y-8857500D01*
X14085000Y-8692500D02*
X14085000Y-8812500D01*
X14085000Y-8812500D02*
X14040000Y-8857500D01*
X13517750Y-8796250D02*
X13490750Y-8796250D01*
X14155000Y-8622500D02*
X14085000Y-8692500D01*
D53*
%TO.N,/ADC/BUF_OUT*%
X12923125Y-8956250D02*
X12923125Y-8927500D01*
X13084375Y-9117500D02*
X12923125Y-8956250D01*
D52*
X12847500Y-8858750D02*
X12916250Y-8927500D01*
X12847500Y-8781000D02*
X12847500Y-8858750D01*
D53*
X12923125Y-8927500D02*
X12923500Y-8927125D01*
X13150625Y-9117500D02*
X13084375Y-9117500D01*
D54*
%TO.N,/ADC/SPI1_SCK*%
X13242500Y-6621000D02*
X13331500Y-6710000D01*
X13242500Y-6265000D02*
X13242500Y-6621000D01*
%TO.N,/MICRO/USB_D-*%
X14470000Y-5800000D02*
X14410000Y-5800000D01*
X14410000Y-5800000D02*
X14381250Y-5771250D01*
X14381250Y-5771250D02*
X13996875Y-5771250D01*
X13994375Y-5773750D02*
X13883750Y-5773750D01*
X13996875Y-5771250D02*
X13994375Y-5773750D01*
%TO.N,/DAC/DAC_NCLR*%
X13877500Y-6280000D02*
X14005000Y-6280000D01*
X14827500Y-7700000D02*
X14915000Y-7700000D01*
X15125000Y-7705000D02*
X15212500Y-7617500D01*
X13470000Y-6075000D02*
X13542500Y-6147500D01*
X13542500Y-6147500D02*
X13542500Y-6265000D01*
X15212500Y-7617500D02*
X15212500Y-7287500D01*
X14452500Y-6727500D02*
X14452500Y-7325000D01*
X14005000Y-6280000D02*
X14452500Y-6727500D01*
X14452500Y-7325000D02*
X14827500Y-7700000D01*
%TO.N,/ADC/SPI1_MISO*%
X13920000Y-6640000D02*
X13920000Y-6850000D01*
X13292500Y-6520000D02*
X13375000Y-6602500D01*
X13292500Y-6265000D02*
X13292500Y-6520000D01*
X13882500Y-6602500D02*
X13920000Y-6640000D01*
X13375000Y-6602500D02*
X13882500Y-6602500D01*
%TO.N,/DAC/DAC_NLDAC*%
X14592500Y-6667500D02*
X14592500Y-7255000D01*
X14127500Y-6202500D02*
X14592500Y-6667500D01*
X14592500Y-7255000D02*
X14907500Y-7570000D01*
X13745000Y-6130000D02*
X13817500Y-6202500D01*
X13620000Y-6130000D02*
X13745000Y-6130000D01*
X15130000Y-7565000D02*
X15162500Y-7532500D01*
X13592500Y-6157500D02*
X13620000Y-6130000D01*
X13592500Y-6265000D02*
X13592500Y-6157500D01*
X14907500Y-7570000D02*
X14915000Y-7570000D01*
X15162500Y-7532500D02*
X15162500Y-7287500D01*
X13817500Y-6202500D02*
X14127500Y-6202500D01*
%TO.N,/DAC/SPI2_MOSI*%
X13883750Y-6123750D02*
X14276250Y-6123750D01*
X14677500Y-6525000D02*
X14900000Y-6525000D01*
X15112500Y-6737500D02*
X15112500Y-6847500D01*
X14276250Y-6123750D02*
X14677500Y-6525000D01*
X14900000Y-6525000D02*
X15112500Y-6737500D01*
D52*
%TO.N,Net-(C501-Pad1)*%
X12847500Y-8679000D02*
X12847500Y-8518500D01*
X12850000Y-8514000D02*
X12846500Y-8517500D01*
X12847500Y-8518500D02*
X12846500Y-8517500D01*
X12850000Y-8387500D02*
X12850000Y-8514000D01*
%TO.N,Net-(U501-+)*%
X13117250Y-8593750D02*
X13258750Y-8593750D01*
D53*
X13258750Y-8593750D02*
X13261750Y-8596750D01*
D52*
X13068500Y-8642500D02*
X13117250Y-8593750D01*
D53*
X13261750Y-8596750D02*
X13261750Y-8746250D01*
%TO.N,Net-(U501--)*%
X13317500Y-8401250D02*
X13477500Y-8561250D01*
X13646250Y-8760000D02*
X13785000Y-8760000D01*
D52*
X13075500Y-8382500D02*
X13096750Y-8403750D01*
X13096750Y-8403750D02*
X13258750Y-8403750D01*
D53*
X13477500Y-8561250D02*
X13477500Y-8591250D01*
X13477500Y-8591250D02*
X13646250Y-8760000D01*
D52*
%TO.N,Net-(C505-Pad1)*%
X12882500Y-8285500D02*
X12850000Y-8285500D01*
X12966500Y-8642500D02*
X12966500Y-8395500D01*
X12966500Y-8395500D02*
X12979500Y-8382500D01*
X12979500Y-8382500D02*
X12882500Y-8285500D01*
D54*
%TO.N,Net-(U504-SCLK)*%
X13800000Y-6687500D02*
X13870000Y-6757500D01*
X13433500Y-6710000D02*
X13456000Y-6687500D01*
X13456000Y-6687500D02*
X13800000Y-6687500D01*
X13870000Y-6757500D02*
X13870000Y-6835000D01*
%TD*%
M02*
