%TF.GenerationSoftware,KiCad,Pcbnew,9.0.0*%
%TF.CreationDate,2025-02-24T12:48:06+01:00*%
%TF.ProjectId,mixed_signal,6d697865-645f-4736-9967-6e616c2e6b69,rev?*%
%TF.SameCoordinates,Original*%
%TF.FileFunction,Copper,L3,Inr*%
%TF.FilePolarity,Positive*%
%FSLAX45Y45*%
G04 Gerber Fmt 4.5, Leading zero omitted, Abs format (unit mm)*
G04 Created by KiCad (PCBNEW 9.0.0) date 2025-02-24 12:48:06*
%MOMM*%
%LPD*%
G01*
G04 APERTURE LIST*
%TA.AperFunction,ComponentPad*%
%ADD10C,2.300000*%
%TD*%
%TA.AperFunction,ComponentPad*%
%ADD11C,1.524000*%
%TD*%
%TA.AperFunction,ComponentPad*%
%ADD12O,2.100000X1.000000*%
%TD*%
%TA.AperFunction,ComponentPad*%
%ADD13O,1.600000X1.000000*%
%TD*%
%TA.AperFunction,ViaPad*%
%ADD14C,0.700000*%
%TD*%
G04 APERTURE END LIST*
D10*
%TO.N,*%
%TO.C,J401*%
X15896000Y-9988000D03*
X14880000Y-9990000D03*
D11*
%TO.N,GND*%
X15642000Y-9480000D03*
%TO.N,/DAC/OUT*%
X15388000Y-9480000D03*
%TD*%
D10*
%TO.N,*%
%TO.C,J501*%
X13547500Y-9995000D03*
X12531500Y-9997000D03*
D11*
%TO.N,GND*%
X13293500Y-9487000D03*
%TO.N,/ADC/IN*%
X13039500Y-9487000D03*
%TD*%
D12*
%TO.N,unconnected-(J601-SHIELD-PadS1)_1*%
%TO.C,J601*%
X15594500Y-6207000D03*
D13*
%TO.N,unconnected-(J601-SHIELD-PadS1)*%
X16012500Y-6207000D03*
D12*
%TO.N,unconnected-(J601-SHIELD-PadS1)_3*%
X15594500Y-5343000D03*
D13*
%TO.N,unconnected-(J601-SHIELD-PadS1)_2*%
X16012500Y-5343000D03*
%TD*%
D14*
%TO.N,+5V*%
X13542500Y-7477500D03*
X15270000Y-5015000D03*
%TO.N,GND*%
X14687500Y-9217500D03*
X13290000Y-5575000D03*
X15040000Y-9070000D03*
X13975000Y-6380000D03*
X13042500Y-8760000D03*
X15165500Y-4070000D03*
X13680000Y-5652500D03*
X14501500Y-4856000D03*
X13750000Y-8327500D03*
X13071250Y-8498750D03*
X15112500Y-7127500D03*
X15432500Y-6845000D03*
X14854905Y-5432577D03*
X14295000Y-7261000D03*
X13547500Y-6432500D03*
X15125000Y-5322500D03*
X14925000Y-7462500D03*
X12620000Y-7125000D03*
X15710000Y-8940000D03*
X15127500Y-6097500D03*
X12752500Y-8887500D03*
X12473750Y-6413750D03*
X14917500Y-7815000D03*
X14567500Y-9220000D03*
X15190000Y-9160000D03*
X15372500Y-5020000D03*
X13794000Y-4881000D03*
X14160095Y-5848673D03*
X14212500Y-8715000D03*
X13267500Y-7217500D03*
X15377500Y-6247500D03*
X13997500Y-5352500D03*
X13647500Y-8640000D03*
X15087500Y-7465000D03*
X15125000Y-7817500D03*
X12947500Y-7797500D03*
X14281500Y-3916000D03*
X12997500Y-5442500D03*
X15266240Y-5769526D03*
X12802500Y-9262500D03*
X12877250Y-6716250D03*
X13625000Y-8940000D03*
X14842500Y-6615000D03*
X14807500Y-5033500D03*
X14000000Y-8355000D03*
X15383000Y-4767500D03*
X12752500Y-8627500D03*
X13290000Y-9085000D03*
X15387500Y-5262500D03*
X13746500Y-4598500D03*
X15065500Y-4296375D03*
X13352500Y-6075000D03*
X14351500Y-5208500D03*
X15030000Y-4768000D03*
X13590000Y-7367500D03*
X15977500Y-9055000D03*
X13147500Y-6767500D03*
X13235000Y-5917500D03*
X15832500Y-4417500D03*
X12718750Y-6006250D03*
X14342500Y-9217500D03*
X14532500Y-5480000D03*
X13215000Y-7677500D03*
X13442500Y-7282500D03*
X15270000Y-6365000D03*
X15165500Y-3942500D03*
%TO.N,+3.3VA*%
X12925000Y-9262500D03*
X13635000Y-8257500D03*
X14000000Y-8242500D03*
X13265000Y-7355000D03*
%TO.N,/MICRO/NRST*%
X14600000Y-5392500D03*
X13227500Y-5782500D03*
%TO.N,+3V3*%
X14777500Y-5377500D03*
X14162500Y-6657500D03*
X13147500Y-6657500D03*
X15570000Y-6840000D03*
X14237500Y-5903750D03*
X15695000Y-4422500D03*
%TO.N,/MICRO/SWDIO*%
X13715000Y-5757500D03*
X13887500Y-5357500D03*
%TO.N,/DAC/DAC_NCLR*%
X13877500Y-6280000D03*
X14915000Y-7700000D03*
X13470000Y-6075000D03*
X15125000Y-7705000D03*
%TO.N,/DAC/DAC_NLDAC*%
X15130000Y-7565000D03*
X14915000Y-7570000D03*
%TD*%
%TA.AperFunction,Conductor*%
%TO.N,GND*%
G36*
X15976198Y-3657788D02*
G01*
X16072060Y-3676856D01*
X16076529Y-3678708D01*
X16156762Y-3732317D01*
X16160182Y-3735738D01*
X16213792Y-3815971D01*
X16215644Y-3820441D01*
X16234712Y-3916302D01*
X16234950Y-3918721D01*
X16234950Y-10586279D01*
X16234712Y-10588698D01*
X16215644Y-10684559D01*
X16213792Y-10689029D01*
X16160183Y-10769262D01*
X16156762Y-10772683D01*
X16076529Y-10826292D01*
X16072059Y-10828144D01*
X15976198Y-10847212D01*
X15973779Y-10847450D01*
X12471221Y-10847450D01*
X12468802Y-10847212D01*
X12372941Y-10828144D01*
X12368471Y-10826292D01*
X12288238Y-10772683D01*
X12284817Y-10769262D01*
X12231208Y-10689029D01*
X12229356Y-10684560D01*
X12210288Y-10588698D01*
X12210050Y-10586279D01*
X12210050Y-10296809D01*
X14022450Y-10296809D01*
X14050622Y-10364822D01*
X14102678Y-10416878D01*
X14170691Y-10445050D01*
X14170691Y-10445050D01*
X14244308Y-10445050D01*
X14244309Y-10445050D01*
X14312322Y-10416878D01*
X14364378Y-10364822D01*
X14392550Y-10296809D01*
X14392550Y-10223191D01*
X14364378Y-10155178D01*
X14312322Y-10103122D01*
X14244309Y-10074950D01*
X14244309Y-10074950D01*
X14170691Y-10074950D01*
X14170691Y-10074950D01*
X14102677Y-10103122D01*
X14050622Y-10155178D01*
X14022450Y-10223191D01*
X14022450Y-10223191D01*
X14022450Y-10296809D01*
X12210050Y-10296809D01*
X12210050Y-9997000D01*
X12363216Y-9997000D01*
X12376026Y-10061399D01*
X12376026Y-10061399D01*
X12376026Y-10061399D01*
X12376026Y-10061399D01*
X12412506Y-10115994D01*
X12467101Y-10152474D01*
X12467101Y-10152474D01*
X12467101Y-10152474D01*
X12531500Y-10165284D01*
X12531500Y-10165284D01*
X12531500Y-10165284D01*
X12595899Y-10152474D01*
X12595899Y-10152474D01*
X12595899Y-10152474D01*
X12650494Y-10115994D01*
X12686974Y-10061399D01*
X12687372Y-10059399D01*
X12699783Y-9997000D01*
X12699783Y-9997000D01*
X12699386Y-9995000D01*
X13379216Y-9995000D01*
X13392026Y-10059399D01*
X13392026Y-10059399D01*
X13392026Y-10059399D01*
X13392026Y-10059399D01*
X13428506Y-10113994D01*
X13483101Y-10150474D01*
X13483101Y-10150474D01*
X13483101Y-10150474D01*
X13547500Y-10163284D01*
X13547500Y-10163284D01*
X13547500Y-10163284D01*
X13611899Y-10150474D01*
X13611899Y-10150474D01*
X13611899Y-10150474D01*
X13666494Y-10113994D01*
X13702974Y-10059399D01*
X13703968Y-10054399D01*
X13715783Y-9995000D01*
X13715783Y-9995000D01*
X13714789Y-9990000D01*
X14711716Y-9990000D01*
X14724526Y-10054399D01*
X14724526Y-10054399D01*
X14724526Y-10054399D01*
X14724526Y-10054399D01*
X14761006Y-10108994D01*
X14815601Y-10145474D01*
X14815601Y-10145474D01*
X14815601Y-10145474D01*
X14880000Y-10158284D01*
X14880000Y-10158284D01*
X14880000Y-10158284D01*
X14944399Y-10145474D01*
X14944399Y-10145474D01*
X14944399Y-10145474D01*
X14998994Y-10108994D01*
X15035474Y-10054399D01*
X15035872Y-10052399D01*
X15048283Y-9990000D01*
X15048283Y-9990000D01*
X15047886Y-9988000D01*
X15727716Y-9988000D01*
X15740526Y-10052399D01*
X15740526Y-10052399D01*
X15740526Y-10052399D01*
X15740526Y-10052399D01*
X15777006Y-10106994D01*
X15831601Y-10143474D01*
X15831601Y-10143474D01*
X15831601Y-10143474D01*
X15896000Y-10156284D01*
X15896000Y-10156284D01*
X15896000Y-10156284D01*
X15960399Y-10143474D01*
X15960399Y-10143474D01*
X15960399Y-10143474D01*
X16014994Y-10106994D01*
X16051474Y-10052399D01*
X16062891Y-9995000D01*
X16064283Y-9988000D01*
X16064283Y-9988000D01*
X16051474Y-9923601D01*
X16051474Y-9923601D01*
X16051474Y-9923601D01*
X16014994Y-9869006D01*
X15960399Y-9832526D01*
X15960399Y-9832526D01*
X15960399Y-9832526D01*
X15960399Y-9832526D01*
X15896000Y-9819717D01*
X15896000Y-9819717D01*
X15831601Y-9832526D01*
X15831601Y-9832526D01*
X15777006Y-9869006D01*
X15740526Y-9923601D01*
X15740526Y-9923601D01*
X15727716Y-9988000D01*
X15727716Y-9988000D01*
X15047886Y-9988000D01*
X15035474Y-9925601D01*
X15035474Y-9925601D01*
X15035474Y-9925601D01*
X14998994Y-9871006D01*
X14944399Y-9834526D01*
X14944399Y-9834526D01*
X14944399Y-9834526D01*
X14944399Y-9834526D01*
X14880000Y-9821717D01*
X14880000Y-9821717D01*
X14815601Y-9834526D01*
X14815601Y-9834526D01*
X14761006Y-9871006D01*
X14724526Y-9925601D01*
X14724526Y-9925601D01*
X14711716Y-9990000D01*
X14711716Y-9990000D01*
X13714789Y-9990000D01*
X13702974Y-9930601D01*
X13702974Y-9930601D01*
X13702974Y-9930601D01*
X13666494Y-9876006D01*
X13611899Y-9839526D01*
X13611899Y-9839526D01*
X13611899Y-9839526D01*
X13611899Y-9839526D01*
X13547500Y-9826717D01*
X13547500Y-9826717D01*
X13483101Y-9839526D01*
X13483101Y-9839526D01*
X13428506Y-9876006D01*
X13392026Y-9930601D01*
X13392026Y-9930601D01*
X13379216Y-9995000D01*
X13379216Y-9995000D01*
X12699386Y-9995000D01*
X12686974Y-9932601D01*
X12686974Y-9932601D01*
X12686974Y-9932601D01*
X12650494Y-9878006D01*
X12595899Y-9841526D01*
X12595899Y-9841526D01*
X12595899Y-9841526D01*
X12595899Y-9841526D01*
X12531500Y-9828717D01*
X12531500Y-9828717D01*
X12467101Y-9841526D01*
X12467101Y-9841526D01*
X12412506Y-9878006D01*
X12376026Y-9932601D01*
X12376026Y-9932601D01*
X12363216Y-9997000D01*
X12363216Y-9997000D01*
X12210050Y-9997000D01*
X12210050Y-9487000D01*
X12910777Y-9487000D01*
X12920575Y-9536260D01*
X12920575Y-9536260D01*
X12920575Y-9536260D01*
X12920575Y-9536260D01*
X12948479Y-9578021D01*
X12990240Y-9605925D01*
X12990240Y-9605925D01*
X12990240Y-9605925D01*
X13039500Y-9615723D01*
X13039500Y-9615723D01*
X13039500Y-9615723D01*
X13088760Y-9605925D01*
X13088760Y-9605925D01*
X13088760Y-9605925D01*
X13130521Y-9578021D01*
X13156220Y-9539560D01*
X13164111Y-9534288D01*
X13173419Y-9536139D01*
X13176840Y-9539560D01*
X13188353Y-9556791D01*
X13249000Y-9496145D01*
X13249000Y-9505433D01*
X13275067Y-9531500D01*
X13284355Y-9531500D01*
X13223709Y-9592146D01*
X13244259Y-9605878D01*
X13244260Y-9605878D01*
X13293500Y-9615672D01*
X13293500Y-9615672D01*
X13342740Y-9605878D01*
X13342741Y-9605878D01*
X13363291Y-9592146D01*
X13302645Y-9531500D01*
X13311932Y-9531500D01*
X13338000Y-9505433D01*
X13338000Y-9496145D01*
X13398646Y-9556791D01*
X13412378Y-9536241D01*
X13412378Y-9536240D01*
X13422172Y-9487000D01*
X13422172Y-9487000D01*
X13420780Y-9480000D01*
X15259277Y-9480000D01*
X15269075Y-9529260D01*
X15269075Y-9529260D01*
X15269075Y-9529260D01*
X15269075Y-9529260D01*
X15296979Y-9571021D01*
X15338740Y-9598925D01*
X15338740Y-9598925D01*
X15338740Y-9598925D01*
X15388000Y-9608723D01*
X15388000Y-9608723D01*
X15388000Y-9608723D01*
X15437260Y-9598925D01*
X15437260Y-9598925D01*
X15437260Y-9598925D01*
X15479021Y-9571021D01*
X15504720Y-9532560D01*
X15512611Y-9527288D01*
X15521919Y-9529139D01*
X15525340Y-9532560D01*
X15536853Y-9549791D01*
X15597500Y-9489145D01*
X15597500Y-9498433D01*
X15623567Y-9524500D01*
X15632855Y-9524500D01*
X15572209Y-9585146D01*
X15592759Y-9598878D01*
X15592760Y-9598878D01*
X15642000Y-9608672D01*
X15642000Y-9608672D01*
X15691240Y-9598878D01*
X15691241Y-9598878D01*
X15711791Y-9585146D01*
X15651145Y-9524500D01*
X15660432Y-9524500D01*
X15686500Y-9498433D01*
X15686500Y-9489145D01*
X15747146Y-9549791D01*
X15760878Y-9529241D01*
X15760878Y-9529240D01*
X15770672Y-9480000D01*
X15770672Y-9480000D01*
X15760878Y-9430760D01*
X15760878Y-9430759D01*
X15747146Y-9410209D01*
X15686500Y-9470855D01*
X15686500Y-9461568D01*
X15660432Y-9435500D01*
X15651145Y-9435500D01*
X15711791Y-9374854D01*
X15691241Y-9361122D01*
X15691240Y-9361122D01*
X15642000Y-9351328D01*
X15642000Y-9351328D01*
X15592759Y-9361122D01*
X15592759Y-9361122D01*
X15572209Y-9374854D01*
X15632855Y-9435500D01*
X15623567Y-9435500D01*
X15597500Y-9461568D01*
X15597500Y-9470855D01*
X15536853Y-9410209D01*
X15525340Y-9427440D01*
X15517449Y-9432712D01*
X15508141Y-9430861D01*
X15504720Y-9427440D01*
X15479021Y-9388979D01*
X15437260Y-9361075D01*
X15437260Y-9361075D01*
X15437260Y-9361075D01*
X15437260Y-9361075D01*
X15388000Y-9351277D01*
X15388000Y-9351277D01*
X15338740Y-9361075D01*
X15338740Y-9361075D01*
X15296979Y-9388979D01*
X15269075Y-9430740D01*
X15269075Y-9430740D01*
X15259277Y-9480000D01*
X15259277Y-9480000D01*
X13420780Y-9480000D01*
X13412378Y-9437760D01*
X13412378Y-9437759D01*
X13398646Y-9417209D01*
X13338000Y-9477855D01*
X13338000Y-9468568D01*
X13311932Y-9442500D01*
X13302645Y-9442500D01*
X13363291Y-9381854D01*
X13342741Y-9368122D01*
X13342740Y-9368122D01*
X13293500Y-9358328D01*
X13293500Y-9358328D01*
X13244259Y-9368122D01*
X13244259Y-9368122D01*
X13223709Y-9381854D01*
X13284355Y-9442500D01*
X13275067Y-9442500D01*
X13249000Y-9468568D01*
X13249000Y-9477855D01*
X13188353Y-9417209D01*
X13176840Y-9434440D01*
X13168949Y-9439712D01*
X13159641Y-9437861D01*
X13156220Y-9434440D01*
X13153828Y-9430861D01*
X13130521Y-9395979D01*
X13088760Y-9368075D01*
X13088760Y-9368075D01*
X13088760Y-9368075D01*
X13088760Y-9368075D01*
X13039500Y-9358277D01*
X13039500Y-9358277D01*
X12990240Y-9368075D01*
X12990240Y-9368075D01*
X12948479Y-9395979D01*
X12920575Y-9437740D01*
X12920575Y-9437740D01*
X12910777Y-9487000D01*
X12910777Y-9487000D01*
X12210050Y-9487000D01*
X12210050Y-9262500D01*
X12832942Y-9262500D01*
X12859905Y-9327595D01*
X12925000Y-9354558D01*
X12990094Y-9327595D01*
X13017057Y-9262500D01*
X12990094Y-9197406D01*
X12925000Y-9170443D01*
X12859905Y-9197406D01*
X12832942Y-9262500D01*
X12210050Y-9262500D01*
X12210050Y-8257500D01*
X13542942Y-8257500D01*
X13569905Y-8322594D01*
X13635000Y-8349557D01*
X13700094Y-8322594D01*
X13727057Y-8257500D01*
X13720844Y-8242500D01*
X13907942Y-8242500D01*
X13934905Y-8307594D01*
X14000000Y-8334557D01*
X14065094Y-8307594D01*
X14092057Y-8242500D01*
X14065094Y-8177405D01*
X14000000Y-8150442D01*
X13934905Y-8177405D01*
X13907942Y-8242500D01*
X13720844Y-8242500D01*
X13700094Y-8192405D01*
X13635000Y-8165442D01*
X13569905Y-8192405D01*
X13542942Y-8257500D01*
X12210050Y-8257500D01*
X12210050Y-7700000D01*
X14822942Y-7700000D01*
X14849905Y-7765094D01*
X14915000Y-7792057D01*
X14980094Y-7765094D01*
X15004986Y-7705000D01*
X15032942Y-7705000D01*
X15059905Y-7770094D01*
X15125000Y-7797057D01*
X15190094Y-7770094D01*
X15217057Y-7705000D01*
X15216771Y-7704309D01*
X15629950Y-7704309D01*
X15658122Y-7772322D01*
X15710178Y-7824378D01*
X15778191Y-7852550D01*
X15778191Y-7852550D01*
X15851808Y-7852550D01*
X15851809Y-7852550D01*
X15919822Y-7824378D01*
X15971878Y-7772322D01*
X16000050Y-7704309D01*
X16000050Y-7630691D01*
X15971878Y-7562678D01*
X15919822Y-7510622D01*
X15893950Y-7499905D01*
X15851809Y-7482450D01*
X15851809Y-7482450D01*
X15778191Y-7482450D01*
X15778191Y-7482450D01*
X15710177Y-7510622D01*
X15658122Y-7562677D01*
X15629950Y-7630691D01*
X15629950Y-7630691D01*
X15629950Y-7704309D01*
X15216771Y-7704309D01*
X15191856Y-7644158D01*
X15191856Y-7634668D01*
X15194544Y-7630645D01*
X15195094Y-7630095D01*
X15195094Y-7630094D01*
X15222057Y-7565000D01*
X15195094Y-7499905D01*
X15130000Y-7472942D01*
X15064905Y-7499905D01*
X15037942Y-7565000D01*
X15063144Y-7625842D01*
X15063144Y-7635332D01*
X15060456Y-7639355D01*
X15059906Y-7639905D01*
X15059905Y-7639905D01*
X15059905Y-7639905D01*
X15032942Y-7705000D01*
X15004986Y-7705000D01*
X15007057Y-7700000D01*
X14982099Y-7639745D01*
X14982099Y-7630255D01*
X15007057Y-7570000D01*
X14980094Y-7504905D01*
X14915000Y-7477942D01*
X14849905Y-7504905D01*
X14822942Y-7570000D01*
X14847901Y-7630255D01*
X14847901Y-7639745D01*
X14847834Y-7639905D01*
X14822942Y-7700000D01*
X12210050Y-7700000D01*
X12210050Y-7477500D01*
X13450442Y-7477500D01*
X13477405Y-7542594D01*
X13542500Y-7569557D01*
X13607594Y-7542594D01*
X13634557Y-7477500D01*
X13607594Y-7412405D01*
X13542500Y-7385442D01*
X13477405Y-7412405D01*
X13450442Y-7477500D01*
X12210050Y-7477500D01*
X12210050Y-7355000D01*
X13172942Y-7355000D01*
X13199905Y-7420094D01*
X13265000Y-7447057D01*
X13330094Y-7420094D01*
X13357057Y-7355000D01*
X13330094Y-7289905D01*
X13265000Y-7262942D01*
X13199905Y-7289905D01*
X13172942Y-7355000D01*
X12210050Y-7355000D01*
X12210050Y-6840000D01*
X15477942Y-6840000D01*
X15504905Y-6905094D01*
X15570000Y-6932057D01*
X15635094Y-6905094D01*
X15662057Y-6840000D01*
X15635094Y-6774905D01*
X15570000Y-6747942D01*
X15504905Y-6774905D01*
X15477942Y-6840000D01*
X12210050Y-6840000D01*
X12210050Y-6657500D01*
X13055442Y-6657500D01*
X13082405Y-6722594D01*
X13147500Y-6749557D01*
X13212594Y-6722594D01*
X13239557Y-6657500D01*
X14070442Y-6657500D01*
X14097405Y-6722594D01*
X14162500Y-6749557D01*
X14227594Y-6722594D01*
X14254557Y-6657500D01*
X14227594Y-6592405D01*
X14162500Y-6565442D01*
X14097405Y-6592405D01*
X14070442Y-6657500D01*
X13239557Y-6657500D01*
X13212594Y-6592405D01*
X13147500Y-6565442D01*
X13082405Y-6592405D01*
X13055442Y-6657500D01*
X12210050Y-6657500D01*
X12210050Y-6280000D01*
X13785442Y-6280000D01*
X13812405Y-6345094D01*
X13877500Y-6372057D01*
X13942594Y-6345094D01*
X13969557Y-6280000D01*
X13947563Y-6226901D01*
X15439450Y-6226901D01*
X15454682Y-6263674D01*
X15482826Y-6291818D01*
X15519599Y-6307050D01*
X15519599Y-6307050D01*
X15669401Y-6307050D01*
X15669401Y-6307050D01*
X15706174Y-6291818D01*
X15734318Y-6263674D01*
X15749550Y-6226901D01*
X15882450Y-6226901D01*
X15897682Y-6263674D01*
X15925826Y-6291818D01*
X15962599Y-6307050D01*
X15962599Y-6307050D01*
X16062401Y-6307050D01*
X16062401Y-6307050D01*
X16099174Y-6291818D01*
X16127318Y-6263674D01*
X16142550Y-6226901D01*
X16142550Y-6187099D01*
X16127318Y-6150326D01*
X16099174Y-6122182D01*
X16091240Y-6118895D01*
X16062401Y-6106950D01*
X16062401Y-6106950D01*
X15962599Y-6106950D01*
X15962599Y-6106950D01*
X15925826Y-6122182D01*
X15897682Y-6150326D01*
X15882450Y-6187099D01*
X15882450Y-6187099D01*
X15882450Y-6226901D01*
X15749550Y-6226901D01*
X15749550Y-6187099D01*
X15734318Y-6150326D01*
X15706174Y-6122182D01*
X15698239Y-6118895D01*
X15691529Y-6112184D01*
X15691529Y-6102694D01*
X15694216Y-6098671D01*
X15705050Y-6087838D01*
X15705050Y-6040162D01*
X15671338Y-6006450D01*
X15623662Y-6006450D01*
X15623662Y-6006450D01*
X15589950Y-6040162D01*
X15589950Y-6040162D01*
X15589950Y-6087838D01*
X15589950Y-6087838D01*
X15590765Y-6089805D01*
X15590765Y-6099295D01*
X15584054Y-6106006D01*
X15579309Y-6106950D01*
X15519599Y-6106950D01*
X15482826Y-6122182D01*
X15454682Y-6150326D01*
X15439450Y-6187099D01*
X15439450Y-6187099D01*
X15439450Y-6226901D01*
X13947563Y-6226901D01*
X13942594Y-6214905D01*
X13877500Y-6187942D01*
X13812405Y-6214905D01*
X13785442Y-6280000D01*
X12210050Y-6280000D01*
X12210050Y-6075000D01*
X13377942Y-6075000D01*
X13404905Y-6140094D01*
X13470000Y-6167057D01*
X13535094Y-6140094D01*
X13562057Y-6075000D01*
X13535094Y-6009905D01*
X13470000Y-5982942D01*
X13404905Y-6009905D01*
X13377942Y-6075000D01*
X12210050Y-6075000D01*
X12210050Y-5903750D01*
X14145442Y-5903750D01*
X14172405Y-5968844D01*
X14237500Y-5995807D01*
X14302594Y-5968844D01*
X14329557Y-5903750D01*
X14302594Y-5838655D01*
X14237500Y-5811692D01*
X14172405Y-5838655D01*
X14145442Y-5903750D01*
X12210050Y-5903750D01*
X12210050Y-5782500D01*
X13135442Y-5782500D01*
X13162405Y-5847594D01*
X13227500Y-5874557D01*
X13292594Y-5847594D01*
X13319557Y-5782500D01*
X13309202Y-5757500D01*
X13622942Y-5757500D01*
X13649905Y-5822594D01*
X13715000Y-5849557D01*
X13780094Y-5822594D01*
X13807057Y-5757500D01*
X13780094Y-5692405D01*
X13715000Y-5665442D01*
X13649905Y-5692405D01*
X13622942Y-5757500D01*
X13309202Y-5757500D01*
X13292594Y-5717405D01*
X13227500Y-5690442D01*
X13162405Y-5717405D01*
X13135442Y-5782500D01*
X12210050Y-5782500D01*
X12210050Y-5357500D01*
X13795442Y-5357500D01*
X13822405Y-5422595D01*
X13887500Y-5449558D01*
X13952594Y-5422595D01*
X13965060Y-5392500D01*
X14507942Y-5392500D01*
X14534905Y-5457595D01*
X14600000Y-5484558D01*
X14665094Y-5457595D01*
X14680400Y-5420642D01*
X14687111Y-5413932D01*
X14696602Y-5413932D01*
X14703313Y-5420642D01*
X14704121Y-5422594D01*
X14712405Y-5442595D01*
X14777500Y-5469558D01*
X14842594Y-5442595D01*
X14869557Y-5377500D01*
X14863510Y-5362901D01*
X15439450Y-5362901D01*
X15454682Y-5399674D01*
X15482826Y-5427818D01*
X15519599Y-5443050D01*
X15579309Y-5443050D01*
X15588077Y-5446682D01*
X15591709Y-5455450D01*
X15590765Y-5460195D01*
X15589950Y-5462162D01*
X15589950Y-5462162D01*
X15589950Y-5509838D01*
X15623662Y-5543550D01*
X15671338Y-5543550D01*
X15705050Y-5509838D01*
X15705050Y-5462162D01*
X15694217Y-5451329D01*
X15690585Y-5442561D01*
X15694217Y-5433793D01*
X15698239Y-5431105D01*
X15706174Y-5427818D01*
X15734318Y-5399674D01*
X15749550Y-5362901D01*
X15882450Y-5362901D01*
X15897682Y-5399674D01*
X15925826Y-5427818D01*
X15962599Y-5443050D01*
X15962599Y-5443050D01*
X16062401Y-5443050D01*
X16062401Y-5443050D01*
X16099174Y-5427818D01*
X16127318Y-5399674D01*
X16142550Y-5362901D01*
X16142550Y-5323099D01*
X16127318Y-5286326D01*
X16099174Y-5258182D01*
X16062401Y-5242950D01*
X16062401Y-5242950D01*
X15962599Y-5242950D01*
X15962599Y-5242950D01*
X15925826Y-5258182D01*
X15897682Y-5286326D01*
X15882450Y-5323099D01*
X15882450Y-5323099D01*
X15882450Y-5362901D01*
X15749550Y-5362901D01*
X15749550Y-5323099D01*
X15734318Y-5286326D01*
X15706174Y-5258182D01*
X15669401Y-5242950D01*
X15669401Y-5242950D01*
X15519599Y-5242950D01*
X15519599Y-5242950D01*
X15482826Y-5258182D01*
X15454682Y-5286326D01*
X15439450Y-5323099D01*
X15439450Y-5323099D01*
X15439450Y-5362901D01*
X14863510Y-5362901D01*
X14842594Y-5312406D01*
X14777500Y-5285443D01*
X14712405Y-5312406D01*
X14697099Y-5349357D01*
X14690388Y-5356068D01*
X14680898Y-5356068D01*
X14674187Y-5349358D01*
X14665094Y-5327406D01*
X14600000Y-5300443D01*
X14534905Y-5327406D01*
X14507942Y-5392500D01*
X13965060Y-5392500D01*
X13979557Y-5357500D01*
X13952594Y-5292406D01*
X13887500Y-5265443D01*
X13822405Y-5292406D01*
X13795442Y-5357500D01*
X12210050Y-5357500D01*
X12210050Y-5015000D01*
X15177942Y-5015000D01*
X15204905Y-5080095D01*
X15270000Y-5107058D01*
X15335094Y-5080095D01*
X15362057Y-5015000D01*
X15335094Y-4949906D01*
X15270000Y-4922943D01*
X15204905Y-4949906D01*
X15177942Y-5015000D01*
X12210050Y-5015000D01*
X12210050Y-4422500D01*
X15602942Y-4422500D01*
X15629905Y-4487595D01*
X15695000Y-4514558D01*
X15760094Y-4487595D01*
X15787057Y-4422500D01*
X15760094Y-4357406D01*
X15695000Y-4330443D01*
X15629905Y-4357406D01*
X15602942Y-4422500D01*
X12210050Y-4422500D01*
X12210050Y-4069309D01*
X12402450Y-4069309D01*
X12430622Y-4137322D01*
X12482678Y-4189378D01*
X12550691Y-4217550D01*
X12550691Y-4217550D01*
X12624308Y-4217550D01*
X12624309Y-4217550D01*
X12692322Y-4189378D01*
X12744378Y-4137322D01*
X12772550Y-4069309D01*
X12772550Y-3995691D01*
X12744378Y-3927678D01*
X12692322Y-3875622D01*
X12624309Y-3847450D01*
X12624309Y-3847450D01*
X12550691Y-3847450D01*
X12550691Y-3847450D01*
X12482677Y-3875622D01*
X12430622Y-3927677D01*
X12402450Y-3995691D01*
X12402450Y-3995691D01*
X12402450Y-4069309D01*
X12210050Y-4069309D01*
X12210050Y-3918721D01*
X12210288Y-3916302D01*
X12218380Y-3875622D01*
X12229356Y-3820440D01*
X12231207Y-3815971D01*
X12284818Y-3735738D01*
X12288238Y-3732318D01*
X12368471Y-3678707D01*
X12372940Y-3676856D01*
X12468802Y-3657788D01*
X12471221Y-3657550D01*
X12483013Y-3657550D01*
X15961987Y-3657550D01*
X15973779Y-3657550D01*
X15976198Y-3657788D01*
G37*
%TD.AperFunction*%
%TD*%
M02*
