M48
; DRILL file {KiCad 9.0.0} date 2025-02-24T12:48:06+0100
; FORMAT={-:-/ absolute / inch / decimal}
; #@! TF.CreationDate,2025-02-24T12:48:06+01:00
; #@! TF.GenerationSoftware,Kicad,Pcbnew,9.0.0
; #@! TF.FileFunction,MixedPlating,1,4
FMAT,2
INCH
; #@! TA.AperFunction,Plated,PTH,ViaDrill
T1C0.0118
; #@! TA.AperFunction,Plated,PTH,ComponentDrill
T2C0.0236
; #@! TA.AperFunction,Plated,PTH,ComponentDrill
T3C0.0350
; #@! TA.AperFunction,Plated,PTH,ComponentDrill
T4C0.0787
; #@! TA.AperFunction,NonPlated,NPTH,ComponentDrill
T5C0.0256
; #@! TA.AperFunction,NonPlated,NPTH,ComponentDrill
T6C0.1260
%
G90
G05
T1
X4.9109Y-2.5251
X4.9685Y-2.8051
X5.0074Y-2.3647
X5.0207Y-3.3967
X5.0207Y-3.499
X5.0404Y-3.6467
X5.0698Y-2.6442
X5.0886Y-3.6467
X5.0974Y-3.0699
X5.1171Y-2.1427
X5.1348Y-3.4488
X5.1462Y-3.346
X5.1762Y-2.6211
X5.1762Y-2.6644
X5.2028Y-3.0226
X5.2077Y-2.2766
X5.2106Y-2.3297
X5.2224Y-2.8957
X5.2234Y-2.8415
X5.2323Y-2.1949
X5.2323Y-3.5768
X5.2569Y-2.3917
X5.2923Y-2.8671
X5.3031Y-2.3917
X5.3317Y-2.9439
X5.3337Y-2.5325
X5.3504Y-2.9006
X5.3642Y-3.5197
X5.3681Y-3.251
X5.373Y-3.4016
X5.3858Y-2.2254
X5.3996Y-2.2667
X5.412Y-1.8104
X5.4134Y-3.2785
X5.4307Y-1.9217
X5.4636Y-2.4724
X5.4675Y-2.1093
X5.502Y-2.5118
X5.5108Y-2.1073
X5.5118Y-3.2451
X5.5118Y-3.2894
X5.5748Y-2.3026
X5.5758Y-2.6211
X5.5955Y-3.4311
X5.6053Y-2.3243
X5.6226Y-1.5417
X5.628Y-2.8587
X5.6467Y-3.6289
X5.6502Y-2.0506
X5.7093Y-1.9118
X5.7215Y-2.1575
X5.7352Y-3.6299
X5.748Y-2.123
X5.7825Y-3.6289
X5.8179Y-2.1171
X5.8297Y-1.9817
X5.8435Y-2.6043
X5.8484Y-2.1388
X5.872Y-2.9803
X5.872Y-3.0315
X5.873Y-3.0768
X5.876Y-2.938
X5.9173Y-1.8772
X5.9213Y-3.5709
X5.9313Y-1.6915
X5.94Y-2.939
X5.9498Y-2.8061
X5.9547Y-2.0955
X5.9547Y-3.0335
X5.9547Y-3.0778
X5.9557Y-2.4006
X5.9567Y-2.9783
X5.9707Y-1.5522
X5.9707Y-1.6024
X5.9803Y-3.6063
X6.0103Y-2.2715
X6.0118Y-1.9744
X6.0118Y-2.5059
X6.0522Y-1.9764
X6.0541Y-2.4596
X6.0563Y-1.877
X6.0581Y-2.0719
X6.0758Y-2.6949
X6.1299Y-2.6929
X6.1791Y-1.7411
X6.185Y-3.5197
X6.2333Y-1.7392
X6.2904Y-3.565
T3
X5.1337Y-3.735
X5.2337Y-3.735
X6.0583Y-3.7323
X6.1583Y-3.7323
T4
X4.9337Y-3.9358
X5.3337Y-3.935
X5.8583Y-3.9331
X6.2583Y-3.9323
T5
X6.1604Y-2.1598
X6.1604Y-2.3874
T6
X4.9557Y-1.5876
X5.5935Y-4.0394
X6.2264Y-3.0187
T2
X6.1179Y-2.1035G85X6.1612Y-2.1035
G05
X6.1179Y-2.4437G85X6.1612Y-2.4437
G05
X6.2923Y-2.1035G85X6.3159Y-2.1035
G05
X6.2923Y-2.4437G85X6.3159Y-2.4437
G05
M30
