%TF.GenerationSoftware,KiCad,Pcbnew,9.0.0*%
%TF.CreationDate,2025-02-24T12:48:06+01:00*%
%TF.ProjectId,mixed_signal,6d697865-645f-4736-9967-6e616c2e6b69,rev?*%
%TF.SameCoordinates,Original*%
%TF.FileFunction,Soldermask,Top*%
%TF.FilePolarity,Negative*%
%FSLAX45Y45*%
G04 Gerber Fmt 4.5, Leading zero omitted, Abs format (unit mm)*
G04 Created by KiCad (PCBNEW 9.0.0) date 2025-02-24 12:48:06*
%MOMM*%
%LPD*%
G01*
G04 APERTURE LIST*
G04 APERTURE END LIST*
G36*
X14296392Y-10126964D02*
G01*
X14340536Y-10171108D01*
X14364427Y-10228785D01*
X14364427Y-10291215D01*
X14340536Y-10348892D01*
X14296392Y-10393036D01*
X14238715Y-10416927D01*
X14176285Y-10416927D01*
X14118608Y-10393036D01*
X14074464Y-10348892D01*
X14050573Y-10291215D01*
X14050573Y-10228785D01*
X14074464Y-10171108D01*
X14118608Y-10126964D01*
X14176285Y-10103073D01*
X14238715Y-10103073D01*
X14296392Y-10126964D01*
G37*
G36*
X12595391Y-9901380D02*
G01*
X12627120Y-9933109D01*
X12644291Y-9974564D01*
X12644291Y-10019436D01*
X12627120Y-10060891D01*
X12595391Y-10092620D01*
X12553936Y-10109791D01*
X12509064Y-10109791D01*
X12467609Y-10092620D01*
X12435880Y-10060891D01*
X12418709Y-10019436D01*
X12418709Y-9974564D01*
X12435880Y-9933109D01*
X12467609Y-9901380D01*
X12509064Y-9884209D01*
X12553936Y-9884209D01*
X12595391Y-9901380D01*
G37*
G36*
X13611391Y-9899380D02*
G01*
X13643120Y-9931109D01*
X13660291Y-9972564D01*
X13660291Y-10017436D01*
X13643120Y-10058891D01*
X13611391Y-10090620D01*
X13569936Y-10107791D01*
X13525064Y-10107791D01*
X13483609Y-10090620D01*
X13451880Y-10058891D01*
X13434709Y-10017436D01*
X13434709Y-9972564D01*
X13451880Y-9931109D01*
X13483609Y-9899380D01*
X13525064Y-9882209D01*
X13569936Y-9882209D01*
X13611391Y-9899380D01*
G37*
G36*
X14943891Y-9894380D02*
G01*
X14975620Y-9926109D01*
X14992791Y-9967564D01*
X14992791Y-10012436D01*
X14975620Y-10053891D01*
X14943891Y-10085620D01*
X14902436Y-10102791D01*
X14857564Y-10102791D01*
X14816109Y-10085620D01*
X14784380Y-10053891D01*
X14767209Y-10012436D01*
X14767209Y-9967564D01*
X14784380Y-9926109D01*
X14816109Y-9894380D01*
X14857564Y-9877209D01*
X14902436Y-9877209D01*
X14943891Y-9894380D01*
G37*
G36*
X15959891Y-9892380D02*
G01*
X15991620Y-9924109D01*
X16008791Y-9965564D01*
X16008791Y-10010436D01*
X15991620Y-10051891D01*
X15959891Y-10083620D01*
X15918436Y-10100791D01*
X15873564Y-10100791D01*
X15832109Y-10083620D01*
X15800380Y-10051891D01*
X15783209Y-10010436D01*
X15783209Y-9965564D01*
X15800380Y-9924109D01*
X15832109Y-9892380D01*
X15873564Y-9875209D01*
X15918436Y-9875209D01*
X15959891Y-9892380D01*
G37*
G36*
X13081835Y-9423641D02*
G01*
X13102859Y-9444665D01*
X13114237Y-9472134D01*
X13114237Y-9501866D01*
X13102859Y-9529335D01*
X13081835Y-9550359D01*
X13054366Y-9561737D01*
X13024634Y-9561737D01*
X12997165Y-9550359D01*
X12976141Y-9529335D01*
X12964763Y-9501866D01*
X12964763Y-9472134D01*
X12976141Y-9444665D01*
X12997165Y-9423641D01*
X13024634Y-9412263D01*
X13054366Y-9412263D01*
X13081835Y-9423641D01*
G37*
G36*
X13335835Y-9423641D02*
G01*
X13356859Y-9444665D01*
X13368237Y-9472134D01*
X13368237Y-9501866D01*
X13356859Y-9529335D01*
X13335835Y-9550359D01*
X13308366Y-9561737D01*
X13278634Y-9561737D01*
X13251165Y-9550359D01*
X13230141Y-9529335D01*
X13218763Y-9501866D01*
X13218763Y-9472134D01*
X13230141Y-9444665D01*
X13251165Y-9423641D01*
X13278634Y-9412263D01*
X13308366Y-9412263D01*
X13335835Y-9423641D01*
G37*
G36*
X15430335Y-9416641D02*
G01*
X15451359Y-9437665D01*
X15462737Y-9465134D01*
X15462737Y-9494866D01*
X15451359Y-9522335D01*
X15430335Y-9543359D01*
X15402866Y-9554737D01*
X15373134Y-9554737D01*
X15345665Y-9543359D01*
X15324641Y-9522335D01*
X15313263Y-9494866D01*
X15313263Y-9465134D01*
X15324641Y-9437665D01*
X15345665Y-9416641D01*
X15373134Y-9405263D01*
X15402866Y-9405263D01*
X15430335Y-9416641D01*
G37*
G36*
X15684335Y-9416641D02*
G01*
X15705359Y-9437665D01*
X15716737Y-9465134D01*
X15716737Y-9494866D01*
X15705359Y-9522335D01*
X15684335Y-9543359D01*
X15656866Y-9554737D01*
X15627134Y-9554737D01*
X15599665Y-9543359D01*
X15578641Y-9522335D01*
X15567263Y-9494866D01*
X15567263Y-9465134D01*
X15578641Y-9437665D01*
X15599665Y-9416641D01*
X15627134Y-9405263D01*
X15656866Y-9405263D01*
X15684335Y-9416641D01*
G37*
G36*
X13803056Y-9163355D02*
G01*
X13806706Y-9165794D01*
X13809145Y-9169444D01*
X13810001Y-9173750D01*
X13810001Y-9211250D01*
X13809145Y-9215556D01*
X13806706Y-9219206D01*
X13803056Y-9221645D01*
X13798750Y-9222501D01*
X13776250Y-9222501D01*
X13771944Y-9221645D01*
X13768294Y-9219206D01*
X13765855Y-9215556D01*
X13764999Y-9211250D01*
X13764999Y-9173750D01*
X13765855Y-9169444D01*
X13768294Y-9165794D01*
X13771944Y-9163355D01*
X13776250Y-9162499D01*
X13798750Y-9162499D01*
X13803056Y-9163355D01*
G37*
G36*
X13535167Y-9139027D02*
G01*
X13539547Y-9141953D01*
X13542473Y-9146333D01*
X13543501Y-9151500D01*
X13543501Y-9188500D01*
X13542473Y-9193667D01*
X13539547Y-9198047D01*
X13535167Y-9200973D01*
X13530000Y-9202001D01*
X13503000Y-9202001D01*
X13497833Y-9200973D01*
X13493453Y-9198047D01*
X13490527Y-9193667D01*
X13489499Y-9188500D01*
X13489499Y-9151500D01*
X13490527Y-9146333D01*
X13493453Y-9141953D01*
X13497833Y-9139027D01*
X13503000Y-9137999D01*
X13530000Y-9137999D01*
X13535167Y-9139027D01*
G37*
G36*
X13637167Y-9139027D02*
G01*
X13641547Y-9141953D01*
X13644473Y-9146333D01*
X13645501Y-9151500D01*
X13645501Y-9188500D01*
X13644473Y-9193667D01*
X13641547Y-9198047D01*
X13637167Y-9200973D01*
X13632000Y-9202001D01*
X13605000Y-9202001D01*
X13599833Y-9200973D01*
X13595453Y-9198047D01*
X13592527Y-9193667D01*
X13591499Y-9188500D01*
X13591499Y-9151500D01*
X13592527Y-9146333D01*
X13595453Y-9141953D01*
X13599833Y-9139027D01*
X13605000Y-9137999D01*
X13632000Y-9137999D01*
X13637167Y-9139027D01*
G37*
G36*
X15743667Y-9132527D02*
G01*
X15748047Y-9135453D01*
X15750973Y-9139833D01*
X15752001Y-9145000D01*
X15752001Y-9172000D01*
X15750973Y-9177167D01*
X15748047Y-9181547D01*
X15743667Y-9184473D01*
X15738500Y-9185501D01*
X15701500Y-9185501D01*
X15696333Y-9184473D01*
X15691953Y-9181547D01*
X15689027Y-9177167D01*
X15687999Y-9172000D01*
X15687999Y-9145000D01*
X15689027Y-9139833D01*
X15691953Y-9135453D01*
X15696333Y-9132527D01*
X15701500Y-9131499D01*
X15738500Y-9131499D01*
X15743667Y-9132527D01*
G37*
G36*
X13422358Y-9128565D02*
G01*
X13426900Y-9131600D01*
X13429935Y-9136142D01*
X13431001Y-9141500D01*
X13431001Y-9169500D01*
X13429935Y-9174858D01*
X13426900Y-9179400D01*
X13422358Y-9182435D01*
X13417000Y-9183501D01*
X13383000Y-9183501D01*
X13377642Y-9182435D01*
X13373100Y-9179400D01*
X13370065Y-9174858D01*
X13368999Y-9169500D01*
X13368999Y-9141500D01*
X13370065Y-9136142D01*
X13373100Y-9131600D01*
X13377642Y-9128565D01*
X13383000Y-9127499D01*
X13417000Y-9127499D01*
X13422358Y-9128565D01*
G37*
G36*
X15333056Y-9138355D02*
G01*
X15336706Y-9140794D01*
X15339145Y-9144444D01*
X15340001Y-9148750D01*
X15340001Y-9171250D01*
X15339145Y-9175556D01*
X15336706Y-9179206D01*
X15333056Y-9181645D01*
X15328750Y-9182501D01*
X15291250Y-9182501D01*
X15286944Y-9181645D01*
X15283294Y-9179206D01*
X15280855Y-9175556D01*
X15279999Y-9171250D01*
X15279999Y-9148750D01*
X15280855Y-9144444D01*
X15283294Y-9140794D01*
X15286944Y-9138355D01*
X15291250Y-9137499D01*
X15328750Y-9137499D01*
X15333056Y-9138355D01*
G37*
G36*
X15543056Y-9138355D02*
G01*
X15546706Y-9140794D01*
X15549145Y-9144444D01*
X15550001Y-9148750D01*
X15550001Y-9171250D01*
X15549145Y-9175556D01*
X15546706Y-9179206D01*
X15543056Y-9181645D01*
X15538750Y-9182501D01*
X15501250Y-9182501D01*
X15496944Y-9181645D01*
X15493294Y-9179206D01*
X15490855Y-9175556D01*
X15489999Y-9171250D01*
X15489999Y-9148750D01*
X15490855Y-9144444D01*
X15493294Y-9140794D01*
X15496944Y-9138355D01*
X15501250Y-9137499D01*
X15538750Y-9137499D01*
X15543056Y-9138355D01*
G37*
G36*
X12773932Y-9083679D02*
G01*
X12778961Y-9087039D01*
X12782321Y-9092068D01*
X12783501Y-9098000D01*
X12783501Y-9140500D01*
X12782321Y-9146432D01*
X12778961Y-9151461D01*
X12773932Y-9154821D01*
X12768000Y-9156001D01*
X12737000Y-9156001D01*
X12731068Y-9154821D01*
X12726039Y-9151461D01*
X12722679Y-9146432D01*
X12721499Y-9140500D01*
X12721499Y-9098000D01*
X12722679Y-9092068D01*
X12726039Y-9087039D01*
X12731068Y-9083679D01*
X12737000Y-9082499D01*
X12768000Y-9082499D01*
X12773932Y-9083679D01*
G37*
G36*
X12973241Y-9088641D02*
G01*
X12978107Y-9091893D01*
X12981359Y-9096759D01*
X12982501Y-9102500D01*
X12982501Y-9132500D01*
X12981359Y-9138241D01*
X12978107Y-9143107D01*
X12973241Y-9146359D01*
X12967500Y-9147501D01*
X12865000Y-9147501D01*
X12859259Y-9146359D01*
X12854393Y-9143107D01*
X12851141Y-9138241D01*
X12849999Y-9132500D01*
X12849999Y-9102500D01*
X12851141Y-9096759D01*
X12854393Y-9091893D01*
X12859259Y-9088641D01*
X12865000Y-9087499D01*
X12967500Y-9087499D01*
X12973241Y-9088641D01*
G37*
G36*
X13200741Y-9088641D02*
G01*
X13205607Y-9091893D01*
X13208859Y-9096759D01*
X13210001Y-9102500D01*
X13210001Y-9132500D01*
X13208859Y-9138241D01*
X13205607Y-9143107D01*
X13200741Y-9146359D01*
X13195000Y-9147501D01*
X13092500Y-9147501D01*
X13086759Y-9146359D01*
X13081893Y-9143107D01*
X13078641Y-9138241D01*
X13077499Y-9132500D01*
X13077499Y-9102500D01*
X13078641Y-9096759D01*
X13081893Y-9091893D01*
X13086759Y-9088641D01*
X13092500Y-9087499D01*
X13195000Y-9087499D01*
X13200741Y-9088641D01*
G37*
G36*
X14360182Y-9058679D02*
G01*
X14365211Y-9062039D01*
X14368571Y-9067068D01*
X14369751Y-9073000D01*
X14369751Y-9115500D01*
X14368571Y-9121432D01*
X14365211Y-9126461D01*
X14360182Y-9129821D01*
X14354250Y-9131001D01*
X14323250Y-9131001D01*
X14317318Y-9129821D01*
X14312289Y-9126461D01*
X14308929Y-9121432D01*
X14307749Y-9115500D01*
X14307749Y-9073000D01*
X14308929Y-9067068D01*
X14312289Y-9062039D01*
X14317318Y-9058679D01*
X14323250Y-9057499D01*
X14354250Y-9057499D01*
X14360182Y-9058679D01*
G37*
G36*
X14710182Y-9058679D02*
G01*
X14715211Y-9062039D01*
X14718571Y-9067068D01*
X14719751Y-9073000D01*
X14719751Y-9115500D01*
X14718571Y-9121432D01*
X14715211Y-9126461D01*
X14710182Y-9129821D01*
X14704250Y-9131001D01*
X14673250Y-9131001D01*
X14667318Y-9129821D01*
X14662289Y-9126461D01*
X14658929Y-9121432D01*
X14657749Y-9115500D01*
X14657749Y-9073000D01*
X14658929Y-9067068D01*
X14662289Y-9062039D01*
X14667318Y-9058679D01*
X14673250Y-9057499D01*
X14704250Y-9057499D01*
X14710182Y-9058679D01*
G37*
G36*
X14481417Y-9056527D02*
G01*
X14485797Y-9059453D01*
X14488723Y-9063833D01*
X14489751Y-9069000D01*
X14489751Y-9106000D01*
X14488723Y-9111167D01*
X14485797Y-9115547D01*
X14481417Y-9118473D01*
X14476250Y-9119501D01*
X14449250Y-9119501D01*
X14444083Y-9118473D01*
X14439703Y-9115547D01*
X14436777Y-9111167D01*
X14435749Y-9106000D01*
X14435749Y-9069000D01*
X14436777Y-9063833D01*
X14439703Y-9059453D01*
X14444083Y-9056527D01*
X14449250Y-9055499D01*
X14476250Y-9055499D01*
X14481417Y-9056527D01*
G37*
G36*
X14583417Y-9056527D02*
G01*
X14587797Y-9059453D01*
X14590723Y-9063833D01*
X14591751Y-9069000D01*
X14591751Y-9106000D01*
X14590723Y-9111167D01*
X14587797Y-9115547D01*
X14583417Y-9118473D01*
X14578250Y-9119501D01*
X14551250Y-9119501D01*
X14546083Y-9118473D01*
X14541703Y-9115547D01*
X14538777Y-9111167D01*
X14537749Y-9106000D01*
X14537749Y-9069000D01*
X14538777Y-9063833D01*
X14541703Y-9059453D01*
X14546083Y-9056527D01*
X14551250Y-9055499D01*
X14578250Y-9055499D01*
X14583417Y-9056527D01*
G37*
G36*
X15176432Y-9033679D02*
G01*
X15181461Y-9037039D01*
X15184821Y-9042068D01*
X15186001Y-9048000D01*
X15186001Y-9090500D01*
X15184821Y-9096432D01*
X15181461Y-9101461D01*
X15176432Y-9104821D01*
X15170500Y-9106001D01*
X15139500Y-9106001D01*
X15133568Y-9104821D01*
X15128539Y-9101461D01*
X15125179Y-9096432D01*
X15123999Y-9090500D01*
X15123999Y-9048000D01*
X15125179Y-9042068D01*
X15128539Y-9037039D01*
X15133568Y-9033679D01*
X15139500Y-9032499D01*
X15170500Y-9032499D01*
X15176432Y-9033679D01*
G37*
G36*
X13422358Y-9032565D02*
G01*
X13426900Y-9035600D01*
X13429935Y-9040142D01*
X13431001Y-9045500D01*
X13431001Y-9073500D01*
X13429935Y-9078858D01*
X13426900Y-9083400D01*
X13422358Y-9086435D01*
X13417000Y-9087501D01*
X13383000Y-9087501D01*
X13377642Y-9086435D01*
X13373100Y-9083400D01*
X13370065Y-9078858D01*
X13368999Y-9073500D01*
X13368999Y-9045500D01*
X13370065Y-9040142D01*
X13373100Y-9035600D01*
X13377642Y-9032565D01*
X13383000Y-9031499D01*
X13417000Y-9031499D01*
X13422358Y-9032565D01*
G37*
G36*
X15743667Y-9030527D02*
G01*
X15748047Y-9033453D01*
X15750973Y-9037833D01*
X15752001Y-9043000D01*
X15752001Y-9070000D01*
X15750973Y-9075167D01*
X15748047Y-9079547D01*
X15743667Y-9082473D01*
X15738500Y-9083501D01*
X15701500Y-9083501D01*
X15696333Y-9082473D01*
X15691953Y-9079547D01*
X15689027Y-9075167D01*
X15687999Y-9070000D01*
X15687999Y-9043000D01*
X15689027Y-9037833D01*
X15691953Y-9033453D01*
X15696333Y-9030527D01*
X15701500Y-9029499D01*
X15738500Y-9029499D01*
X15743667Y-9030527D01*
G37*
G36*
X16114858Y-9026065D02*
G01*
X16119400Y-9029100D01*
X16122435Y-9033642D01*
X16123501Y-9039000D01*
X16123501Y-9067000D01*
X16122435Y-9072358D01*
X16119400Y-9076900D01*
X16114858Y-9079935D01*
X16109500Y-9081001D01*
X16075500Y-9081001D01*
X16070142Y-9079935D01*
X16065600Y-9076900D01*
X16062565Y-9072358D01*
X16061499Y-9067000D01*
X16061499Y-9039000D01*
X16062565Y-9033642D01*
X16065600Y-9029100D01*
X16070142Y-9026065D01*
X16075500Y-9024999D01*
X16109500Y-9024999D01*
X16114858Y-9026065D01*
G37*
G36*
X13530167Y-9016527D02*
G01*
X13534547Y-9019453D01*
X13537473Y-9023833D01*
X13538501Y-9029000D01*
X13538501Y-9066000D01*
X13537473Y-9071167D01*
X13534547Y-9075547D01*
X13530167Y-9078473D01*
X13525000Y-9079501D01*
X13498000Y-9079501D01*
X13492833Y-9078473D01*
X13488453Y-9075547D01*
X13485527Y-9071167D01*
X13484499Y-9066000D01*
X13484499Y-9029000D01*
X13485527Y-9023833D01*
X13488453Y-9019453D01*
X13492833Y-9016527D01*
X13498000Y-9015499D01*
X13525000Y-9015499D01*
X13530167Y-9016527D01*
G37*
G36*
X13632167Y-9016527D02*
G01*
X13636547Y-9019453D01*
X13639473Y-9023833D01*
X13640501Y-9029000D01*
X13640501Y-9066000D01*
X13639473Y-9071167D01*
X13636547Y-9075547D01*
X13632167Y-9078473D01*
X13627000Y-9079501D01*
X13600000Y-9079501D01*
X13594833Y-9078473D01*
X13590453Y-9075547D01*
X13587527Y-9071167D01*
X13586499Y-9066000D01*
X13586499Y-9029000D01*
X13587527Y-9023833D01*
X13590453Y-9019453D01*
X13594833Y-9016527D01*
X13600000Y-9015499D01*
X13627000Y-9015499D01*
X13632167Y-9016527D01*
G37*
G36*
X15864858Y-9024065D02*
G01*
X15869400Y-9027100D01*
X15872435Y-9031642D01*
X15873501Y-9037000D01*
X15873501Y-9065000D01*
X15872435Y-9070358D01*
X15869400Y-9074900D01*
X15864858Y-9077935D01*
X15859500Y-9079001D01*
X15825500Y-9079001D01*
X15820142Y-9077935D01*
X15815600Y-9074900D01*
X15812565Y-9070358D01*
X15811499Y-9065000D01*
X15811499Y-9037000D01*
X15812565Y-9031642D01*
X15815600Y-9027100D01*
X15820142Y-9024065D01*
X15825500Y-9022999D01*
X15859500Y-9022999D01*
X15864858Y-9024065D01*
G37*
G36*
X13200741Y-8993641D02*
G01*
X13205607Y-8996893D01*
X13208859Y-9001759D01*
X13210001Y-9007500D01*
X13210001Y-9037500D01*
X13208859Y-9043241D01*
X13205607Y-9048107D01*
X13200741Y-9051359D01*
X13195000Y-9052501D01*
X13092500Y-9052501D01*
X13086759Y-9051359D01*
X13081893Y-9048107D01*
X13078641Y-9043241D01*
X13077499Y-9037500D01*
X13077499Y-9007500D01*
X13078641Y-9001759D01*
X13081893Y-8996893D01*
X13086759Y-8993641D01*
X13092500Y-8992499D01*
X13195000Y-8992499D01*
X13200741Y-8993641D01*
G37*
G36*
X12773932Y-8970179D02*
G01*
X12778961Y-8973539D01*
X12782321Y-8978568D01*
X12783501Y-8984500D01*
X12783501Y-9027000D01*
X12782321Y-9032932D01*
X12778961Y-9037961D01*
X12773932Y-9041321D01*
X12768000Y-9042501D01*
X12737000Y-9042501D01*
X12731068Y-9041321D01*
X12726039Y-9037961D01*
X12722679Y-9032932D01*
X12721499Y-9027000D01*
X12721499Y-8984500D01*
X12722679Y-8978568D01*
X12726039Y-8973539D01*
X12731068Y-8970179D01*
X12737000Y-8968999D01*
X12768000Y-8968999D01*
X12773932Y-8970179D01*
G37*
G36*
X14360182Y-8945179D02*
G01*
X14365211Y-8948539D01*
X14368571Y-8953568D01*
X14369751Y-8959500D01*
X14369751Y-9002000D01*
X14368571Y-9007932D01*
X14365211Y-9012961D01*
X14360182Y-9016321D01*
X14354250Y-9017501D01*
X14323250Y-9017501D01*
X14317318Y-9016321D01*
X14312289Y-9012961D01*
X14308929Y-9007932D01*
X14307749Y-9002000D01*
X14307749Y-8959500D01*
X14308929Y-8953568D01*
X14312289Y-8948539D01*
X14317318Y-8945179D01*
X14323250Y-8943999D01*
X14354250Y-8943999D01*
X14360182Y-8945179D01*
G37*
G36*
X14710182Y-8945179D02*
G01*
X14715211Y-8948539D01*
X14718571Y-8953568D01*
X14719751Y-8959500D01*
X14719751Y-9002000D01*
X14718571Y-9007932D01*
X14715211Y-9012961D01*
X14710182Y-9016321D01*
X14704250Y-9017501D01*
X14673250Y-9017501D01*
X14667318Y-9016321D01*
X14662289Y-9012961D01*
X14658929Y-9007932D01*
X14657749Y-9002000D01*
X14657749Y-8959500D01*
X14658929Y-8953568D01*
X14662289Y-8948539D01*
X14667318Y-8945179D01*
X14673250Y-8943999D01*
X14704250Y-8943999D01*
X14710182Y-8945179D01*
G37*
G36*
X13803056Y-8953355D02*
G01*
X13806706Y-8955794D01*
X13809145Y-8959444D01*
X13810001Y-8963750D01*
X13810001Y-9001250D01*
X13809145Y-9005556D01*
X13806706Y-9009206D01*
X13803056Y-9011645D01*
X13798750Y-9012501D01*
X13776250Y-9012501D01*
X13771944Y-9011645D01*
X13768294Y-9009206D01*
X13765855Y-9005556D01*
X13764999Y-9001250D01*
X13764999Y-8963750D01*
X13765855Y-8959444D01*
X13768294Y-8955794D01*
X13771944Y-8953355D01*
X13776250Y-8952499D01*
X13798750Y-8952499D01*
X13803056Y-8953355D01*
G37*
G36*
X14481417Y-8931527D02*
G01*
X14485797Y-8934453D01*
X14488723Y-8938833D01*
X14489751Y-8944000D01*
X14489751Y-8981000D01*
X14488723Y-8986167D01*
X14485797Y-8990547D01*
X14481417Y-8993473D01*
X14476250Y-8994501D01*
X14449250Y-8994501D01*
X14444083Y-8993473D01*
X14439703Y-8990547D01*
X14436777Y-8986167D01*
X14435749Y-8981000D01*
X14435749Y-8944000D01*
X14436777Y-8938833D01*
X14439703Y-8934453D01*
X14444083Y-8931527D01*
X14449250Y-8930499D01*
X14476250Y-8930499D01*
X14481417Y-8931527D01*
G37*
G36*
X14583417Y-8931527D02*
G01*
X14587797Y-8934453D01*
X14590723Y-8938833D01*
X14591751Y-8944000D01*
X14591751Y-8981000D01*
X14590723Y-8986167D01*
X14587797Y-8990547D01*
X14583417Y-8993473D01*
X14578250Y-8994501D01*
X14551250Y-8994501D01*
X14546083Y-8993473D01*
X14541703Y-8990547D01*
X14538777Y-8986167D01*
X14537749Y-8981000D01*
X14537749Y-8944000D01*
X14538777Y-8938833D01*
X14541703Y-8934453D01*
X14546083Y-8931527D01*
X14551250Y-8930499D01*
X14578250Y-8930499D01*
X14583417Y-8931527D01*
G37*
G36*
X15176432Y-8920179D02*
G01*
X15181461Y-8923539D01*
X15184821Y-8928568D01*
X15186001Y-8934500D01*
X15186001Y-8977000D01*
X15184821Y-8982932D01*
X15181461Y-8987961D01*
X15176432Y-8991321D01*
X15170500Y-8992501D01*
X15139500Y-8992501D01*
X15133568Y-8991321D01*
X15128539Y-8987961D01*
X15125179Y-8982932D01*
X15123999Y-8977000D01*
X15123999Y-8934500D01*
X15125179Y-8928568D01*
X15128539Y-8923539D01*
X15133568Y-8920179D01*
X15139500Y-8918999D01*
X15170500Y-8918999D01*
X15176432Y-8920179D01*
G37*
G36*
X16114858Y-8930065D02*
G01*
X16119400Y-8933100D01*
X16122435Y-8937642D01*
X16123501Y-8943000D01*
X16123501Y-8971000D01*
X16122435Y-8976358D01*
X16119400Y-8980900D01*
X16114858Y-8983935D01*
X16109500Y-8985001D01*
X16075500Y-8985001D01*
X16070142Y-8983935D01*
X16065600Y-8980900D01*
X16062565Y-8976358D01*
X16061499Y-8971000D01*
X16061499Y-8943000D01*
X16062565Y-8937642D01*
X16065600Y-8933100D01*
X16070142Y-8930065D01*
X16075500Y-8928999D01*
X16109500Y-8928999D01*
X16114858Y-8930065D01*
G37*
G36*
X15864858Y-8928065D02*
G01*
X15869400Y-8931100D01*
X15872435Y-8935642D01*
X15873501Y-8941000D01*
X15873501Y-8969000D01*
X15872435Y-8974358D01*
X15869400Y-8978900D01*
X15864858Y-8981935D01*
X15859500Y-8983001D01*
X15825500Y-8983001D01*
X15820142Y-8981935D01*
X15815600Y-8978900D01*
X15812565Y-8974358D01*
X15811499Y-8969000D01*
X15811499Y-8941000D01*
X15812565Y-8935642D01*
X15815600Y-8931100D01*
X15820142Y-8928065D01*
X15825500Y-8926999D01*
X15859500Y-8926999D01*
X15864858Y-8928065D01*
G37*
G36*
X15388241Y-8921141D02*
G01*
X15393107Y-8924393D01*
X15396359Y-8929259D01*
X15397501Y-8935000D01*
X15397501Y-8965000D01*
X15396359Y-8970741D01*
X15393107Y-8975607D01*
X15388241Y-8978859D01*
X15382500Y-8980001D01*
X15280000Y-8980001D01*
X15274259Y-8978859D01*
X15269393Y-8975607D01*
X15266141Y-8970741D01*
X15264999Y-8965000D01*
X15264999Y-8935000D01*
X15266141Y-8929259D01*
X15269393Y-8924393D01*
X15274259Y-8921141D01*
X15280000Y-8919999D01*
X15382500Y-8919999D01*
X15388241Y-8921141D01*
G37*
G36*
X15615741Y-8921141D02*
G01*
X15620607Y-8924393D01*
X15623859Y-8929259D01*
X15625001Y-8935000D01*
X15625001Y-8965000D01*
X15623859Y-8970741D01*
X15620607Y-8975607D01*
X15615741Y-8978859D01*
X15610000Y-8980001D01*
X15507500Y-8980001D01*
X15501759Y-8978859D01*
X15496893Y-8975607D01*
X15493641Y-8970741D01*
X15492499Y-8965000D01*
X15492499Y-8935000D01*
X15493641Y-8929259D01*
X15496893Y-8924393D01*
X15501759Y-8921141D01*
X15507500Y-8919999D01*
X15610000Y-8919999D01*
X15615741Y-8921141D01*
G37*
G36*
X12973241Y-8898641D02*
G01*
X12978107Y-8901893D01*
X12981359Y-8906759D01*
X12982501Y-8912500D01*
X12982501Y-8942500D01*
X12981359Y-8948241D01*
X12978107Y-8953107D01*
X12973241Y-8956359D01*
X12967500Y-8957501D01*
X12865000Y-8957501D01*
X12859259Y-8956359D01*
X12854393Y-8953107D01*
X12851141Y-8948241D01*
X12849999Y-8942500D01*
X12849999Y-8912500D01*
X12851141Y-8906759D01*
X12854393Y-8901893D01*
X12859259Y-8898641D01*
X12865000Y-8897499D01*
X12967500Y-8897499D01*
X12973241Y-8898641D01*
G37*
G36*
X13200741Y-8898641D02*
G01*
X13205607Y-8901893D01*
X13208859Y-8906759D01*
X13210001Y-8912500D01*
X13210001Y-8942500D01*
X13208859Y-8948241D01*
X13205607Y-8953107D01*
X13200741Y-8956359D01*
X13195000Y-8957501D01*
X13092500Y-8957501D01*
X13086759Y-8956359D01*
X13081893Y-8953107D01*
X13078641Y-8948241D01*
X13077499Y-8942500D01*
X13077499Y-8912500D01*
X13078641Y-8906759D01*
X13081893Y-8901893D01*
X13086759Y-8898641D01*
X13092500Y-8897499D01*
X13195000Y-8897499D01*
X13200741Y-8898641D01*
G37*
G36*
X13412932Y-8892679D02*
G01*
X13417961Y-8896039D01*
X13421321Y-8901068D01*
X13422501Y-8907000D01*
X13422501Y-8938000D01*
X13421321Y-8943932D01*
X13417961Y-8948961D01*
X13412932Y-8952321D01*
X13407000Y-8953501D01*
X13364500Y-8953501D01*
X13358568Y-8952321D01*
X13353539Y-8948961D01*
X13350179Y-8943932D01*
X13348999Y-8938000D01*
X13348999Y-8907000D01*
X13350179Y-8901068D01*
X13353539Y-8896039D01*
X13358568Y-8892679D01*
X13364500Y-8891499D01*
X13407000Y-8891499D01*
X13412932Y-8892679D01*
G37*
G36*
X13526432Y-8892679D02*
G01*
X13531461Y-8896039D01*
X13534821Y-8901068D01*
X13536001Y-8907000D01*
X13536001Y-8938000D01*
X13534821Y-8943932D01*
X13531461Y-8948961D01*
X13526432Y-8952321D01*
X13520500Y-8953501D01*
X13478000Y-8953501D01*
X13472068Y-8952321D01*
X13467039Y-8948961D01*
X13463679Y-8943932D01*
X13462499Y-8938000D01*
X13462499Y-8907000D01*
X13463679Y-8901068D01*
X13467039Y-8896039D01*
X13472068Y-8892679D01*
X13478000Y-8891499D01*
X13520500Y-8891499D01*
X13526432Y-8892679D01*
G37*
G36*
X15615741Y-8826141D02*
G01*
X15620607Y-8829393D01*
X15623859Y-8834259D01*
X15625001Y-8840000D01*
X15625001Y-8870000D01*
X15623859Y-8875741D01*
X15620607Y-8880607D01*
X15615741Y-8883859D01*
X15610000Y-8885001D01*
X15507500Y-8885001D01*
X15501759Y-8883859D01*
X15496893Y-8880607D01*
X15493641Y-8875741D01*
X15492499Y-8870000D01*
X15492499Y-8840000D01*
X15493641Y-8834259D01*
X15496893Y-8829393D01*
X15501759Y-8826141D01*
X15507500Y-8824999D01*
X15610000Y-8824999D01*
X15615741Y-8826141D01*
G37*
G36*
X15866167Y-8805027D02*
G01*
X15870547Y-8807953D01*
X15873473Y-8812333D01*
X15874501Y-8817500D01*
X15874501Y-8844500D01*
X15873473Y-8849667D01*
X15870547Y-8854047D01*
X15866167Y-8856973D01*
X15861000Y-8858001D01*
X15824000Y-8858001D01*
X15818833Y-8856973D01*
X15814453Y-8854047D01*
X15811527Y-8849667D01*
X15810499Y-8844500D01*
X15810499Y-8817500D01*
X15811527Y-8812333D01*
X15814453Y-8807953D01*
X15818833Y-8805027D01*
X15824000Y-8803999D01*
X15861000Y-8803999D01*
X15866167Y-8805027D01*
G37*
G36*
X15991167Y-8804027D02*
G01*
X15995547Y-8806953D01*
X15998473Y-8811333D01*
X15999501Y-8816500D01*
X15999501Y-8843500D01*
X15998473Y-8848667D01*
X15995547Y-8853047D01*
X15991167Y-8855973D01*
X15986000Y-8857001D01*
X15949000Y-8857001D01*
X15943833Y-8855973D01*
X15939453Y-8853047D01*
X15936527Y-8848667D01*
X15935499Y-8843500D01*
X15935499Y-8816500D01*
X15936527Y-8811333D01*
X15939453Y-8806953D01*
X15943833Y-8804027D01*
X15949000Y-8802999D01*
X15986000Y-8802999D01*
X15991167Y-8804027D01*
G37*
G36*
X16116167Y-8804027D02*
G01*
X16120547Y-8806953D01*
X16123473Y-8811333D01*
X16124501Y-8816500D01*
X16124501Y-8843500D01*
X16123473Y-8848667D01*
X16120547Y-8853047D01*
X16116167Y-8855973D01*
X16111000Y-8857001D01*
X16074000Y-8857001D01*
X16068833Y-8855973D01*
X16064453Y-8853047D01*
X16061527Y-8848667D01*
X16060499Y-8843500D01*
X16060499Y-8816500D01*
X16061527Y-8811333D01*
X16064453Y-8806953D01*
X16068833Y-8804027D01*
X16074000Y-8802999D01*
X16111000Y-8802999D01*
X16116167Y-8804027D01*
G37*
G36*
X15742358Y-8800565D02*
G01*
X15746900Y-8803600D01*
X15749935Y-8808142D01*
X15751001Y-8813500D01*
X15751001Y-8841500D01*
X15749935Y-8846858D01*
X15746900Y-8851400D01*
X15742358Y-8854435D01*
X15737000Y-8855501D01*
X15703000Y-8855501D01*
X15697642Y-8854435D01*
X15693100Y-8851400D01*
X15690065Y-8846858D01*
X15688999Y-8841500D01*
X15688999Y-8813500D01*
X15690065Y-8808142D01*
X15693100Y-8803600D01*
X15697642Y-8800565D01*
X15703000Y-8799499D01*
X15737000Y-8799499D01*
X15742358Y-8800565D01*
G37*
G36*
X14445741Y-8783641D02*
G01*
X14450607Y-8786893D01*
X14453859Y-8791759D01*
X14455001Y-8797500D01*
X14455001Y-8827500D01*
X14453859Y-8833241D01*
X14450607Y-8838107D01*
X14445741Y-8841359D01*
X14440000Y-8842501D01*
X14337500Y-8842501D01*
X14331759Y-8841359D01*
X14326893Y-8838107D01*
X14323641Y-8833241D01*
X14322499Y-8827500D01*
X14322499Y-8797500D01*
X14323641Y-8791759D01*
X14326893Y-8786893D01*
X14331759Y-8783641D01*
X14337500Y-8782499D01*
X14440000Y-8782499D01*
X14445741Y-8783641D01*
G37*
G36*
X14673241Y-8783641D02*
G01*
X14678107Y-8786893D01*
X14681359Y-8791759D01*
X14682501Y-8797500D01*
X14682501Y-8827500D01*
X14681359Y-8833241D01*
X14678107Y-8838107D01*
X14673241Y-8841359D01*
X14667500Y-8842501D01*
X14565000Y-8842501D01*
X14559259Y-8841359D01*
X14554393Y-8838107D01*
X14551141Y-8833241D01*
X14549999Y-8827500D01*
X14549999Y-8797500D01*
X14551141Y-8791759D01*
X14554393Y-8786893D01*
X14559259Y-8783641D01*
X14565000Y-8782499D01*
X14667500Y-8782499D01*
X14673241Y-8783641D01*
G37*
G36*
X13407667Y-8764027D02*
G01*
X13412047Y-8766953D01*
X13414973Y-8771333D01*
X13416001Y-8776500D01*
X13416001Y-8813500D01*
X13414973Y-8818667D01*
X13412047Y-8823047D01*
X13407667Y-8825973D01*
X13402500Y-8827001D01*
X13375500Y-8827001D01*
X13370333Y-8825973D01*
X13365953Y-8823047D01*
X13363027Y-8818667D01*
X13361999Y-8813500D01*
X13361999Y-8776500D01*
X13363027Y-8771333D01*
X13365953Y-8766953D01*
X13370333Y-8764027D01*
X13375500Y-8762999D01*
X13402500Y-8762999D01*
X13407667Y-8764027D01*
G37*
G36*
X13509667Y-8764027D02*
G01*
X13514047Y-8766953D01*
X13516973Y-8771333D01*
X13518001Y-8776500D01*
X13518001Y-8813500D01*
X13516973Y-8818667D01*
X13514047Y-8823047D01*
X13509667Y-8825973D01*
X13504500Y-8827001D01*
X13477500Y-8827001D01*
X13472333Y-8825973D01*
X13467953Y-8823047D01*
X13465027Y-8818667D01*
X13463999Y-8813500D01*
X13463999Y-8776500D01*
X13465027Y-8771333D01*
X13467953Y-8766953D01*
X13472333Y-8764027D01*
X13477500Y-8762999D01*
X13504500Y-8762999D01*
X13509667Y-8764027D01*
G37*
G36*
X12871167Y-8755027D02*
G01*
X12875547Y-8757953D01*
X12878473Y-8762333D01*
X12879501Y-8767500D01*
X12879501Y-8794500D01*
X12878473Y-8799667D01*
X12875547Y-8804047D01*
X12871167Y-8806973D01*
X12866000Y-8808001D01*
X12829000Y-8808001D01*
X12823833Y-8806973D01*
X12819453Y-8804047D01*
X12816527Y-8799667D01*
X12815499Y-8794500D01*
X12815499Y-8767500D01*
X12816527Y-8762333D01*
X12819453Y-8757953D01*
X12823833Y-8755027D01*
X12829000Y-8753999D01*
X12866000Y-8753999D01*
X12871167Y-8755027D01*
G37*
G36*
X15388241Y-8731141D02*
G01*
X15393107Y-8734393D01*
X15396359Y-8739259D01*
X15397501Y-8745000D01*
X15397501Y-8775000D01*
X15396359Y-8780741D01*
X15393107Y-8785607D01*
X15388241Y-8788859D01*
X15382500Y-8790001D01*
X15280000Y-8790001D01*
X15274259Y-8788859D01*
X15269393Y-8785607D01*
X15266141Y-8780741D01*
X15264999Y-8775000D01*
X15264999Y-8745000D01*
X15266141Y-8739259D01*
X15269393Y-8734393D01*
X15274259Y-8731141D01*
X15280000Y-8729999D01*
X15382500Y-8729999D01*
X15388241Y-8731141D01*
G37*
G36*
X15615741Y-8731141D02*
G01*
X15620607Y-8734393D01*
X15623859Y-8739259D01*
X15625001Y-8745000D01*
X15625001Y-8775000D01*
X15623859Y-8780741D01*
X15620607Y-8785607D01*
X15615741Y-8788859D01*
X15610000Y-8790001D01*
X15507500Y-8790001D01*
X15501759Y-8788859D01*
X15496893Y-8785607D01*
X15493641Y-8780741D01*
X15492499Y-8775000D01*
X15492499Y-8745000D01*
X15493641Y-8739259D01*
X15496893Y-8734393D01*
X15501759Y-8731141D01*
X15507500Y-8729999D01*
X15610000Y-8729999D01*
X15615741Y-8731141D01*
G37*
G36*
X13183858Y-8720065D02*
G01*
X13188400Y-8723100D01*
X13191435Y-8727642D01*
X13192501Y-8733000D01*
X13192501Y-8767000D01*
X13191435Y-8772358D01*
X13188400Y-8776900D01*
X13183858Y-8779935D01*
X13178500Y-8781001D01*
X13150500Y-8781001D01*
X13145142Y-8779935D01*
X13140600Y-8776900D01*
X13137565Y-8772358D01*
X13136499Y-8767000D01*
X13136499Y-8733000D01*
X13137565Y-8727642D01*
X13140600Y-8723100D01*
X13145142Y-8720065D01*
X13150500Y-8718999D01*
X13178500Y-8718999D01*
X13183858Y-8720065D01*
G37*
G36*
X13279858Y-8720065D02*
G01*
X13284400Y-8723100D01*
X13287435Y-8727642D01*
X13288501Y-8733000D01*
X13288501Y-8767000D01*
X13287435Y-8772358D01*
X13284400Y-8776900D01*
X13279858Y-8779935D01*
X13274500Y-8781001D01*
X13246500Y-8781001D01*
X13241142Y-8779935D01*
X13236600Y-8776900D01*
X13233565Y-8772358D01*
X13232499Y-8767000D01*
X13232499Y-8733000D01*
X13233565Y-8727642D01*
X13236600Y-8723100D01*
X13241142Y-8720065D01*
X13246500Y-8718999D01*
X13274500Y-8718999D01*
X13279858Y-8720065D01*
G37*
G36*
X13811167Y-8725027D02*
G01*
X13815547Y-8727953D01*
X13818473Y-8732333D01*
X13819501Y-8737500D01*
X13819501Y-8764500D01*
X13818473Y-8769667D01*
X13815547Y-8774047D01*
X13811167Y-8776973D01*
X13806000Y-8778001D01*
X13769000Y-8778001D01*
X13763833Y-8776973D01*
X13759453Y-8774047D01*
X13756527Y-8769667D01*
X13755499Y-8764500D01*
X13755499Y-8737500D01*
X13756527Y-8732333D01*
X13759453Y-8727953D01*
X13763833Y-8725027D01*
X13769000Y-8723999D01*
X13806000Y-8723999D01*
X13811167Y-8725027D01*
G37*
G36*
X13936167Y-8725027D02*
G01*
X13940547Y-8727953D01*
X13943473Y-8732333D01*
X13944501Y-8737500D01*
X13944501Y-8764500D01*
X13943473Y-8769667D01*
X13940547Y-8774047D01*
X13936167Y-8776973D01*
X13931000Y-8778001D01*
X13894000Y-8778001D01*
X13888833Y-8776973D01*
X13884453Y-8774047D01*
X13881527Y-8769667D01*
X13880499Y-8764500D01*
X13880499Y-8737500D01*
X13881527Y-8732333D01*
X13884453Y-8727953D01*
X13888833Y-8725027D01*
X13894000Y-8723999D01*
X13931000Y-8723999D01*
X13936167Y-8725027D01*
G37*
G36*
X15742358Y-8704565D02*
G01*
X15746900Y-8707600D01*
X15749935Y-8712142D01*
X15751001Y-8717500D01*
X15751001Y-8745500D01*
X15749935Y-8750858D01*
X15746900Y-8755400D01*
X15742358Y-8758435D01*
X15737000Y-8759501D01*
X15703000Y-8759501D01*
X15697642Y-8758435D01*
X15693100Y-8755400D01*
X15690065Y-8750858D01*
X15688999Y-8745500D01*
X15688999Y-8717500D01*
X15690065Y-8712142D01*
X15693100Y-8707600D01*
X15697642Y-8704565D01*
X15703000Y-8703499D01*
X15737000Y-8703499D01*
X15742358Y-8704565D01*
G37*
G36*
X15866167Y-8703027D02*
G01*
X15870547Y-8705953D01*
X15873473Y-8710333D01*
X15874501Y-8715500D01*
X15874501Y-8742500D01*
X15873473Y-8747667D01*
X15870547Y-8752047D01*
X15866167Y-8754973D01*
X15861000Y-8756001D01*
X15824000Y-8756001D01*
X15818833Y-8754973D01*
X15814453Y-8752047D01*
X15811527Y-8747667D01*
X15810499Y-8742500D01*
X15810499Y-8715500D01*
X15811527Y-8710333D01*
X15814453Y-8705953D01*
X15818833Y-8703027D01*
X15824000Y-8701999D01*
X15861000Y-8701999D01*
X15866167Y-8703027D01*
G37*
G36*
X15991167Y-8702027D02*
G01*
X15995547Y-8704953D01*
X15998473Y-8709333D01*
X15999501Y-8714500D01*
X15999501Y-8741500D01*
X15998473Y-8746667D01*
X15995547Y-8751047D01*
X15991167Y-8753973D01*
X15986000Y-8755001D01*
X15949000Y-8755001D01*
X15943833Y-8753973D01*
X15939453Y-8751047D01*
X15936527Y-8746667D01*
X15935499Y-8741500D01*
X15935499Y-8714500D01*
X15936527Y-8709333D01*
X15939453Y-8704953D01*
X15943833Y-8702027D01*
X15949000Y-8700999D01*
X15986000Y-8700999D01*
X15991167Y-8702027D01*
G37*
G36*
X16116167Y-8702027D02*
G01*
X16120547Y-8704953D01*
X16123473Y-8709333D01*
X16124501Y-8714500D01*
X16124501Y-8741500D01*
X16123473Y-8746667D01*
X16120547Y-8751047D01*
X16116167Y-8753973D01*
X16111000Y-8755001D01*
X16074000Y-8755001D01*
X16068833Y-8753973D01*
X16064453Y-8751047D01*
X16061527Y-8746667D01*
X16060499Y-8741500D01*
X16060499Y-8714500D01*
X16061527Y-8709333D01*
X16064453Y-8704953D01*
X16068833Y-8702027D01*
X16074000Y-8700999D01*
X16111000Y-8700999D01*
X16116167Y-8702027D01*
G37*
G36*
X14445741Y-8688641D02*
G01*
X14450607Y-8691893D01*
X14453859Y-8696759D01*
X14455001Y-8702500D01*
X14455001Y-8732500D01*
X14453859Y-8738241D01*
X14450607Y-8743107D01*
X14445741Y-8746359D01*
X14440000Y-8747501D01*
X14337500Y-8747501D01*
X14331759Y-8746359D01*
X14326893Y-8743107D01*
X14323641Y-8738241D01*
X14322499Y-8732500D01*
X14322499Y-8702500D01*
X14323641Y-8696759D01*
X14326893Y-8691893D01*
X14331759Y-8688641D01*
X14337500Y-8687499D01*
X14440000Y-8687499D01*
X14445741Y-8688641D01*
G37*
G36*
X12871167Y-8653027D02*
G01*
X12875547Y-8655953D01*
X12878473Y-8660333D01*
X12879501Y-8665500D01*
X12879501Y-8692500D01*
X12878473Y-8697667D01*
X12875547Y-8702047D01*
X12871167Y-8704973D01*
X12866000Y-8706001D01*
X12829000Y-8706001D01*
X12823833Y-8704973D01*
X12819453Y-8702047D01*
X12816527Y-8697667D01*
X12815499Y-8692500D01*
X12815499Y-8665500D01*
X12816527Y-8660333D01*
X12819453Y-8655953D01*
X12823833Y-8653027D01*
X12829000Y-8651999D01*
X12866000Y-8651999D01*
X12871167Y-8653027D01*
G37*
G36*
X13811167Y-8623027D02*
G01*
X13815547Y-8625953D01*
X13818473Y-8630333D01*
X13819501Y-8635500D01*
X13819501Y-8662500D01*
X13818473Y-8667667D01*
X13815547Y-8672047D01*
X13811167Y-8674973D01*
X13806000Y-8676001D01*
X13769000Y-8676001D01*
X13763833Y-8674973D01*
X13759453Y-8672047D01*
X13756527Y-8667667D01*
X13755499Y-8662500D01*
X13755499Y-8635500D01*
X13756527Y-8630333D01*
X13759453Y-8625953D01*
X13763833Y-8623027D01*
X13769000Y-8621999D01*
X13806000Y-8621999D01*
X13811167Y-8623027D01*
G37*
G36*
X13936167Y-8623027D02*
G01*
X13940547Y-8625953D01*
X13943473Y-8630333D01*
X13944501Y-8635500D01*
X13944501Y-8662500D01*
X13943473Y-8667667D01*
X13940547Y-8672047D01*
X13936167Y-8674973D01*
X13931000Y-8676001D01*
X13894000Y-8676001D01*
X13888833Y-8674973D01*
X13884453Y-8672047D01*
X13881527Y-8667667D01*
X13880499Y-8662500D01*
X13880499Y-8635500D01*
X13881527Y-8630333D01*
X13884453Y-8625953D01*
X13888833Y-8623027D01*
X13894000Y-8621999D01*
X13931000Y-8621999D01*
X13936167Y-8623027D01*
G37*
G36*
X12985167Y-8611527D02*
G01*
X12989547Y-8614453D01*
X12992473Y-8618833D01*
X12993501Y-8624000D01*
X12993501Y-8661000D01*
X12992473Y-8666167D01*
X12989547Y-8670547D01*
X12985167Y-8673473D01*
X12980000Y-8674501D01*
X12953000Y-8674501D01*
X12947833Y-8673473D01*
X12943453Y-8670547D01*
X12940527Y-8666167D01*
X12939499Y-8661000D01*
X12939499Y-8624000D01*
X12940527Y-8618833D01*
X12943453Y-8614453D01*
X12947833Y-8611527D01*
X12953000Y-8610499D01*
X12980000Y-8610499D01*
X12985167Y-8611527D01*
G37*
G36*
X13087167Y-8611527D02*
G01*
X13091547Y-8614453D01*
X13094473Y-8618833D01*
X13095501Y-8624000D01*
X13095501Y-8661000D01*
X13094473Y-8666167D01*
X13091547Y-8670547D01*
X13087167Y-8673473D01*
X13082000Y-8674501D01*
X13055000Y-8674501D01*
X13049833Y-8673473D01*
X13045453Y-8670547D01*
X13042527Y-8666167D01*
X13041499Y-8661000D01*
X13041499Y-8624000D01*
X13042527Y-8618833D01*
X13045453Y-8614453D01*
X13049833Y-8611527D01*
X13055000Y-8610499D01*
X13082000Y-8610499D01*
X13087167Y-8611527D01*
G37*
G36*
X14445741Y-8593641D02*
G01*
X14450607Y-8596893D01*
X14453859Y-8601759D01*
X14455001Y-8607500D01*
X14455001Y-8637500D01*
X14453859Y-8643241D01*
X14450607Y-8648107D01*
X14445741Y-8651359D01*
X14440000Y-8652501D01*
X14337500Y-8652501D01*
X14331759Y-8651359D01*
X14326893Y-8648107D01*
X14323641Y-8643241D01*
X14322499Y-8637500D01*
X14322499Y-8607500D01*
X14323641Y-8601759D01*
X14326893Y-8596893D01*
X14331759Y-8593641D01*
X14337500Y-8592499D01*
X14440000Y-8592499D01*
X14445741Y-8593641D01*
G37*
G36*
X14673241Y-8593641D02*
G01*
X14678107Y-8596893D01*
X14681359Y-8601759D01*
X14682501Y-8607500D01*
X14682501Y-8637500D01*
X14681359Y-8643241D01*
X14678107Y-8648107D01*
X14673241Y-8651359D01*
X14667500Y-8652501D01*
X14565000Y-8652501D01*
X14559259Y-8651359D01*
X14554393Y-8648107D01*
X14551141Y-8643241D01*
X14549999Y-8637500D01*
X14549999Y-8607500D01*
X14551141Y-8601759D01*
X14554393Y-8596893D01*
X14559259Y-8593641D01*
X14565000Y-8592499D01*
X14667500Y-8592499D01*
X14673241Y-8593641D01*
G37*
G36*
X13315741Y-8564891D02*
G01*
X13320607Y-8568143D01*
X13323859Y-8573009D01*
X13325001Y-8578750D01*
X13325001Y-8608750D01*
X13323859Y-8614491D01*
X13320607Y-8619357D01*
X13315741Y-8622609D01*
X13310000Y-8623751D01*
X13207500Y-8623751D01*
X13201759Y-8622609D01*
X13196893Y-8619357D01*
X13193641Y-8614491D01*
X13192499Y-8608750D01*
X13192499Y-8578750D01*
X13193641Y-8573009D01*
X13196893Y-8568143D01*
X13201759Y-8564891D01*
X13207500Y-8563749D01*
X13310000Y-8563749D01*
X13315741Y-8564891D01*
G37*
G36*
X13543241Y-8564891D02*
G01*
X13548107Y-8568143D01*
X13551359Y-8573009D01*
X13552501Y-8578750D01*
X13552501Y-8608750D01*
X13551359Y-8614491D01*
X13548107Y-8619357D01*
X13543241Y-8622609D01*
X13537500Y-8623751D01*
X13435000Y-8623751D01*
X13429259Y-8622609D01*
X13424393Y-8619357D01*
X13421141Y-8614491D01*
X13419999Y-8608750D01*
X13419999Y-8578750D01*
X13421141Y-8573009D01*
X13424393Y-8568143D01*
X13429259Y-8564891D01*
X13435000Y-8563749D01*
X13537500Y-8563749D01*
X13543241Y-8564891D01*
G37*
G36*
X13678932Y-8488679D02*
G01*
X13683961Y-8492039D01*
X13687321Y-8497068D01*
X13688501Y-8503000D01*
X13688501Y-8545500D01*
X13687321Y-8551432D01*
X13683961Y-8556461D01*
X13678932Y-8559821D01*
X13673000Y-8561001D01*
X13642000Y-8561001D01*
X13636068Y-8559821D01*
X13631039Y-8556461D01*
X13627679Y-8551432D01*
X13626499Y-8545500D01*
X13626499Y-8503000D01*
X13627679Y-8497068D01*
X13631039Y-8492039D01*
X13636068Y-8488679D01*
X13642000Y-8487499D01*
X13673000Y-8487499D01*
X13678932Y-8488679D01*
G37*
G36*
X12773858Y-8482565D02*
G01*
X12778400Y-8485600D01*
X12781435Y-8490142D01*
X12782501Y-8495500D01*
X12782501Y-8529500D01*
X12781435Y-8534858D01*
X12778400Y-8539400D01*
X12773858Y-8542435D01*
X12768500Y-8543501D01*
X12740500Y-8543501D01*
X12735142Y-8542435D01*
X12730600Y-8539400D01*
X12727565Y-8534858D01*
X12726499Y-8529500D01*
X12726499Y-8495500D01*
X12727565Y-8490142D01*
X12730600Y-8485600D01*
X12735142Y-8482565D01*
X12740500Y-8481499D01*
X12768500Y-8481499D01*
X12773858Y-8482565D01*
G37*
G36*
X12869858Y-8482565D02*
G01*
X12874400Y-8485600D01*
X12877435Y-8490142D01*
X12878501Y-8495500D01*
X12878501Y-8529500D01*
X12877435Y-8534858D01*
X12874400Y-8539400D01*
X12869858Y-8542435D01*
X12864500Y-8543501D01*
X12836500Y-8543501D01*
X12831142Y-8542435D01*
X12826600Y-8539400D01*
X12823565Y-8534858D01*
X12822499Y-8529500D01*
X12822499Y-8495500D01*
X12823565Y-8490142D01*
X12826600Y-8485600D01*
X12831142Y-8482565D01*
X12836500Y-8481499D01*
X12864500Y-8481499D01*
X12869858Y-8482565D01*
G37*
G36*
X13315741Y-8469891D02*
G01*
X13320607Y-8473143D01*
X13323859Y-8478009D01*
X13325001Y-8483750D01*
X13325001Y-8513750D01*
X13323859Y-8519491D01*
X13320607Y-8524357D01*
X13315741Y-8527609D01*
X13310000Y-8528751D01*
X13207500Y-8528751D01*
X13201759Y-8527609D01*
X13196893Y-8524357D01*
X13193641Y-8519491D01*
X13192499Y-8513750D01*
X13192499Y-8483750D01*
X13193641Y-8478009D01*
X13196893Y-8473143D01*
X13201759Y-8469891D01*
X13207500Y-8468749D01*
X13310000Y-8468749D01*
X13315741Y-8469891D01*
G37*
G36*
X13678932Y-8375179D02*
G01*
X13683961Y-8378539D01*
X13687321Y-8383568D01*
X13688501Y-8389500D01*
X13688501Y-8432000D01*
X13687321Y-8437932D01*
X13683961Y-8442961D01*
X13678932Y-8446321D01*
X13673000Y-8447501D01*
X13642000Y-8447501D01*
X13636068Y-8446321D01*
X13631039Y-8442961D01*
X13627679Y-8437932D01*
X13626499Y-8432000D01*
X13626499Y-8389500D01*
X13627679Y-8383568D01*
X13631039Y-8378539D01*
X13636068Y-8375179D01*
X13642000Y-8373999D01*
X13673000Y-8373999D01*
X13678932Y-8375179D01*
G37*
G36*
X13315741Y-8374891D02*
G01*
X13320607Y-8378143D01*
X13323859Y-8383009D01*
X13325001Y-8388750D01*
X13325001Y-8418750D01*
X13323859Y-8424491D01*
X13320607Y-8429357D01*
X13315741Y-8432609D01*
X13310000Y-8433751D01*
X13207500Y-8433751D01*
X13201759Y-8432609D01*
X13196893Y-8429357D01*
X13193641Y-8424491D01*
X13192499Y-8418750D01*
X13192499Y-8388750D01*
X13193641Y-8383009D01*
X13196893Y-8378143D01*
X13201759Y-8374891D01*
X13207500Y-8373749D01*
X13310000Y-8373749D01*
X13315741Y-8374891D01*
G37*
G36*
X13543241Y-8374891D02*
G01*
X13548107Y-8378143D01*
X13551359Y-8383009D01*
X13552501Y-8388750D01*
X13552501Y-8418750D01*
X13551359Y-8424491D01*
X13548107Y-8429357D01*
X13543241Y-8432609D01*
X13537500Y-8433751D01*
X13435000Y-8433751D01*
X13429259Y-8432609D01*
X13424393Y-8429357D01*
X13421141Y-8424491D01*
X13419999Y-8418750D01*
X13419999Y-8388750D01*
X13421141Y-8383009D01*
X13424393Y-8378143D01*
X13429259Y-8374891D01*
X13435000Y-8373749D01*
X13537500Y-8373749D01*
X13543241Y-8374891D01*
G37*
G36*
X12873667Y-8361527D02*
G01*
X12878047Y-8364453D01*
X12880973Y-8368833D01*
X12882001Y-8374000D01*
X12882001Y-8401000D01*
X12880973Y-8406167D01*
X12878047Y-8410547D01*
X12873667Y-8413473D01*
X12868500Y-8414501D01*
X12831500Y-8414501D01*
X12826333Y-8413473D01*
X12821953Y-8410547D01*
X12819027Y-8406167D01*
X12817999Y-8401000D01*
X12817999Y-8374000D01*
X12819027Y-8368833D01*
X12821953Y-8364453D01*
X12826333Y-8361527D01*
X12831500Y-8360499D01*
X12868500Y-8360499D01*
X12873667Y-8361527D01*
G37*
G36*
X12998858Y-8352565D02*
G01*
X13003400Y-8355600D01*
X13006435Y-8360142D01*
X13007501Y-8365500D01*
X13007501Y-8399500D01*
X13006435Y-8404858D01*
X13003400Y-8409400D01*
X12998858Y-8412435D01*
X12993500Y-8413501D01*
X12965500Y-8413501D01*
X12960142Y-8412435D01*
X12955600Y-8409400D01*
X12952565Y-8404858D01*
X12951499Y-8399500D01*
X12951499Y-8365500D01*
X12952565Y-8360142D01*
X12955600Y-8355600D01*
X12960142Y-8352565D01*
X12965500Y-8351499D01*
X12993500Y-8351499D01*
X12998858Y-8352565D01*
G37*
G36*
X13094858Y-8352565D02*
G01*
X13099400Y-8355600D01*
X13102435Y-8360142D01*
X13103501Y-8365500D01*
X13103501Y-8399500D01*
X13102435Y-8404858D01*
X13099400Y-8409400D01*
X13094858Y-8412435D01*
X13089500Y-8413501D01*
X13061500Y-8413501D01*
X13056142Y-8412435D01*
X13051600Y-8409400D01*
X13048565Y-8404858D01*
X13047499Y-8399500D01*
X13047499Y-8365500D01*
X13048565Y-8360142D01*
X13051600Y-8355600D01*
X13056142Y-8352565D01*
X13061500Y-8351499D01*
X13089500Y-8351499D01*
X13094858Y-8352565D01*
G37*
G36*
X12873667Y-8259527D02*
G01*
X12878047Y-8262453D01*
X12880973Y-8266833D01*
X12882001Y-8272000D01*
X12882001Y-8299000D01*
X12880973Y-8304167D01*
X12878047Y-8308547D01*
X12873667Y-8311473D01*
X12868500Y-8312501D01*
X12831500Y-8312501D01*
X12826333Y-8311473D01*
X12821953Y-8308547D01*
X12819027Y-8304167D01*
X12817999Y-8299000D01*
X12817999Y-8272000D01*
X12819027Y-8266833D01*
X12821953Y-8262453D01*
X12826333Y-8259527D01*
X12831500Y-8258499D01*
X12868500Y-8258499D01*
X12873667Y-8259527D01*
G37*
G36*
X13010167Y-8209027D02*
G01*
X13014547Y-8211953D01*
X13017473Y-8216333D01*
X13018501Y-8221500D01*
X13018501Y-8258500D01*
X13017473Y-8263667D01*
X13014547Y-8268047D01*
X13010167Y-8270973D01*
X13005000Y-8272001D01*
X12978000Y-8272001D01*
X12972833Y-8270973D01*
X12968453Y-8268047D01*
X12965527Y-8263667D01*
X12964499Y-8258500D01*
X12964499Y-8221500D01*
X12965527Y-8216333D01*
X12968453Y-8211953D01*
X12972833Y-8209027D01*
X12978000Y-8207999D01*
X13005000Y-8207999D01*
X13010167Y-8209027D01*
G37*
G36*
X13112167Y-8209027D02*
G01*
X13116547Y-8211953D01*
X13119473Y-8216333D01*
X13120501Y-8221500D01*
X13120501Y-8258500D01*
X13119473Y-8263667D01*
X13116547Y-8268047D01*
X13112167Y-8270973D01*
X13107000Y-8272001D01*
X13080000Y-8272001D01*
X13074833Y-8270973D01*
X13070453Y-8268047D01*
X13067527Y-8263667D01*
X13066499Y-8258500D01*
X13066499Y-8221500D01*
X13067527Y-8216333D01*
X13070453Y-8211953D01*
X13074833Y-8209027D01*
X13080000Y-8207999D01*
X13107000Y-8207999D01*
X13112167Y-8209027D01*
G37*
G36*
X13348241Y-8103641D02*
G01*
X13353107Y-8106893D01*
X13356359Y-8111759D01*
X13357501Y-8117500D01*
X13357501Y-8235000D01*
X13356359Y-8240741D01*
X13353107Y-8245607D01*
X13348241Y-8248859D01*
X13342500Y-8250001D01*
X13312500Y-8250001D01*
X13306759Y-8248859D01*
X13301893Y-8245607D01*
X13298641Y-8240741D01*
X13297499Y-8235000D01*
X13297499Y-8117500D01*
X13298641Y-8111759D01*
X13301893Y-8106893D01*
X13306759Y-8103641D01*
X13312500Y-8102499D01*
X13342500Y-8102499D01*
X13348241Y-8103641D01*
G37*
G36*
X13538241Y-8103641D02*
G01*
X13543107Y-8106893D01*
X13546359Y-8111759D01*
X13547501Y-8117500D01*
X13547501Y-8235000D01*
X13546359Y-8240741D01*
X13543107Y-8245607D01*
X13538241Y-8248859D01*
X13532500Y-8250001D01*
X13502500Y-8250001D01*
X13496759Y-8248859D01*
X13491893Y-8245607D01*
X13488641Y-8240741D01*
X13487499Y-8235000D01*
X13487499Y-8117500D01*
X13488641Y-8111759D01*
X13491893Y-8106893D01*
X13496759Y-8103641D01*
X13502500Y-8102499D01*
X13532500Y-8102499D01*
X13538241Y-8103641D01*
G37*
G36*
X13183611Y-8044212D02*
G01*
X13190911Y-8049089D01*
X13195788Y-8056389D01*
X13197501Y-8065000D01*
X13197501Y-8110000D01*
X13195788Y-8118611D01*
X13190911Y-8125911D01*
X13183611Y-8130788D01*
X13175000Y-8132501D01*
X13125000Y-8132501D01*
X13116389Y-8130788D01*
X13109089Y-8125911D01*
X13104212Y-8118611D01*
X13102499Y-8110000D01*
X13102499Y-8065000D01*
X13104212Y-8056389D01*
X13109089Y-8049089D01*
X13116389Y-8044212D01*
X13125000Y-8042499D01*
X13175000Y-8042499D01*
X13183611Y-8044212D01*
G37*
G36*
X12976111Y-8039212D02*
G01*
X12983411Y-8044089D01*
X12988288Y-8051389D01*
X12990001Y-8060000D01*
X12990001Y-8105000D01*
X12988288Y-8113611D01*
X12983411Y-8120911D01*
X12976111Y-8125788D01*
X12967500Y-8127501D01*
X12917500Y-8127501D01*
X12908889Y-8125788D01*
X12901589Y-8120911D01*
X12896712Y-8113611D01*
X12894999Y-8105000D01*
X12894999Y-8060000D01*
X12896712Y-8051389D01*
X12901589Y-8044089D01*
X12908889Y-8039212D01*
X12917500Y-8037499D01*
X12967500Y-8037499D01*
X12976111Y-8039212D01*
G37*
G36*
X13443241Y-7916141D02*
G01*
X13448107Y-7919393D01*
X13451359Y-7924259D01*
X13452501Y-7930000D01*
X13452501Y-8047500D01*
X13451359Y-8053241D01*
X13448107Y-8058107D01*
X13443241Y-8061359D01*
X13437500Y-8062501D01*
X13407500Y-8062501D01*
X13401759Y-8061359D01*
X13396893Y-8058107D01*
X13393641Y-8053241D01*
X13392499Y-8047500D01*
X13392499Y-7930000D01*
X13393641Y-7924259D01*
X13396893Y-7919393D01*
X13401759Y-7916141D01*
X13407500Y-7914999D01*
X13437500Y-7914999D01*
X13443241Y-7916141D01*
G37*
G36*
X13183611Y-7889212D02*
G01*
X13190911Y-7894089D01*
X13195788Y-7901389D01*
X13197501Y-7910000D01*
X13197501Y-7955000D01*
X13195788Y-7963611D01*
X13190911Y-7970911D01*
X13183611Y-7975788D01*
X13175000Y-7977501D01*
X13125000Y-7977501D01*
X13116389Y-7975788D01*
X13109089Y-7970911D01*
X13104212Y-7963611D01*
X13102499Y-7955000D01*
X13102499Y-7910000D01*
X13104212Y-7901389D01*
X13109089Y-7894089D01*
X13116389Y-7889212D01*
X13125000Y-7887499D01*
X13175000Y-7887499D01*
X13183611Y-7889212D01*
G37*
G36*
X12976111Y-7884212D02*
G01*
X12983411Y-7889089D01*
X12988288Y-7896389D01*
X12990001Y-7905000D01*
X12990001Y-7950000D01*
X12988288Y-7958611D01*
X12983411Y-7965911D01*
X12976111Y-7970788D01*
X12967500Y-7972501D01*
X12917500Y-7972501D01*
X12908889Y-7970788D01*
X12901589Y-7965911D01*
X12896712Y-7958611D01*
X12894999Y-7950000D01*
X12894999Y-7905000D01*
X12896712Y-7896389D01*
X12901589Y-7889089D01*
X12908889Y-7884212D01*
X12917500Y-7882499D01*
X12967500Y-7882499D01*
X12976111Y-7884212D01*
G37*
G36*
X13818858Y-7805065D02*
G01*
X13823400Y-7808100D01*
X13826435Y-7812642D01*
X13827501Y-7818000D01*
X13827501Y-7852000D01*
X13826435Y-7857358D01*
X13823400Y-7861900D01*
X13818858Y-7864935D01*
X13813500Y-7866001D01*
X13785500Y-7866001D01*
X13780142Y-7864935D01*
X13775600Y-7861900D01*
X13772565Y-7857358D01*
X13771499Y-7852000D01*
X13771499Y-7818000D01*
X13772565Y-7812642D01*
X13775600Y-7808100D01*
X13780142Y-7805065D01*
X13785500Y-7803999D01*
X13813500Y-7803999D01*
X13818858Y-7805065D01*
G37*
G36*
X13914858Y-7805065D02*
G01*
X13919400Y-7808100D01*
X13922435Y-7812642D01*
X13923501Y-7818000D01*
X13923501Y-7852000D01*
X13922435Y-7857358D01*
X13919400Y-7861900D01*
X13914858Y-7864935D01*
X13909500Y-7866001D01*
X13881500Y-7866001D01*
X13876142Y-7864935D01*
X13871600Y-7861900D01*
X13868565Y-7857358D01*
X13867499Y-7852000D01*
X13867499Y-7818000D01*
X13868565Y-7812642D01*
X13871600Y-7808100D01*
X13876142Y-7805065D01*
X13881500Y-7803999D01*
X13909500Y-7803999D01*
X13914858Y-7805065D01*
G37*
G36*
X13441358Y-7787565D02*
G01*
X13445900Y-7790600D01*
X13448935Y-7795142D01*
X13450001Y-7800500D01*
X13450001Y-7834500D01*
X13448935Y-7839858D01*
X13445900Y-7844400D01*
X13441358Y-7847435D01*
X13436000Y-7848501D01*
X13408000Y-7848501D01*
X13402642Y-7847435D01*
X13398100Y-7844400D01*
X13395065Y-7839858D01*
X13393999Y-7834500D01*
X13393999Y-7800500D01*
X13395065Y-7795142D01*
X13398100Y-7790600D01*
X13402642Y-7787565D01*
X13408000Y-7786499D01*
X13436000Y-7786499D01*
X13441358Y-7787565D01*
G37*
G36*
X13537358Y-7787565D02*
G01*
X13541900Y-7790600D01*
X13544935Y-7795142D01*
X13546001Y-7800500D01*
X13546001Y-7834500D01*
X13544935Y-7839858D01*
X13541900Y-7844400D01*
X13537358Y-7847435D01*
X13532000Y-7848501D01*
X13504000Y-7848501D01*
X13498642Y-7847435D01*
X13494100Y-7844400D01*
X13491065Y-7839858D01*
X13489999Y-7834500D01*
X13489999Y-7800500D01*
X13491065Y-7795142D01*
X13494100Y-7790600D01*
X13498642Y-7787565D01*
X13504000Y-7786499D01*
X13532000Y-7786499D01*
X13537358Y-7787565D01*
G37*
G36*
X15903892Y-7534464D02*
G01*
X15948036Y-7578608D01*
X15971927Y-7636285D01*
X15971927Y-7698715D01*
X15948036Y-7756392D01*
X15903892Y-7800536D01*
X15846215Y-7824427D01*
X15783785Y-7824427D01*
X15726108Y-7800536D01*
X15681964Y-7756392D01*
X15658073Y-7698715D01*
X15658073Y-7636285D01*
X15681964Y-7578608D01*
X15726108Y-7534464D01*
X15783785Y-7510573D01*
X15846215Y-7510573D01*
X15903892Y-7534464D01*
G37*
G36*
X13393611Y-7621712D02*
G01*
X13400911Y-7626589D01*
X13405788Y-7633889D01*
X13407501Y-7642500D01*
X13407501Y-7692500D01*
X13405788Y-7701111D01*
X13400911Y-7708411D01*
X13393611Y-7713288D01*
X13385000Y-7715001D01*
X13340000Y-7715001D01*
X13331389Y-7713288D01*
X13324089Y-7708411D01*
X13319212Y-7701111D01*
X13317499Y-7692500D01*
X13317499Y-7642500D01*
X13319212Y-7633889D01*
X13324089Y-7626589D01*
X13331389Y-7621712D01*
X13340000Y-7619999D01*
X13385000Y-7619999D01*
X13393611Y-7621712D01*
G37*
G36*
X13548611Y-7621712D02*
G01*
X13555911Y-7626589D01*
X13560788Y-7633889D01*
X13562501Y-7642500D01*
X13562501Y-7692500D01*
X13560788Y-7701111D01*
X13555911Y-7708411D01*
X13548611Y-7713288D01*
X13540000Y-7715001D01*
X13495000Y-7715001D01*
X13486389Y-7713288D01*
X13479089Y-7708411D01*
X13474212Y-7701111D01*
X13472499Y-7692500D01*
X13472499Y-7642500D01*
X13474212Y-7633889D01*
X13479089Y-7626589D01*
X13486389Y-7621712D01*
X13495000Y-7619999D01*
X13540000Y-7619999D01*
X13548611Y-7621712D01*
G37*
G36*
X12563932Y-7591179D02*
G01*
X12568961Y-7594539D01*
X12572321Y-7599568D01*
X12573501Y-7605500D01*
X12573501Y-7648000D01*
X12572321Y-7653932D01*
X12568961Y-7658961D01*
X12563932Y-7662321D01*
X12558000Y-7663501D01*
X12527000Y-7663501D01*
X12521068Y-7662321D01*
X12516039Y-7658961D01*
X12512679Y-7653932D01*
X12511499Y-7648000D01*
X12511499Y-7605500D01*
X12512679Y-7599568D01*
X12516039Y-7594539D01*
X12521068Y-7591179D01*
X12527000Y-7589999D01*
X12558000Y-7589999D01*
X12563932Y-7591179D01*
G37*
G36*
X12798317Y-7484402D02*
G01*
X12806428Y-7489822D01*
X12811848Y-7497932D01*
X12813751Y-7507500D01*
X12813751Y-7632500D01*
X12811848Y-7642067D01*
X12806428Y-7650178D01*
X12798317Y-7655598D01*
X12788750Y-7657501D01*
X12708750Y-7657501D01*
X12699182Y-7655598D01*
X12691072Y-7650178D01*
X12685652Y-7642067D01*
X12683749Y-7632500D01*
X12683749Y-7507500D01*
X12685652Y-7497932D01*
X12691072Y-7489822D01*
X12699182Y-7484402D01*
X12708750Y-7482499D01*
X12788750Y-7482499D01*
X12798317Y-7484402D01*
G37*
G36*
X13108317Y-7484402D02*
G01*
X13116428Y-7489822D01*
X13121848Y-7497932D01*
X13123751Y-7507500D01*
X13123751Y-7632500D01*
X13121848Y-7642067D01*
X13116428Y-7650178D01*
X13108317Y-7655598D01*
X13098750Y-7657501D01*
X13018750Y-7657501D01*
X13009182Y-7655598D01*
X13001072Y-7650178D01*
X12995652Y-7642067D01*
X12993749Y-7632500D01*
X12993749Y-7507500D01*
X12995652Y-7497932D01*
X13001072Y-7489822D01*
X13009182Y-7484402D01*
X13018750Y-7482499D01*
X13098750Y-7482499D01*
X13108317Y-7484402D01*
G37*
G36*
X12563932Y-7477679D02*
G01*
X12568961Y-7481039D01*
X12572321Y-7486068D01*
X12573501Y-7492000D01*
X12573501Y-7534500D01*
X12572321Y-7540432D01*
X12568961Y-7545461D01*
X12563932Y-7548821D01*
X12558000Y-7550001D01*
X12527000Y-7550001D01*
X12521068Y-7548821D01*
X12516039Y-7545461D01*
X12512679Y-7540432D01*
X12511499Y-7534500D01*
X12511499Y-7492000D01*
X12512679Y-7486068D01*
X12516039Y-7481039D01*
X12521068Y-7477679D01*
X12527000Y-7476499D01*
X12558000Y-7476499D01*
X12563932Y-7477679D01*
G37*
G36*
X12886222Y-6912928D02*
G01*
X12889151Y-6920000D01*
X12889151Y-7232500D01*
X12886222Y-7239572D01*
X12879150Y-7242501D01*
X12878155Y-7242501D01*
X12850430Y-7242501D01*
X12847501Y-7245430D01*
X12847501Y-7380000D01*
X12844572Y-7387072D01*
X12837500Y-7390001D01*
X12836505Y-7390001D01*
X12748495Y-7390001D01*
X12747500Y-7390001D01*
X12740428Y-7387072D01*
X12737499Y-7380000D01*
X12737499Y-7245430D01*
X12734570Y-7242501D01*
X12705850Y-7242501D01*
X12698778Y-7239572D01*
X12695849Y-7232500D01*
X12695849Y-6920000D01*
X12698778Y-6912928D01*
X12705850Y-6909999D01*
X12879150Y-6909999D01*
X12886222Y-6912928D01*
G37*
G36*
X12673611Y-7251712D02*
G01*
X12680911Y-7256589D01*
X12685788Y-7263889D01*
X12687501Y-7272500D01*
X12687501Y-7357500D01*
X12685788Y-7366111D01*
X12680911Y-7373411D01*
X12673611Y-7378288D01*
X12665000Y-7380001D01*
X12620000Y-7380001D01*
X12611389Y-7378288D01*
X12604089Y-7373411D01*
X12599212Y-7366111D01*
X12597499Y-7357500D01*
X12597499Y-7272500D01*
X12599212Y-7263889D01*
X12604089Y-7256589D01*
X12611389Y-7251712D01*
X12620000Y-7249999D01*
X12665000Y-7249999D01*
X12673611Y-7251712D01*
G37*
G36*
X12973611Y-7251712D02*
G01*
X12980911Y-7256589D01*
X12985788Y-7263889D01*
X12987501Y-7272500D01*
X12987501Y-7357500D01*
X12985788Y-7366111D01*
X12980911Y-7373411D01*
X12973611Y-7378288D01*
X12965000Y-7380001D01*
X12920000Y-7380001D01*
X12911389Y-7378288D01*
X12904089Y-7373411D01*
X12899212Y-7366111D01*
X12897499Y-7357500D01*
X12897499Y-7272500D01*
X12899212Y-7263889D01*
X12904089Y-7256589D01*
X12911389Y-7251712D01*
X12920000Y-7249999D01*
X12965000Y-7249999D01*
X12973611Y-7251712D01*
G37*
G36*
X15027500Y-7214999D02*
G01*
X15027501Y-7214999D01*
X15027501Y-7215000D01*
X15027501Y-7215000D01*
X15027501Y-7360000D01*
X15027501Y-7360000D01*
X15027501Y-7360001D01*
X15027500Y-7360001D01*
X15027500Y-7360001D01*
X14997500Y-7360001D01*
X14997500Y-7360001D01*
X14997499Y-7360001D01*
X14997499Y-7360000D01*
X14997499Y-7360000D01*
X14997499Y-7215000D01*
X14997499Y-7215000D01*
X14997499Y-7214999D01*
X14997500Y-7214999D01*
X14997500Y-7214999D01*
X15027500Y-7214999D01*
X15027500Y-7214999D01*
G37*
G36*
X15077500Y-7214999D02*
G01*
X15077501Y-7214999D01*
X15077501Y-7215000D01*
X15077501Y-7215000D01*
X15077501Y-7360000D01*
X15077501Y-7360000D01*
X15077501Y-7360001D01*
X15077500Y-7360001D01*
X15077500Y-7360001D01*
X15047500Y-7360001D01*
X15047500Y-7360001D01*
X15047499Y-7360001D01*
X15047499Y-7360000D01*
X15047499Y-7360000D01*
X15047499Y-7215000D01*
X15047499Y-7215000D01*
X15047499Y-7214999D01*
X15047500Y-7214999D01*
X15047500Y-7214999D01*
X15077500Y-7214999D01*
X15077500Y-7214999D01*
G37*
G36*
X15127500Y-7214999D02*
G01*
X15127501Y-7214999D01*
X15127501Y-7215000D01*
X15127501Y-7215000D01*
X15127501Y-7360000D01*
X15127501Y-7360000D01*
X15127501Y-7360001D01*
X15127500Y-7360001D01*
X15127500Y-7360001D01*
X15097500Y-7360001D01*
X15097500Y-7360001D01*
X15097499Y-7360001D01*
X15097499Y-7360000D01*
X15097499Y-7360000D01*
X15097499Y-7215000D01*
X15097499Y-7215000D01*
X15097499Y-7214999D01*
X15097500Y-7214999D01*
X15097500Y-7214999D01*
X15127500Y-7214999D01*
X15127500Y-7214999D01*
G37*
G36*
X15177500Y-7214999D02*
G01*
X15177501Y-7214999D01*
X15177501Y-7215000D01*
X15177501Y-7215000D01*
X15177501Y-7360000D01*
X15177501Y-7360000D01*
X15177501Y-7360001D01*
X15177500Y-7360001D01*
X15177500Y-7360001D01*
X15147500Y-7360001D01*
X15147500Y-7360001D01*
X15147499Y-7360001D01*
X15147499Y-7360000D01*
X15147499Y-7360000D01*
X15147499Y-7215000D01*
X15147499Y-7215000D01*
X15147499Y-7214999D01*
X15147500Y-7214999D01*
X15147500Y-7214999D01*
X15177500Y-7214999D01*
X15177500Y-7214999D01*
G37*
G36*
X15227500Y-7214999D02*
G01*
X15227501Y-7214999D01*
X15227501Y-7215000D01*
X15227501Y-7215000D01*
X15227501Y-7360000D01*
X15227501Y-7360000D01*
X15227501Y-7360001D01*
X15227500Y-7360001D01*
X15227500Y-7360001D01*
X15197500Y-7360001D01*
X15197500Y-7360001D01*
X15197499Y-7360001D01*
X15197499Y-7360000D01*
X15197499Y-7360000D01*
X15197499Y-7215000D01*
X15197499Y-7215000D01*
X15197499Y-7214999D01*
X15197500Y-7214999D01*
X15197500Y-7214999D01*
X15227500Y-7214999D01*
X15227500Y-7214999D01*
G37*
G36*
X13782500Y-7212499D02*
G01*
X13782501Y-7212499D01*
X13782501Y-7212500D01*
X13782501Y-7212500D01*
X13782501Y-7357500D01*
X13782501Y-7357500D01*
X13782501Y-7357501D01*
X13782500Y-7357501D01*
X13782500Y-7357501D01*
X13752500Y-7357501D01*
X13752500Y-7357501D01*
X13752499Y-7357501D01*
X13752499Y-7357500D01*
X13752499Y-7357500D01*
X13752499Y-7212500D01*
X13752499Y-7212500D01*
X13752499Y-7212499D01*
X13752500Y-7212499D01*
X13752500Y-7212499D01*
X13782500Y-7212499D01*
X13782500Y-7212499D01*
G37*
G36*
X13832500Y-7212499D02*
G01*
X13832501Y-7212499D01*
X13832501Y-7212500D01*
X13832501Y-7212500D01*
X13832501Y-7357500D01*
X13832501Y-7357500D01*
X13832501Y-7357501D01*
X13832500Y-7357501D01*
X13832500Y-7357501D01*
X13802500Y-7357501D01*
X13802500Y-7357501D01*
X13802499Y-7357501D01*
X13802499Y-7357500D01*
X13802499Y-7357500D01*
X13802499Y-7212500D01*
X13802499Y-7212500D01*
X13802499Y-7212499D01*
X13802500Y-7212499D01*
X13802500Y-7212499D01*
X13832500Y-7212499D01*
X13832500Y-7212499D01*
G37*
G36*
X13882500Y-7212499D02*
G01*
X13882501Y-7212499D01*
X13882501Y-7212500D01*
X13882501Y-7212500D01*
X13882501Y-7357500D01*
X13882501Y-7357500D01*
X13882501Y-7357501D01*
X13882500Y-7357501D01*
X13882500Y-7357501D01*
X13852500Y-7357501D01*
X13852500Y-7357501D01*
X13852499Y-7357501D01*
X13852499Y-7357500D01*
X13852499Y-7357500D01*
X13852499Y-7212500D01*
X13852499Y-7212500D01*
X13852499Y-7212499D01*
X13852500Y-7212499D01*
X13852500Y-7212499D01*
X13882500Y-7212499D01*
X13882500Y-7212499D01*
G37*
G36*
X13932500Y-7212499D02*
G01*
X13932501Y-7212499D01*
X13932501Y-7212500D01*
X13932501Y-7212500D01*
X13932501Y-7357500D01*
X13932501Y-7357500D01*
X13932501Y-7357501D01*
X13932500Y-7357501D01*
X13932500Y-7357501D01*
X13902500Y-7357501D01*
X13902500Y-7357501D01*
X13902499Y-7357501D01*
X13902499Y-7357500D01*
X13902499Y-7357500D01*
X13902499Y-7212500D01*
X13902499Y-7212500D01*
X13902499Y-7212499D01*
X13902500Y-7212499D01*
X13902500Y-7212499D01*
X13932500Y-7212499D01*
X13932500Y-7212499D01*
G37*
G36*
X13982500Y-7212499D02*
G01*
X13982501Y-7212499D01*
X13982501Y-7212500D01*
X13982501Y-7212500D01*
X13982501Y-7357500D01*
X13982501Y-7357500D01*
X13982501Y-7357501D01*
X13982500Y-7357501D01*
X13982500Y-7357501D01*
X13952500Y-7357501D01*
X13952500Y-7357501D01*
X13952499Y-7357501D01*
X13952499Y-7357500D01*
X13952499Y-7357500D01*
X13952499Y-7212500D01*
X13952499Y-7212500D01*
X13952499Y-7212499D01*
X13952500Y-7212499D01*
X13952500Y-7212499D01*
X13982500Y-7212499D01*
X13982500Y-7212499D01*
G37*
G36*
X13158932Y-7183679D02*
G01*
X13163961Y-7187039D01*
X13167321Y-7192068D01*
X13168501Y-7198000D01*
X13168501Y-7240500D01*
X13167321Y-7246432D01*
X13163961Y-7251461D01*
X13158932Y-7254821D01*
X13153000Y-7256001D01*
X13122000Y-7256001D01*
X13116068Y-7254821D01*
X13111039Y-7251461D01*
X13107679Y-7246432D01*
X13106499Y-7240500D01*
X13106499Y-7198000D01*
X13107679Y-7192068D01*
X13111039Y-7187039D01*
X13116068Y-7183679D01*
X13122000Y-7182499D01*
X13153000Y-7182499D01*
X13158932Y-7183679D01*
G37*
G36*
X13473611Y-7134212D02*
G01*
X13480911Y-7139089D01*
X13485788Y-7146389D01*
X13487501Y-7155000D01*
X13487501Y-7200000D01*
X13485788Y-7208611D01*
X13480911Y-7215911D01*
X13473611Y-7220788D01*
X13465000Y-7222501D01*
X13415000Y-7222501D01*
X13406389Y-7220788D01*
X13399089Y-7215911D01*
X13394212Y-7208611D01*
X13392499Y-7200000D01*
X13392499Y-7155000D01*
X13394212Y-7146389D01*
X13399089Y-7139089D01*
X13406389Y-7134212D01*
X13415000Y-7132499D01*
X13465000Y-7132499D01*
X13473611Y-7134212D01*
G37*
G36*
X15603611Y-7119212D02*
G01*
X15610911Y-7124089D01*
X15615788Y-7131389D01*
X15617501Y-7140000D01*
X15617501Y-7185000D01*
X15615788Y-7193611D01*
X15610911Y-7200911D01*
X15603611Y-7205788D01*
X15595000Y-7207501D01*
X15545000Y-7207501D01*
X15536389Y-7205788D01*
X15529089Y-7200911D01*
X15524212Y-7193611D01*
X15522499Y-7185000D01*
X15522499Y-7140000D01*
X15524212Y-7131389D01*
X15529089Y-7124089D01*
X15536389Y-7119212D01*
X15545000Y-7117499D01*
X15595000Y-7117499D01*
X15603611Y-7119212D01*
G37*
G36*
X14321111Y-7076712D02*
G01*
X14328411Y-7081589D01*
X14333288Y-7088889D01*
X14335001Y-7097500D01*
X14335001Y-7142500D01*
X14333288Y-7151111D01*
X14328411Y-7158411D01*
X14321111Y-7163288D01*
X14312500Y-7165001D01*
X14262500Y-7165001D01*
X14253889Y-7163288D01*
X14246589Y-7158411D01*
X14241712Y-7151111D01*
X14239999Y-7142500D01*
X14239999Y-7097500D01*
X14241712Y-7088889D01*
X14246589Y-7081589D01*
X14253889Y-7076712D01*
X14262500Y-7074999D01*
X14312500Y-7074999D01*
X14321111Y-7076712D01*
G37*
G36*
X15391432Y-7081179D02*
G01*
X15396461Y-7084539D01*
X15399821Y-7089568D01*
X15401001Y-7095500D01*
X15401001Y-7138000D01*
X15399821Y-7143932D01*
X15396461Y-7148961D01*
X15391432Y-7152321D01*
X15385500Y-7153501D01*
X15354500Y-7153501D01*
X15348568Y-7152321D01*
X15343539Y-7148961D01*
X15340179Y-7143932D01*
X15338999Y-7138000D01*
X15338999Y-7095500D01*
X15340179Y-7089568D01*
X15343539Y-7084539D01*
X15348568Y-7081179D01*
X15354500Y-7079999D01*
X15385500Y-7079999D01*
X15391432Y-7081179D01*
G37*
G36*
X14878667Y-7097527D02*
G01*
X14883047Y-7100453D01*
X14885973Y-7104833D01*
X14887001Y-7110000D01*
X14887001Y-7137000D01*
X14885973Y-7142167D01*
X14883047Y-7146547D01*
X14878667Y-7149473D01*
X14873500Y-7150501D01*
X14836500Y-7150501D01*
X14831333Y-7149473D01*
X14826953Y-7146547D01*
X14824027Y-7142167D01*
X14822999Y-7137000D01*
X14822999Y-7110000D01*
X14824027Y-7104833D01*
X14826953Y-7100453D01*
X14831333Y-7097527D01*
X14836500Y-7096499D01*
X14873500Y-7096499D01*
X14878667Y-7097527D01*
G37*
G36*
X13158932Y-7070179D02*
G01*
X13163961Y-7073539D01*
X13167321Y-7078568D01*
X13168501Y-7084500D01*
X13168501Y-7127000D01*
X13167321Y-7132932D01*
X13163961Y-7137961D01*
X13158932Y-7141321D01*
X13153000Y-7142501D01*
X13122000Y-7142501D01*
X13116068Y-7141321D01*
X13111039Y-7137961D01*
X13107679Y-7132932D01*
X13106499Y-7127000D01*
X13106499Y-7084500D01*
X13107679Y-7078568D01*
X13111039Y-7073539D01*
X13116068Y-7070179D01*
X13122000Y-7068999D01*
X13153000Y-7068999D01*
X13158932Y-7070179D01*
G37*
G36*
X14144858Y-7073065D02*
G01*
X14149400Y-7076100D01*
X14152435Y-7080642D01*
X14153501Y-7086000D01*
X14153501Y-7114000D01*
X14152435Y-7119358D01*
X14149400Y-7123900D01*
X14144858Y-7126935D01*
X14139500Y-7128001D01*
X14105500Y-7128001D01*
X14100142Y-7126935D01*
X14095600Y-7123900D01*
X14092565Y-7119358D01*
X14091499Y-7114000D01*
X14091499Y-7086000D01*
X14092565Y-7080642D01*
X14095600Y-7076100D01*
X14100142Y-7073065D01*
X14105500Y-7071999D01*
X14139500Y-7071999D01*
X14144858Y-7073065D01*
G37*
G36*
X13637358Y-7071065D02*
G01*
X13641900Y-7074100D01*
X13644935Y-7078642D01*
X13646001Y-7084000D01*
X13646001Y-7112000D01*
X13644935Y-7117358D01*
X13641900Y-7121900D01*
X13637358Y-7124935D01*
X13632000Y-7126001D01*
X13598000Y-7126001D01*
X13592642Y-7124935D01*
X13588100Y-7121900D01*
X13585065Y-7117358D01*
X13583999Y-7112000D01*
X13583999Y-7084000D01*
X13585065Y-7078642D01*
X13588100Y-7074100D01*
X13592642Y-7071065D01*
X13598000Y-7069999D01*
X13632000Y-7069999D01*
X13637358Y-7071065D01*
G37*
G36*
X13473611Y-6979212D02*
G01*
X13480911Y-6984089D01*
X13485788Y-6991389D01*
X13487501Y-7000000D01*
X13487501Y-7045000D01*
X13485788Y-7053611D01*
X13480911Y-7060911D01*
X13473611Y-7065788D01*
X13465000Y-7067501D01*
X13415000Y-7067501D01*
X13406389Y-7065788D01*
X13399089Y-7060911D01*
X13394212Y-7053611D01*
X13392499Y-7045000D01*
X13392499Y-7000000D01*
X13394212Y-6991389D01*
X13399089Y-6984089D01*
X13406389Y-6979212D01*
X13415000Y-6977499D01*
X13465000Y-6977499D01*
X13473611Y-6979212D01*
G37*
G36*
X15603611Y-6964212D02*
G01*
X15610911Y-6969089D01*
X15615788Y-6976389D01*
X15617501Y-6985000D01*
X15617501Y-7030000D01*
X15615788Y-7038611D01*
X15610911Y-7045911D01*
X15603611Y-7050788D01*
X15595000Y-7052501D01*
X15545000Y-7052501D01*
X15536389Y-7050788D01*
X15529089Y-7045911D01*
X15524212Y-7038611D01*
X15522499Y-7030000D01*
X15522499Y-6985000D01*
X15524212Y-6976389D01*
X15529089Y-6969089D01*
X15536389Y-6964212D01*
X15545000Y-6962499D01*
X15595000Y-6962499D01*
X15603611Y-6964212D01*
G37*
G36*
X14878667Y-6995527D02*
G01*
X14883047Y-6998453D01*
X14885973Y-7002833D01*
X14887001Y-7008000D01*
X14887001Y-7035000D01*
X14885973Y-7040167D01*
X14883047Y-7044547D01*
X14878667Y-7047473D01*
X14873500Y-7048501D01*
X14836500Y-7048501D01*
X14831333Y-7047473D01*
X14826953Y-7044547D01*
X14824027Y-7040167D01*
X14822999Y-7035000D01*
X14822999Y-7008000D01*
X14824027Y-7002833D01*
X14826953Y-6998453D01*
X14831333Y-6995527D01*
X14836500Y-6994499D01*
X14873500Y-6994499D01*
X14878667Y-6995527D01*
G37*
G36*
X15391432Y-6967679D02*
G01*
X15396461Y-6971039D01*
X15399821Y-6976068D01*
X15401001Y-6982000D01*
X15401001Y-7024500D01*
X15399821Y-7030432D01*
X15396461Y-7035461D01*
X15391432Y-7038821D01*
X15385500Y-7040001D01*
X15354500Y-7040001D01*
X15348568Y-7038821D01*
X15343539Y-7035461D01*
X15340179Y-7030432D01*
X15338999Y-7024500D01*
X15338999Y-6982000D01*
X15340179Y-6976068D01*
X15343539Y-6971039D01*
X15348568Y-6967679D01*
X15354500Y-6966499D01*
X15385500Y-6966499D01*
X15391432Y-6967679D01*
G37*
G36*
X14144858Y-6977065D02*
G01*
X14149400Y-6980100D01*
X14152435Y-6984642D01*
X14153501Y-6990000D01*
X14153501Y-7018000D01*
X14152435Y-7023358D01*
X14149400Y-7027900D01*
X14144858Y-7030935D01*
X14139500Y-7032001D01*
X14105500Y-7032001D01*
X14100142Y-7030935D01*
X14095600Y-7027900D01*
X14092565Y-7023358D01*
X14091499Y-7018000D01*
X14091499Y-6990000D01*
X14092565Y-6984642D01*
X14095600Y-6980100D01*
X14100142Y-6977065D01*
X14105500Y-6975999D01*
X14139500Y-6975999D01*
X14144858Y-6977065D01*
G37*
G36*
X13637358Y-6975065D02*
G01*
X13641900Y-6978100D01*
X13644935Y-6982642D01*
X13646001Y-6988000D01*
X13646001Y-7016000D01*
X13644935Y-7021358D01*
X13641900Y-7025900D01*
X13637358Y-7028935D01*
X13632000Y-7030001D01*
X13598000Y-7030001D01*
X13592642Y-7028935D01*
X13588100Y-7025900D01*
X13585065Y-7021358D01*
X13583999Y-7016000D01*
X13583999Y-6988000D01*
X13585065Y-6982642D01*
X13588100Y-6978100D01*
X13592642Y-6975065D01*
X13598000Y-6973999D01*
X13632000Y-6973999D01*
X13637358Y-6975065D01*
G37*
G36*
X14321111Y-6921712D02*
G01*
X14328411Y-6926589D01*
X14333288Y-6933889D01*
X14335001Y-6942500D01*
X14335001Y-6987500D01*
X14333288Y-6996111D01*
X14328411Y-7003411D01*
X14321111Y-7008288D01*
X14312500Y-7010001D01*
X14262500Y-7010001D01*
X14253889Y-7008288D01*
X14246589Y-7003411D01*
X14241712Y-6996111D01*
X14239999Y-6987500D01*
X14239999Y-6942500D01*
X14241712Y-6933889D01*
X14246589Y-6926589D01*
X14253889Y-6921712D01*
X14262500Y-6919999D01*
X14312500Y-6919999D01*
X14321111Y-6921712D01*
G37*
G36*
X15027500Y-6774999D02*
G01*
X15027501Y-6774999D01*
X15027501Y-6775000D01*
X15027501Y-6775000D01*
X15027501Y-6920000D01*
X15027501Y-6920000D01*
X15027501Y-6920001D01*
X15027500Y-6920001D01*
X15027500Y-6920001D01*
X14997500Y-6920001D01*
X14997500Y-6920001D01*
X14997499Y-6920001D01*
X14997499Y-6920000D01*
X14997499Y-6920000D01*
X14997499Y-6775000D01*
X14997499Y-6775000D01*
X14997499Y-6774999D01*
X14997500Y-6774999D01*
X14997500Y-6774999D01*
X15027500Y-6774999D01*
X15027500Y-6774999D01*
G37*
G36*
X15077500Y-6774999D02*
G01*
X15077501Y-6774999D01*
X15077501Y-6775000D01*
X15077501Y-6775000D01*
X15077501Y-6920000D01*
X15077501Y-6920000D01*
X15077501Y-6920001D01*
X15077500Y-6920001D01*
X15077500Y-6920001D01*
X15047500Y-6920001D01*
X15047500Y-6920001D01*
X15047499Y-6920001D01*
X15047499Y-6920000D01*
X15047499Y-6920000D01*
X15047499Y-6775000D01*
X15047499Y-6775000D01*
X15047499Y-6774999D01*
X15047500Y-6774999D01*
X15047500Y-6774999D01*
X15077500Y-6774999D01*
X15077500Y-6774999D01*
G37*
G36*
X15127500Y-6774999D02*
G01*
X15127501Y-6774999D01*
X15127501Y-6775000D01*
X15127501Y-6775000D01*
X15127501Y-6920000D01*
X15127501Y-6920000D01*
X15127501Y-6920001D01*
X15127500Y-6920001D01*
X15127500Y-6920001D01*
X15097500Y-6920001D01*
X15097500Y-6920001D01*
X15097499Y-6920001D01*
X15097499Y-6920000D01*
X15097499Y-6920000D01*
X15097499Y-6775000D01*
X15097499Y-6775000D01*
X15097499Y-6774999D01*
X15097500Y-6774999D01*
X15097500Y-6774999D01*
X15127500Y-6774999D01*
X15127500Y-6774999D01*
G37*
G36*
X15177500Y-6774999D02*
G01*
X15177501Y-6774999D01*
X15177501Y-6775000D01*
X15177501Y-6775000D01*
X15177501Y-6920000D01*
X15177501Y-6920000D01*
X15177501Y-6920001D01*
X15177500Y-6920001D01*
X15177500Y-6920001D01*
X15147500Y-6920001D01*
X15147500Y-6920001D01*
X15147499Y-6920001D01*
X15147499Y-6920000D01*
X15147499Y-6920000D01*
X15147499Y-6775000D01*
X15147499Y-6775000D01*
X15147499Y-6774999D01*
X15147500Y-6774999D01*
X15147500Y-6774999D01*
X15177500Y-6774999D01*
X15177500Y-6774999D01*
G37*
G36*
X15227500Y-6774999D02*
G01*
X15227501Y-6774999D01*
X15227501Y-6775000D01*
X15227501Y-6775000D01*
X15227501Y-6920000D01*
X15227501Y-6920000D01*
X15227501Y-6920001D01*
X15227500Y-6920001D01*
X15227500Y-6920001D01*
X15197500Y-6920001D01*
X15197500Y-6920001D01*
X15197499Y-6920001D01*
X15197499Y-6920000D01*
X15197499Y-6920000D01*
X15197499Y-6775000D01*
X15197499Y-6775000D01*
X15197499Y-6774999D01*
X15197500Y-6774999D01*
X15197500Y-6774999D01*
X15227500Y-6774999D01*
X15227500Y-6774999D01*
G37*
G36*
X13782500Y-6772499D02*
G01*
X13782501Y-6772499D01*
X13782501Y-6772500D01*
X13782501Y-6772500D01*
X13782501Y-6917500D01*
X13782501Y-6917500D01*
X13782501Y-6917501D01*
X13782500Y-6917501D01*
X13782500Y-6917501D01*
X13752500Y-6917501D01*
X13752500Y-6917501D01*
X13752499Y-6917501D01*
X13752499Y-6917500D01*
X13752499Y-6917500D01*
X13752499Y-6772500D01*
X13752499Y-6772500D01*
X13752499Y-6772499D01*
X13752500Y-6772499D01*
X13752500Y-6772499D01*
X13782500Y-6772499D01*
X13782500Y-6772499D01*
G37*
G36*
X13832500Y-6772499D02*
G01*
X13832501Y-6772499D01*
X13832501Y-6772500D01*
X13832501Y-6772500D01*
X13832501Y-6917500D01*
X13832501Y-6917500D01*
X13832501Y-6917501D01*
X13832500Y-6917501D01*
X13832500Y-6917501D01*
X13802500Y-6917501D01*
X13802500Y-6917501D01*
X13802499Y-6917501D01*
X13802499Y-6917500D01*
X13802499Y-6917500D01*
X13802499Y-6772500D01*
X13802499Y-6772500D01*
X13802499Y-6772499D01*
X13802500Y-6772499D01*
X13802500Y-6772499D01*
X13832500Y-6772499D01*
X13832500Y-6772499D01*
G37*
G36*
X13882500Y-6772499D02*
G01*
X13882501Y-6772499D01*
X13882501Y-6772500D01*
X13882501Y-6772500D01*
X13882501Y-6917500D01*
X13882501Y-6917500D01*
X13882501Y-6917501D01*
X13882500Y-6917501D01*
X13882500Y-6917501D01*
X13852500Y-6917501D01*
X13852500Y-6917501D01*
X13852499Y-6917501D01*
X13852499Y-6917500D01*
X13852499Y-6917500D01*
X13852499Y-6772500D01*
X13852499Y-6772500D01*
X13852499Y-6772499D01*
X13852500Y-6772499D01*
X13852500Y-6772499D01*
X13882500Y-6772499D01*
X13882500Y-6772499D01*
G37*
G36*
X13932500Y-6772499D02*
G01*
X13932501Y-6772499D01*
X13932501Y-6772500D01*
X13932501Y-6772500D01*
X13932501Y-6917500D01*
X13932501Y-6917500D01*
X13932501Y-6917501D01*
X13932500Y-6917501D01*
X13932500Y-6917501D01*
X13902500Y-6917501D01*
X13902500Y-6917501D01*
X13902499Y-6917501D01*
X13902499Y-6917500D01*
X13902499Y-6917500D01*
X13902499Y-6772500D01*
X13902499Y-6772500D01*
X13902499Y-6772499D01*
X13902500Y-6772499D01*
X13902500Y-6772499D01*
X13932500Y-6772499D01*
X13932500Y-6772499D01*
G37*
G36*
X13982500Y-6772499D02*
G01*
X13982501Y-6772499D01*
X13982501Y-6772500D01*
X13982501Y-6772500D01*
X13982501Y-6917500D01*
X13982501Y-6917500D01*
X13982501Y-6917501D01*
X13982500Y-6917501D01*
X13982500Y-6917501D01*
X13952500Y-6917501D01*
X13952500Y-6917501D01*
X13952499Y-6917501D01*
X13952499Y-6917500D01*
X13952499Y-6917500D01*
X13952499Y-6772500D01*
X13952499Y-6772500D01*
X13952499Y-6772499D01*
X13952500Y-6772499D01*
X13952500Y-6772499D01*
X13982500Y-6772499D01*
X13982500Y-6772499D01*
G37*
G36*
X14863932Y-6813679D02*
G01*
X14868961Y-6817039D01*
X14872321Y-6822068D01*
X14873501Y-6828000D01*
X14873501Y-6870500D01*
X14872321Y-6876432D01*
X14868961Y-6881461D01*
X14863932Y-6884821D01*
X14858000Y-6886001D01*
X14827000Y-6886001D01*
X14821068Y-6884821D01*
X14816039Y-6881461D01*
X14812679Y-6876432D01*
X14811499Y-6870500D01*
X14811499Y-6828000D01*
X14812679Y-6822068D01*
X14816039Y-6817039D01*
X14821068Y-6813679D01*
X14827000Y-6812499D01*
X14858000Y-6812499D01*
X14863932Y-6813679D01*
G37*
G36*
X14863932Y-6700179D02*
G01*
X14868961Y-6703539D01*
X14872321Y-6708568D01*
X14873501Y-6714500D01*
X14873501Y-6757000D01*
X14872321Y-6762932D01*
X14868961Y-6767961D01*
X14863932Y-6771321D01*
X14858000Y-6772501D01*
X14827000Y-6772501D01*
X14821068Y-6771321D01*
X14816039Y-6767961D01*
X14812679Y-6762932D01*
X14811499Y-6757000D01*
X14811499Y-6714500D01*
X14812679Y-6708568D01*
X14816039Y-6703539D01*
X14821068Y-6700179D01*
X14827000Y-6698999D01*
X14858000Y-6698999D01*
X14863932Y-6700179D01*
G37*
G36*
X13347667Y-6686527D02*
G01*
X13352047Y-6689453D01*
X13354973Y-6693833D01*
X13356001Y-6699000D01*
X13356001Y-6736000D01*
X13354973Y-6741167D01*
X13352047Y-6745547D01*
X13347667Y-6748473D01*
X13342500Y-6749501D01*
X13315500Y-6749501D01*
X13310333Y-6748473D01*
X13305953Y-6745547D01*
X13303027Y-6741167D01*
X13301999Y-6736000D01*
X13301999Y-6699000D01*
X13303027Y-6693833D01*
X13305953Y-6689453D01*
X13310333Y-6686527D01*
X13315500Y-6685499D01*
X13342500Y-6685499D01*
X13347667Y-6686527D01*
G37*
G36*
X13449667Y-6686527D02*
G01*
X13454047Y-6689453D01*
X13456973Y-6693833D01*
X13458001Y-6699000D01*
X13458001Y-6736000D01*
X13456973Y-6741167D01*
X13454047Y-6745547D01*
X13449667Y-6748473D01*
X13444500Y-6749501D01*
X13417500Y-6749501D01*
X13412333Y-6748473D01*
X13407953Y-6745547D01*
X13405027Y-6741167D01*
X13403999Y-6736000D01*
X13403999Y-6699000D01*
X13405027Y-6693833D01*
X13407953Y-6689453D01*
X13412333Y-6686527D01*
X13417500Y-6685499D01*
X13444500Y-6685499D01*
X13449667Y-6686527D01*
G37*
G36*
X12773682Y-6569179D02*
G01*
X12778711Y-6572539D01*
X12782071Y-6577568D01*
X12783251Y-6583500D01*
X12783251Y-6626000D01*
X12782071Y-6631932D01*
X12778711Y-6636961D01*
X12773682Y-6640321D01*
X12767750Y-6641501D01*
X12736750Y-6641501D01*
X12730818Y-6640321D01*
X12725789Y-6636961D01*
X12722429Y-6631932D01*
X12721249Y-6626000D01*
X12721249Y-6583500D01*
X12722429Y-6577568D01*
X12725789Y-6572539D01*
X12730818Y-6569179D01*
X12736750Y-6567999D01*
X12767750Y-6567999D01*
X12773682Y-6569179D01*
G37*
G36*
X12898682Y-6569179D02*
G01*
X12903711Y-6572539D01*
X12907071Y-6577568D01*
X12908251Y-6583500D01*
X12908251Y-6626000D01*
X12907071Y-6631932D01*
X12903711Y-6636961D01*
X12898682Y-6640321D01*
X12892750Y-6641501D01*
X12861750Y-6641501D01*
X12855818Y-6640321D01*
X12850789Y-6636961D01*
X12847429Y-6631932D01*
X12846249Y-6626000D01*
X12846249Y-6583500D01*
X12847429Y-6577568D01*
X12850789Y-6572539D01*
X12855818Y-6569179D01*
X12861750Y-6567999D01*
X12892750Y-6567999D01*
X12898682Y-6569179D01*
G37*
G36*
X13023682Y-6569179D02*
G01*
X13028711Y-6572539D01*
X13032071Y-6577568D01*
X13033251Y-6583500D01*
X13033251Y-6626000D01*
X13032071Y-6631932D01*
X13028711Y-6636961D01*
X13023682Y-6640321D01*
X13017750Y-6641501D01*
X12986750Y-6641501D01*
X12980818Y-6640321D01*
X12975789Y-6636961D01*
X12972429Y-6631932D01*
X12971249Y-6626000D01*
X12971249Y-6583500D01*
X12972429Y-6577568D01*
X12975789Y-6572539D01*
X12980818Y-6569179D01*
X12986750Y-6567999D01*
X13017750Y-6567999D01*
X13023682Y-6569179D01*
G37*
G36*
X14026167Y-6580027D02*
G01*
X14030547Y-6582953D01*
X14033473Y-6587333D01*
X14034501Y-6592500D01*
X14034501Y-6619500D01*
X14033473Y-6624667D01*
X14030547Y-6629047D01*
X14026167Y-6631973D01*
X14021000Y-6633001D01*
X13984000Y-6633001D01*
X13978833Y-6631973D01*
X13974453Y-6629047D01*
X13971527Y-6624667D01*
X13970499Y-6619500D01*
X13970499Y-6592500D01*
X13971527Y-6587333D01*
X13974453Y-6582953D01*
X13978833Y-6580027D01*
X13984000Y-6578999D01*
X14021000Y-6578999D01*
X14026167Y-6580027D01*
G37*
G36*
X14026167Y-6478027D02*
G01*
X14030547Y-6480953D01*
X14033473Y-6485333D01*
X14034501Y-6490500D01*
X14034501Y-6517500D01*
X14033473Y-6522667D01*
X14030547Y-6527047D01*
X14026167Y-6529973D01*
X14021000Y-6531001D01*
X13984000Y-6531001D01*
X13978833Y-6529973D01*
X13974453Y-6527047D01*
X13971527Y-6522667D01*
X13970499Y-6517500D01*
X13970499Y-6490500D01*
X13971527Y-6485333D01*
X13974453Y-6480953D01*
X13978833Y-6478027D01*
X13984000Y-6476999D01*
X14021000Y-6476999D01*
X14026167Y-6478027D01*
G37*
G36*
X12773682Y-6455679D02*
G01*
X12778711Y-6459039D01*
X12782071Y-6464068D01*
X12783251Y-6470000D01*
X12783251Y-6512500D01*
X12782071Y-6518432D01*
X12778711Y-6523461D01*
X12773682Y-6526821D01*
X12767750Y-6528001D01*
X12736750Y-6528001D01*
X12730818Y-6526821D01*
X12725789Y-6523461D01*
X12722429Y-6518432D01*
X12721249Y-6512500D01*
X12721249Y-6470000D01*
X12722429Y-6464068D01*
X12725789Y-6459039D01*
X12730818Y-6455679D01*
X12736750Y-6454499D01*
X12767750Y-6454499D01*
X12773682Y-6455679D01*
G37*
G36*
X12898682Y-6455679D02*
G01*
X12903711Y-6459039D01*
X12907071Y-6464068D01*
X12908251Y-6470000D01*
X12908251Y-6512500D01*
X12907071Y-6518432D01*
X12903711Y-6523461D01*
X12898682Y-6526821D01*
X12892750Y-6528001D01*
X12861750Y-6528001D01*
X12855818Y-6526821D01*
X12850789Y-6523461D01*
X12847429Y-6518432D01*
X12846249Y-6512500D01*
X12846249Y-6470000D01*
X12847429Y-6464068D01*
X12850789Y-6459039D01*
X12855818Y-6455679D01*
X12861750Y-6454499D01*
X12892750Y-6454499D01*
X12898682Y-6455679D01*
G37*
G36*
X13023682Y-6455679D02*
G01*
X13028711Y-6459039D01*
X13032071Y-6464068D01*
X13033251Y-6470000D01*
X13033251Y-6512500D01*
X13032071Y-6518432D01*
X13028711Y-6523461D01*
X13023682Y-6526821D01*
X13017750Y-6528001D01*
X12986750Y-6528001D01*
X12980818Y-6526821D01*
X12975789Y-6523461D01*
X12972429Y-6518432D01*
X12971249Y-6512500D01*
X12971249Y-6470000D01*
X12972429Y-6464068D01*
X12975789Y-6459039D01*
X12980818Y-6455679D01*
X12986750Y-6454499D01*
X13017750Y-6454499D01*
X13023682Y-6455679D01*
G37*
G36*
X13710432Y-6402679D02*
G01*
X13715461Y-6406039D01*
X13718821Y-6411068D01*
X13720001Y-6417000D01*
X13720001Y-6448000D01*
X13718821Y-6453932D01*
X13715461Y-6458961D01*
X13710432Y-6462321D01*
X13704500Y-6463501D01*
X13662000Y-6463501D01*
X13656068Y-6462321D01*
X13651039Y-6458961D01*
X13647679Y-6453932D01*
X13646499Y-6448000D01*
X13646499Y-6417000D01*
X13647679Y-6411068D01*
X13651039Y-6406039D01*
X13656068Y-6402679D01*
X13662000Y-6401499D01*
X13704500Y-6401499D01*
X13710432Y-6402679D01*
G37*
G36*
X13823932Y-6402679D02*
G01*
X13828961Y-6406039D01*
X13832321Y-6411068D01*
X13833501Y-6417000D01*
X13833501Y-6448000D01*
X13832321Y-6453932D01*
X13828961Y-6458961D01*
X13823932Y-6462321D01*
X13818000Y-6463501D01*
X13775500Y-6463501D01*
X13769568Y-6462321D01*
X13764539Y-6458961D01*
X13761179Y-6453932D01*
X13759999Y-6448000D01*
X13759999Y-6417000D01*
X13761179Y-6411068D01*
X13764539Y-6406039D01*
X13769568Y-6402679D01*
X13775500Y-6401499D01*
X13818000Y-6401499D01*
X13823932Y-6402679D01*
G37*
G36*
X12905395Y-6316622D02*
G01*
X12910180Y-6319819D01*
X12913378Y-6324605D01*
X12914501Y-6330250D01*
X12914501Y-6364750D01*
X12913378Y-6370395D01*
X12910180Y-6375180D01*
X12905395Y-6378378D01*
X12899750Y-6379501D01*
X12870250Y-6379501D01*
X12864605Y-6378378D01*
X12859819Y-6375180D01*
X12856622Y-6370395D01*
X12855499Y-6364750D01*
X12855499Y-6330250D01*
X12856622Y-6324605D01*
X12859819Y-6319819D01*
X12864605Y-6316622D01*
X12870250Y-6315499D01*
X12899750Y-6315499D01*
X12905395Y-6316622D01*
G37*
G36*
X13002395Y-6316622D02*
G01*
X13007180Y-6319819D01*
X13010378Y-6324605D01*
X13011501Y-6330250D01*
X13011501Y-6364750D01*
X13010378Y-6370395D01*
X13007180Y-6375180D01*
X13002395Y-6378378D01*
X12996750Y-6379501D01*
X12967250Y-6379501D01*
X12961605Y-6378378D01*
X12956819Y-6375180D01*
X12953622Y-6370395D01*
X12952499Y-6364750D01*
X12952499Y-6330250D01*
X12953622Y-6324605D01*
X12956819Y-6319819D01*
X12961605Y-6316622D01*
X12967250Y-6315499D01*
X12996750Y-6315499D01*
X13002395Y-6316622D01*
G37*
G36*
X13202870Y-6191820D02*
G01*
X13205304Y-6193446D01*
X13206930Y-6195879D01*
X13207501Y-6198750D01*
X13207501Y-6331250D01*
X13206930Y-6334120D01*
X13205304Y-6336554D01*
X13202870Y-6338180D01*
X13200000Y-6338751D01*
X13185000Y-6338751D01*
X13182129Y-6338180D01*
X13179696Y-6336554D01*
X13178070Y-6334120D01*
X13177499Y-6331250D01*
X13177499Y-6198750D01*
X13178070Y-6195879D01*
X13179696Y-6193446D01*
X13182129Y-6191820D01*
X13185000Y-6191249D01*
X13200000Y-6191249D01*
X13202870Y-6191820D01*
G37*
G36*
X13252870Y-6191820D02*
G01*
X13255304Y-6193446D01*
X13256930Y-6195879D01*
X13257501Y-6198750D01*
X13257501Y-6331250D01*
X13256930Y-6334120D01*
X13255304Y-6336554D01*
X13252870Y-6338180D01*
X13250000Y-6338751D01*
X13235000Y-6338751D01*
X13232129Y-6338180D01*
X13229696Y-6336554D01*
X13228070Y-6334120D01*
X13227499Y-6331250D01*
X13227499Y-6198750D01*
X13228070Y-6195879D01*
X13229696Y-6193446D01*
X13232129Y-6191820D01*
X13235000Y-6191249D01*
X13250000Y-6191249D01*
X13252870Y-6191820D01*
G37*
G36*
X13302870Y-6191820D02*
G01*
X13305304Y-6193446D01*
X13306930Y-6195879D01*
X13307501Y-6198750D01*
X13307501Y-6331250D01*
X13306930Y-6334120D01*
X13305304Y-6336554D01*
X13302870Y-6338180D01*
X13300000Y-6338751D01*
X13285000Y-6338751D01*
X13282129Y-6338180D01*
X13279696Y-6336554D01*
X13278070Y-6334120D01*
X13277499Y-6331250D01*
X13277499Y-6198750D01*
X13278070Y-6195879D01*
X13279696Y-6193446D01*
X13282129Y-6191820D01*
X13285000Y-6191249D01*
X13300000Y-6191249D01*
X13302870Y-6191820D01*
G37*
G36*
X13352870Y-6191820D02*
G01*
X13355304Y-6193446D01*
X13356930Y-6195879D01*
X13357501Y-6198750D01*
X13357501Y-6331250D01*
X13356930Y-6334120D01*
X13355304Y-6336554D01*
X13352870Y-6338180D01*
X13350000Y-6338751D01*
X13335000Y-6338751D01*
X13332129Y-6338180D01*
X13329696Y-6336554D01*
X13328070Y-6334120D01*
X13327499Y-6331250D01*
X13327499Y-6198750D01*
X13328070Y-6195879D01*
X13329696Y-6193446D01*
X13332129Y-6191820D01*
X13335000Y-6191249D01*
X13350000Y-6191249D01*
X13352870Y-6191820D01*
G37*
G36*
X13402870Y-6191820D02*
G01*
X13405304Y-6193446D01*
X13406930Y-6195879D01*
X13407501Y-6198750D01*
X13407501Y-6331250D01*
X13406930Y-6334120D01*
X13405304Y-6336554D01*
X13402870Y-6338180D01*
X13400000Y-6338751D01*
X13385000Y-6338751D01*
X13382129Y-6338180D01*
X13379696Y-6336554D01*
X13378070Y-6334120D01*
X13377499Y-6331250D01*
X13377499Y-6198750D01*
X13378070Y-6195879D01*
X13379696Y-6193446D01*
X13382129Y-6191820D01*
X13385000Y-6191249D01*
X13400000Y-6191249D01*
X13402870Y-6191820D01*
G37*
G36*
X13452870Y-6191820D02*
G01*
X13455304Y-6193446D01*
X13456930Y-6195879D01*
X13457501Y-6198750D01*
X13457501Y-6331250D01*
X13456930Y-6334120D01*
X13455304Y-6336554D01*
X13452870Y-6338180D01*
X13450000Y-6338751D01*
X13435000Y-6338751D01*
X13432129Y-6338180D01*
X13429696Y-6336554D01*
X13428070Y-6334120D01*
X13427499Y-6331250D01*
X13427499Y-6198750D01*
X13428070Y-6195879D01*
X13429696Y-6193446D01*
X13432129Y-6191820D01*
X13435000Y-6191249D01*
X13450000Y-6191249D01*
X13452870Y-6191820D01*
G37*
G36*
X13502870Y-6191820D02*
G01*
X13505304Y-6193446D01*
X13506930Y-6195879D01*
X13507501Y-6198750D01*
X13507501Y-6331250D01*
X13506930Y-6334120D01*
X13505304Y-6336554D01*
X13502870Y-6338180D01*
X13500000Y-6338751D01*
X13485000Y-6338751D01*
X13482129Y-6338180D01*
X13479696Y-6336554D01*
X13478070Y-6334120D01*
X13477499Y-6331250D01*
X13477499Y-6198750D01*
X13478070Y-6195879D01*
X13479696Y-6193446D01*
X13482129Y-6191820D01*
X13485000Y-6191249D01*
X13500000Y-6191249D01*
X13502870Y-6191820D01*
G37*
G36*
X13552870Y-6191820D02*
G01*
X13555304Y-6193446D01*
X13556930Y-6195879D01*
X13557501Y-6198750D01*
X13557501Y-6331250D01*
X13556930Y-6334120D01*
X13555304Y-6336554D01*
X13552870Y-6338180D01*
X13550000Y-6338751D01*
X13535000Y-6338751D01*
X13532129Y-6338180D01*
X13529696Y-6336554D01*
X13528070Y-6334120D01*
X13527499Y-6331250D01*
X13527499Y-6198750D01*
X13528070Y-6195879D01*
X13529696Y-6193446D01*
X13532129Y-6191820D01*
X13535000Y-6191249D01*
X13550000Y-6191249D01*
X13552870Y-6191820D01*
G37*
G36*
X13602870Y-6191820D02*
G01*
X13605304Y-6193446D01*
X13606930Y-6195879D01*
X13607501Y-6198750D01*
X13607501Y-6331250D01*
X13606930Y-6334120D01*
X13605304Y-6336554D01*
X13602870Y-6338180D01*
X13600000Y-6338751D01*
X13585000Y-6338751D01*
X13582129Y-6338180D01*
X13579696Y-6336554D01*
X13578070Y-6334120D01*
X13577499Y-6331250D01*
X13577499Y-6198750D01*
X13578070Y-6195879D01*
X13579696Y-6193446D01*
X13582129Y-6191820D01*
X13585000Y-6191249D01*
X13600000Y-6191249D01*
X13602870Y-6191820D01*
G37*
G36*
X13652870Y-6191820D02*
G01*
X13655304Y-6193446D01*
X13656930Y-6195879D01*
X13657501Y-6198750D01*
X13657501Y-6331250D01*
X13656930Y-6334120D01*
X13655304Y-6336554D01*
X13652870Y-6338180D01*
X13650000Y-6338751D01*
X13635000Y-6338751D01*
X13632129Y-6338180D01*
X13629696Y-6336554D01*
X13628070Y-6334120D01*
X13627499Y-6331250D01*
X13627499Y-6198750D01*
X13628070Y-6195879D01*
X13629696Y-6193446D01*
X13632129Y-6191820D01*
X13635000Y-6191249D01*
X13650000Y-6191249D01*
X13652870Y-6191820D01*
G37*
G36*
X13702870Y-6191820D02*
G01*
X13705304Y-6193446D01*
X13706930Y-6195879D01*
X13707501Y-6198750D01*
X13707501Y-6331250D01*
X13706930Y-6334120D01*
X13705304Y-6336554D01*
X13702870Y-6338180D01*
X13700000Y-6338751D01*
X13685000Y-6338751D01*
X13682129Y-6338180D01*
X13679696Y-6336554D01*
X13678070Y-6334120D01*
X13677499Y-6331250D01*
X13677499Y-6198750D01*
X13678070Y-6195879D01*
X13679696Y-6193446D01*
X13682129Y-6191820D01*
X13685000Y-6191249D01*
X13700000Y-6191249D01*
X13702870Y-6191820D01*
G37*
G36*
X13752870Y-6191820D02*
G01*
X13755304Y-6193446D01*
X13756930Y-6195879D01*
X13757501Y-6198750D01*
X13757501Y-6331250D01*
X13756930Y-6334120D01*
X13755304Y-6336554D01*
X13752870Y-6338180D01*
X13750000Y-6338751D01*
X13735000Y-6338751D01*
X13732129Y-6338180D01*
X13729696Y-6336554D01*
X13728070Y-6334120D01*
X13727499Y-6331250D01*
X13727499Y-6198750D01*
X13728070Y-6195879D01*
X13729696Y-6193446D01*
X13732129Y-6191820D01*
X13735000Y-6191249D01*
X13750000Y-6191249D01*
X13752870Y-6191820D01*
G37*
G36*
X12494358Y-6267565D02*
G01*
X12498900Y-6270600D01*
X12501935Y-6275142D01*
X12503001Y-6280500D01*
X12503001Y-6314500D01*
X12501935Y-6319858D01*
X12498900Y-6324400D01*
X12494358Y-6327435D01*
X12489000Y-6328501D01*
X12461000Y-6328501D01*
X12455642Y-6327435D01*
X12451100Y-6324400D01*
X12448065Y-6319858D01*
X12446999Y-6314500D01*
X12446999Y-6280500D01*
X12448065Y-6275142D01*
X12451100Y-6270600D01*
X12455642Y-6267565D01*
X12461000Y-6266499D01*
X12489000Y-6266499D01*
X12494358Y-6267565D01*
G37*
G36*
X12590358Y-6267565D02*
G01*
X12594900Y-6270600D01*
X12597935Y-6275142D01*
X12599001Y-6280500D01*
X12599001Y-6314500D01*
X12597935Y-6319858D01*
X12594900Y-6324400D01*
X12590358Y-6327435D01*
X12585000Y-6328501D01*
X12557000Y-6328501D01*
X12551642Y-6327435D01*
X12547100Y-6324400D01*
X12544065Y-6319858D01*
X12542999Y-6314500D01*
X12542999Y-6280500D01*
X12544065Y-6275142D01*
X12547100Y-6270600D01*
X12551642Y-6267565D01*
X12557000Y-6266499D01*
X12585000Y-6266499D01*
X12590358Y-6267565D01*
G37*
G36*
X15291432Y-6206179D02*
G01*
X15296461Y-6209539D01*
X15299821Y-6214568D01*
X15301001Y-6220500D01*
X15301001Y-6263000D01*
X15299821Y-6268932D01*
X15296461Y-6273961D01*
X15291432Y-6277321D01*
X15285500Y-6278501D01*
X15254500Y-6278501D01*
X15248568Y-6277321D01*
X15243539Y-6273961D01*
X15240179Y-6268932D01*
X15238999Y-6263000D01*
X15238999Y-6220500D01*
X15240179Y-6214568D01*
X15243539Y-6209539D01*
X15248568Y-6206179D01*
X15254500Y-6204999D01*
X15285500Y-6204999D01*
X15291432Y-6206179D01*
G37*
G36*
X15659255Y-6157960D02*
G01*
X15677279Y-6165426D01*
X15691074Y-6179221D01*
X15698540Y-6197245D01*
X15698540Y-6216755D01*
X15691074Y-6234779D01*
X15677279Y-6248574D01*
X15659255Y-6256040D01*
X15649500Y-6257001D01*
X15649255Y-6257001D01*
X15539745Y-6257001D01*
X15539500Y-6257001D01*
X15529745Y-6256040D01*
X15511721Y-6248574D01*
X15497926Y-6234779D01*
X15490460Y-6216755D01*
X15490460Y-6197245D01*
X15497926Y-6179221D01*
X15511721Y-6165426D01*
X15529745Y-6157960D01*
X15539500Y-6156999D01*
X15649500Y-6156999D01*
X15659255Y-6157960D01*
G37*
G36*
X16052255Y-6157960D02*
G01*
X16070279Y-6165426D01*
X16084074Y-6179221D01*
X16091540Y-6197245D01*
X16091540Y-6216755D01*
X16084074Y-6234779D01*
X16070279Y-6248574D01*
X16052255Y-6256040D01*
X16042500Y-6257001D01*
X16042255Y-6257001D01*
X15982745Y-6257001D01*
X15982500Y-6257001D01*
X15972745Y-6256040D01*
X15954721Y-6248574D01*
X15940926Y-6234779D01*
X15933460Y-6216755D01*
X15933460Y-6197245D01*
X15940926Y-6179221D01*
X15954721Y-6165426D01*
X15972745Y-6157960D01*
X15982500Y-6156999D01*
X16042500Y-6156999D01*
X16052255Y-6157960D01*
G37*
G36*
X12768667Y-6202527D02*
G01*
X12773047Y-6205453D01*
X12775973Y-6209833D01*
X12777001Y-6215000D01*
X12777001Y-6242000D01*
X12775973Y-6247167D01*
X12773047Y-6251547D01*
X12768667Y-6254473D01*
X12763500Y-6255501D01*
X12726500Y-6255501D01*
X12721333Y-6254473D01*
X12716953Y-6251547D01*
X12714027Y-6247167D01*
X12712999Y-6242000D01*
X12712999Y-6215000D01*
X12714027Y-6209833D01*
X12716953Y-6205453D01*
X12721333Y-6202527D01*
X12726500Y-6201499D01*
X12763500Y-6201499D01*
X12768667Y-6202527D01*
G37*
G36*
X12460000Y-6052499D02*
G01*
X12460001Y-6052499D01*
X12460001Y-6052500D01*
X12460001Y-6052500D01*
X12460001Y-6192500D01*
X12460001Y-6192500D01*
X12460001Y-6192501D01*
X12460000Y-6192501D01*
X12460000Y-6192501D01*
X12340000Y-6192501D01*
X12340000Y-6192501D01*
X12339999Y-6192501D01*
X12339999Y-6192500D01*
X12339999Y-6192500D01*
X12339999Y-6052500D01*
X12339999Y-6052500D01*
X12339999Y-6052499D01*
X12340000Y-6052499D01*
X12340000Y-6052499D01*
X12460000Y-6052499D01*
X12460000Y-6052499D01*
G37*
G36*
X12630000Y-6052499D02*
G01*
X12630001Y-6052499D01*
X12630001Y-6052500D01*
X12630001Y-6052500D01*
X12630001Y-6192500D01*
X12630001Y-6192500D01*
X12630001Y-6192501D01*
X12630000Y-6192501D01*
X12630000Y-6192501D01*
X12510000Y-6192501D01*
X12510000Y-6192501D01*
X12509999Y-6192501D01*
X12509999Y-6192500D01*
X12509999Y-6192500D01*
X12509999Y-6052500D01*
X12509999Y-6052500D01*
X12509999Y-6052499D01*
X12510000Y-6052499D01*
X12510000Y-6052499D01*
X12630000Y-6052499D01*
X12630000Y-6052499D01*
G37*
G36*
X15291432Y-6092679D02*
G01*
X15296461Y-6096039D01*
X15299821Y-6101068D01*
X15301001Y-6107000D01*
X15301001Y-6149500D01*
X15299821Y-6155432D01*
X15296461Y-6160461D01*
X15291432Y-6163821D01*
X15285500Y-6165001D01*
X15254500Y-6165001D01*
X15248568Y-6163821D01*
X15243539Y-6160461D01*
X15240179Y-6155432D01*
X15238999Y-6149500D01*
X15238999Y-6107000D01*
X15240179Y-6101068D01*
X15243539Y-6096039D01*
X15248568Y-6092679D01*
X15254500Y-6091499D01*
X15285500Y-6091499D01*
X15291432Y-6092679D01*
G37*
G36*
X12768667Y-6100527D02*
G01*
X12773047Y-6103453D01*
X12775973Y-6107833D01*
X12777001Y-6113000D01*
X12777001Y-6140000D01*
X12775973Y-6145167D01*
X12773047Y-6149547D01*
X12768667Y-6152473D01*
X12763500Y-6153501D01*
X12726500Y-6153501D01*
X12721333Y-6152473D01*
X12716953Y-6149547D01*
X12714027Y-6145167D01*
X12712999Y-6140000D01*
X12712999Y-6113000D01*
X12714027Y-6107833D01*
X12716953Y-6103453D01*
X12721333Y-6100527D01*
X12726500Y-6099499D01*
X12763500Y-6099499D01*
X12768667Y-6100527D01*
G37*
G36*
X13120370Y-6109320D02*
G01*
X13122804Y-6110946D01*
X13124430Y-6113379D01*
X13125001Y-6116250D01*
X13125001Y-6131250D01*
X13124430Y-6134120D01*
X13122804Y-6136554D01*
X13120370Y-6138180D01*
X13117500Y-6138751D01*
X12985000Y-6138751D01*
X12982129Y-6138180D01*
X12979696Y-6136554D01*
X12978070Y-6134120D01*
X12977499Y-6131250D01*
X12977499Y-6116250D01*
X12978070Y-6113379D01*
X12979696Y-6110946D01*
X12982129Y-6109320D01*
X12985000Y-6108749D01*
X13117500Y-6108749D01*
X13120370Y-6109320D01*
G37*
G36*
X13952870Y-6109320D02*
G01*
X13955304Y-6110946D01*
X13956930Y-6113379D01*
X13957501Y-6116250D01*
X13957501Y-6131250D01*
X13956930Y-6134120D01*
X13955304Y-6136554D01*
X13952870Y-6138180D01*
X13950000Y-6138751D01*
X13817500Y-6138751D01*
X13814629Y-6138180D01*
X13812196Y-6136554D01*
X13810570Y-6134120D01*
X13809999Y-6131250D01*
X13809999Y-6116250D01*
X13810570Y-6113379D01*
X13812196Y-6110946D01*
X13814629Y-6109320D01*
X13817500Y-6108749D01*
X13950000Y-6108749D01*
X13952870Y-6109320D01*
G37*
G36*
X15575500Y-6069999D02*
G01*
X15575501Y-6069999D01*
X15575501Y-6070000D01*
X15575501Y-6070000D01*
X15575501Y-6130000D01*
X15575501Y-6130000D01*
X15575501Y-6130001D01*
X15575500Y-6130001D01*
X15575500Y-6130001D01*
X15430500Y-6130001D01*
X15430500Y-6130001D01*
X15430499Y-6130001D01*
X15430499Y-6130000D01*
X15430499Y-6130000D01*
X15430499Y-6070000D01*
X15430499Y-6070000D01*
X15430499Y-6069999D01*
X15430500Y-6069999D01*
X15430500Y-6069999D01*
X15575500Y-6069999D01*
X15575500Y-6069999D01*
G37*
G36*
X14460167Y-6039027D02*
G01*
X14464547Y-6041953D01*
X14467473Y-6046333D01*
X14468501Y-6051500D01*
X14468501Y-6088500D01*
X14467473Y-6093667D01*
X14464547Y-6098047D01*
X14460167Y-6100973D01*
X14455000Y-6102001D01*
X14428000Y-6102001D01*
X14422833Y-6100973D01*
X14418453Y-6098047D01*
X14415527Y-6093667D01*
X14414499Y-6088500D01*
X14414499Y-6051500D01*
X14415527Y-6046333D01*
X14418453Y-6041953D01*
X14422833Y-6039027D01*
X14428000Y-6037999D01*
X14455000Y-6037999D01*
X14460167Y-6039027D01*
G37*
G36*
X14562167Y-6039027D02*
G01*
X14566547Y-6041953D01*
X14569473Y-6046333D01*
X14570501Y-6051500D01*
X14570501Y-6088500D01*
X14569473Y-6093667D01*
X14566547Y-6098047D01*
X14562167Y-6100973D01*
X14557000Y-6102001D01*
X14530000Y-6102001D01*
X14524833Y-6100973D01*
X14520453Y-6098047D01*
X14517527Y-6093667D01*
X14516499Y-6088500D01*
X14516499Y-6051500D01*
X14517527Y-6046333D01*
X14520453Y-6041953D01*
X14524833Y-6039027D01*
X14530000Y-6037999D01*
X14557000Y-6037999D01*
X14562167Y-6039027D01*
G37*
G36*
X15665557Y-6036976D02*
G01*
X15674524Y-6045943D01*
X15679376Y-6057659D01*
X15679376Y-6070341D01*
X15674524Y-6082057D01*
X15665557Y-6091024D01*
X15653841Y-6095876D01*
X15641159Y-6095876D01*
X15629443Y-6091024D01*
X15620476Y-6082057D01*
X15615623Y-6070341D01*
X15615623Y-6057659D01*
X15620476Y-6045943D01*
X15629443Y-6036976D01*
X15641159Y-6032123D01*
X15653841Y-6032123D01*
X15665557Y-6036976D01*
G37*
G36*
X13120370Y-6059320D02*
G01*
X13122804Y-6060946D01*
X13124430Y-6063379D01*
X13125001Y-6066250D01*
X13125001Y-6081250D01*
X13124430Y-6084120D01*
X13122804Y-6086554D01*
X13120370Y-6088180D01*
X13117500Y-6088751D01*
X12985000Y-6088751D01*
X12982129Y-6088180D01*
X12979696Y-6086554D01*
X12978070Y-6084120D01*
X12977499Y-6081250D01*
X12977499Y-6066250D01*
X12978070Y-6063379D01*
X12979696Y-6060946D01*
X12982129Y-6059320D01*
X12985000Y-6058749D01*
X13117500Y-6058749D01*
X13120370Y-6059320D01*
G37*
G36*
X13952870Y-6059320D02*
G01*
X13955304Y-6060946D01*
X13956930Y-6063379D01*
X13957501Y-6066250D01*
X13957501Y-6081250D01*
X13956930Y-6084120D01*
X13955304Y-6086554D01*
X13952870Y-6088180D01*
X13950000Y-6088751D01*
X13817500Y-6088751D01*
X13814629Y-6088180D01*
X13812196Y-6086554D01*
X13810570Y-6084120D01*
X13809999Y-6081250D01*
X13809999Y-6066250D01*
X13810570Y-6063379D01*
X13812196Y-6060946D01*
X13814629Y-6059320D01*
X13817500Y-6058749D01*
X13950000Y-6058749D01*
X13952870Y-6059320D01*
G37*
G36*
X15575500Y-5989999D02*
G01*
X15575501Y-5989999D01*
X15575501Y-5990000D01*
X15575501Y-5990000D01*
X15575501Y-6050000D01*
X15575501Y-6050000D01*
X15575501Y-6050001D01*
X15575500Y-6050001D01*
X15575500Y-6050001D01*
X15430500Y-6050001D01*
X15430500Y-6050001D01*
X15430499Y-6050001D01*
X15430499Y-6050000D01*
X15430499Y-6050000D01*
X15430499Y-5990000D01*
X15430499Y-5990000D01*
X15430499Y-5989999D01*
X15430500Y-5989999D01*
X15430500Y-5989999D01*
X15575500Y-5989999D01*
X15575500Y-5989999D01*
G37*
G36*
X13120370Y-6009320D02*
G01*
X13122804Y-6010946D01*
X13124430Y-6013379D01*
X13125001Y-6016250D01*
X13125001Y-6031250D01*
X13124430Y-6034120D01*
X13122804Y-6036554D01*
X13120370Y-6038180D01*
X13117500Y-6038751D01*
X12985000Y-6038751D01*
X12982129Y-6038180D01*
X12979696Y-6036554D01*
X12978070Y-6034120D01*
X12977499Y-6031250D01*
X12977499Y-6016250D01*
X12978070Y-6013379D01*
X12979696Y-6010946D01*
X12982129Y-6009320D01*
X12985000Y-6008749D01*
X13117500Y-6008749D01*
X13120370Y-6009320D01*
G37*
G36*
X13952870Y-6009320D02*
G01*
X13955304Y-6010946D01*
X13956930Y-6013379D01*
X13957501Y-6016250D01*
X13957501Y-6031250D01*
X13956930Y-6034120D01*
X13955304Y-6036554D01*
X13952870Y-6038180D01*
X13950000Y-6038751D01*
X13817500Y-6038751D01*
X13814629Y-6038180D01*
X13812196Y-6036554D01*
X13810570Y-6034120D01*
X13809999Y-6031250D01*
X13809999Y-6016250D01*
X13810570Y-6013379D01*
X13812196Y-6010946D01*
X13814629Y-6009320D01*
X13817500Y-6008749D01*
X13950000Y-6008749D01*
X13952870Y-6009320D01*
G37*
G36*
X15117667Y-5966527D02*
G01*
X15122047Y-5969453D01*
X15124973Y-5973833D01*
X15126001Y-5979000D01*
X15126001Y-6016000D01*
X15124973Y-6021167D01*
X15122047Y-6025547D01*
X15117667Y-6028473D01*
X15112500Y-6029501D01*
X15085500Y-6029501D01*
X15080333Y-6028473D01*
X15075953Y-6025547D01*
X15073027Y-6021167D01*
X15071999Y-6016000D01*
X15071999Y-5979000D01*
X15073027Y-5973833D01*
X15075953Y-5969453D01*
X15080333Y-5966527D01*
X15085500Y-5965499D01*
X15112500Y-5965499D01*
X15117667Y-5966527D01*
G37*
G36*
X15219667Y-5966527D02*
G01*
X15224047Y-5969453D01*
X15226973Y-5973833D01*
X15228001Y-5979000D01*
X15228001Y-6016000D01*
X15226973Y-6021167D01*
X15224047Y-6025547D01*
X15219667Y-6028473D01*
X15214500Y-6029501D01*
X15187500Y-6029501D01*
X15182333Y-6028473D01*
X15177953Y-6025547D01*
X15175027Y-6021167D01*
X15173999Y-6016000D01*
X15173999Y-5979000D01*
X15175027Y-5973833D01*
X15177953Y-5969453D01*
X15182333Y-5966527D01*
X15187500Y-5965499D01*
X15214500Y-5965499D01*
X15219667Y-5966527D01*
G37*
G36*
X14371167Y-5947527D02*
G01*
X14375547Y-5950453D01*
X14378473Y-5954833D01*
X14379501Y-5960000D01*
X14379501Y-5987000D01*
X14378473Y-5992167D01*
X14375547Y-5996547D01*
X14371167Y-5999473D01*
X14366000Y-6000501D01*
X14329000Y-6000501D01*
X14323833Y-5999473D01*
X14319453Y-5996547D01*
X14316527Y-5992167D01*
X14315499Y-5987000D01*
X14315499Y-5960000D01*
X14316527Y-5954833D01*
X14319453Y-5950453D01*
X14323833Y-5947527D01*
X14329000Y-5946499D01*
X14366000Y-5946499D01*
X14371167Y-5947527D01*
G37*
G36*
X13120370Y-5959320D02*
G01*
X13122804Y-5960946D01*
X13124430Y-5963379D01*
X13125001Y-5966250D01*
X13125001Y-5981250D01*
X13124430Y-5984120D01*
X13122804Y-5986554D01*
X13120370Y-5988180D01*
X13117500Y-5988751D01*
X12985000Y-5988751D01*
X12982129Y-5988180D01*
X12979696Y-5986554D01*
X12978070Y-5984120D01*
X12977499Y-5981250D01*
X12977499Y-5966250D01*
X12978070Y-5963379D01*
X12979696Y-5960946D01*
X12982129Y-5959320D01*
X12985000Y-5958749D01*
X13117500Y-5958749D01*
X13120370Y-5959320D01*
G37*
G36*
X13952870Y-5959320D02*
G01*
X13955304Y-5960946D01*
X13956930Y-5963379D01*
X13957501Y-5966250D01*
X13957501Y-5981250D01*
X13956930Y-5984120D01*
X13955304Y-5986554D01*
X13952870Y-5988180D01*
X13950000Y-5988751D01*
X13817500Y-5988751D01*
X13814629Y-5988180D01*
X13812196Y-5986554D01*
X13810570Y-5984120D01*
X13809999Y-5981250D01*
X13809999Y-5966250D01*
X13810570Y-5963379D01*
X13812196Y-5960946D01*
X13814629Y-5959320D01*
X13817500Y-5958749D01*
X13950000Y-5958749D01*
X13952870Y-5959320D01*
G37*
G36*
X12460000Y-5832499D02*
G01*
X12460001Y-5832499D01*
X12460001Y-5832500D01*
X12460001Y-5832500D01*
X12460001Y-5972500D01*
X12460001Y-5972500D01*
X12460001Y-5972501D01*
X12460000Y-5972501D01*
X12460000Y-5972501D01*
X12340000Y-5972501D01*
X12340000Y-5972501D01*
X12339999Y-5972501D01*
X12339999Y-5972500D01*
X12339999Y-5972500D01*
X12339999Y-5832500D01*
X12339999Y-5832500D01*
X12339999Y-5832499D01*
X12340000Y-5832499D01*
X12340000Y-5832499D01*
X12460000Y-5832499D01*
X12460000Y-5832499D01*
G37*
G36*
X12630000Y-5832499D02*
G01*
X12630001Y-5832499D01*
X12630001Y-5832500D01*
X12630001Y-5832500D01*
X12630001Y-5972500D01*
X12630001Y-5972500D01*
X12630001Y-5972501D01*
X12630000Y-5972501D01*
X12630000Y-5972501D01*
X12510000Y-5972501D01*
X12510000Y-5972501D01*
X12509999Y-5972501D01*
X12509999Y-5972500D01*
X12509999Y-5972500D01*
X12509999Y-5832500D01*
X12509999Y-5832500D01*
X12509999Y-5832499D01*
X12510000Y-5832499D01*
X12510000Y-5832499D01*
X12630000Y-5832499D01*
X12630000Y-5832499D01*
G37*
G36*
X15575500Y-5934999D02*
G01*
X15575501Y-5934999D01*
X15575501Y-5935000D01*
X15575501Y-5935000D01*
X15575501Y-5965000D01*
X15575501Y-5965000D01*
X15575501Y-5965001D01*
X15575500Y-5965001D01*
X15575500Y-5965001D01*
X15430500Y-5965001D01*
X15430500Y-5965001D01*
X15430499Y-5965001D01*
X15430499Y-5965000D01*
X15430499Y-5965000D01*
X15430499Y-5935000D01*
X15430499Y-5935000D01*
X15430499Y-5934999D01*
X15430500Y-5934999D01*
X15430500Y-5934999D01*
X15575500Y-5934999D01*
X15575500Y-5934999D01*
G37*
G36*
X13120370Y-5909320D02*
G01*
X13122804Y-5910946D01*
X13124430Y-5913379D01*
X13125001Y-5916250D01*
X13125001Y-5931250D01*
X13124430Y-5934120D01*
X13122804Y-5936554D01*
X13120370Y-5938180D01*
X13117500Y-5938751D01*
X12985000Y-5938751D01*
X12982129Y-5938180D01*
X12979696Y-5936554D01*
X12978070Y-5934120D01*
X12977499Y-5931250D01*
X12977499Y-5916250D01*
X12978070Y-5913379D01*
X12979696Y-5910946D01*
X12982129Y-5909320D01*
X12985000Y-5908749D01*
X13117500Y-5908749D01*
X13120370Y-5909320D01*
G37*
G36*
X13952870Y-5909320D02*
G01*
X13955304Y-5910946D01*
X13956930Y-5913379D01*
X13957501Y-5916250D01*
X13957501Y-5931250D01*
X13956930Y-5934120D01*
X13955304Y-5936554D01*
X13952870Y-5938180D01*
X13950000Y-5938751D01*
X13817500Y-5938751D01*
X13814629Y-5938180D01*
X13812196Y-5936554D01*
X13810570Y-5934120D01*
X13809999Y-5931250D01*
X13809999Y-5916250D01*
X13810570Y-5913379D01*
X13812196Y-5910946D01*
X13814629Y-5909320D01*
X13817500Y-5908749D01*
X13950000Y-5908749D01*
X13952870Y-5909320D01*
G37*
G36*
X15575500Y-5884999D02*
G01*
X15575501Y-5884999D01*
X15575501Y-5885000D01*
X15575501Y-5885000D01*
X15575501Y-5915000D01*
X15575501Y-5915000D01*
X15575501Y-5915001D01*
X15575500Y-5915001D01*
X15575500Y-5915001D01*
X15430500Y-5915001D01*
X15430500Y-5915001D01*
X15430499Y-5915001D01*
X15430499Y-5915000D01*
X15430499Y-5915000D01*
X15430499Y-5885000D01*
X15430499Y-5885000D01*
X15430499Y-5884999D01*
X15430500Y-5884999D01*
X15430500Y-5884999D01*
X15575500Y-5884999D01*
X15575500Y-5884999D01*
G37*
G36*
X12768608Y-5844815D02*
G01*
X12773150Y-5847850D01*
X12776185Y-5852392D01*
X12777251Y-5857750D01*
X12777251Y-5885750D01*
X12776185Y-5891108D01*
X12773150Y-5895650D01*
X12768608Y-5898685D01*
X12763250Y-5899751D01*
X12729250Y-5899751D01*
X12723892Y-5898685D01*
X12719350Y-5895650D01*
X12716315Y-5891108D01*
X12715249Y-5885750D01*
X12715249Y-5857750D01*
X12716315Y-5852392D01*
X12719350Y-5847850D01*
X12723892Y-5844815D01*
X12729250Y-5843749D01*
X12763250Y-5843749D01*
X12768608Y-5844815D01*
G37*
G36*
X14371167Y-5845527D02*
G01*
X14375547Y-5848453D01*
X14378473Y-5852833D01*
X14379501Y-5858000D01*
X14379501Y-5885000D01*
X14378473Y-5890167D01*
X14375547Y-5894547D01*
X14371167Y-5897473D01*
X14366000Y-5898501D01*
X14329000Y-5898501D01*
X14323833Y-5897473D01*
X14319453Y-5894547D01*
X14316527Y-5890167D01*
X14315499Y-5885000D01*
X14315499Y-5858000D01*
X14316527Y-5852833D01*
X14319453Y-5848453D01*
X14323833Y-5845527D01*
X14329000Y-5844499D01*
X14366000Y-5844499D01*
X14371167Y-5845527D01*
G37*
G36*
X13120370Y-5859320D02*
G01*
X13122804Y-5860946D01*
X13124430Y-5863379D01*
X13125001Y-5866250D01*
X13125001Y-5881250D01*
X13124430Y-5884120D01*
X13122804Y-5886554D01*
X13120370Y-5888180D01*
X13117500Y-5888751D01*
X12985000Y-5888751D01*
X12982129Y-5888180D01*
X12979696Y-5886554D01*
X12978070Y-5884120D01*
X12977499Y-5881250D01*
X12977499Y-5866250D01*
X12978070Y-5863379D01*
X12979696Y-5860946D01*
X12982129Y-5859320D01*
X12985000Y-5858749D01*
X13117500Y-5858749D01*
X13120370Y-5859320D01*
G37*
G36*
X13952870Y-5859320D02*
G01*
X13955304Y-5860946D01*
X13956930Y-5863379D01*
X13957501Y-5866250D01*
X13957501Y-5881250D01*
X13956930Y-5884120D01*
X13955304Y-5886554D01*
X13952870Y-5888180D01*
X13950000Y-5888751D01*
X13817500Y-5888751D01*
X13814629Y-5888180D01*
X13812196Y-5886554D01*
X13810570Y-5884120D01*
X13809999Y-5881250D01*
X13809999Y-5866250D01*
X13810570Y-5863379D01*
X13812196Y-5860946D01*
X13814629Y-5859320D01*
X13817500Y-5858749D01*
X13950000Y-5858749D01*
X13952870Y-5859320D01*
G37*
G36*
X14963241Y-5814891D02*
G01*
X14968107Y-5818143D01*
X14971359Y-5823009D01*
X14972501Y-5828750D01*
X14972501Y-5858750D01*
X14971359Y-5864491D01*
X14968107Y-5869357D01*
X14963241Y-5872609D01*
X14957500Y-5873751D01*
X14855000Y-5873751D01*
X14849259Y-5872609D01*
X14844393Y-5869357D01*
X14841141Y-5864491D01*
X14839999Y-5858750D01*
X14839999Y-5828750D01*
X14841141Y-5823009D01*
X14844393Y-5818143D01*
X14849259Y-5814891D01*
X14855000Y-5813749D01*
X14957500Y-5813749D01*
X14963241Y-5814891D01*
G37*
G36*
X15190741Y-5814891D02*
G01*
X15195607Y-5818143D01*
X15198859Y-5823009D01*
X15200001Y-5828750D01*
X15200001Y-5858750D01*
X15198859Y-5864491D01*
X15195607Y-5869357D01*
X15190741Y-5872609D01*
X15185000Y-5873751D01*
X15082500Y-5873751D01*
X15076759Y-5872609D01*
X15071893Y-5869357D01*
X15068641Y-5864491D01*
X15067499Y-5858750D01*
X15067499Y-5828750D01*
X15068641Y-5823009D01*
X15071893Y-5818143D01*
X15076759Y-5814891D01*
X15082500Y-5813749D01*
X15185000Y-5813749D01*
X15190741Y-5814891D01*
G37*
G36*
X15575500Y-5834999D02*
G01*
X15575501Y-5834999D01*
X15575501Y-5835000D01*
X15575501Y-5835000D01*
X15575501Y-5865000D01*
X15575501Y-5865000D01*
X15575501Y-5865001D01*
X15575500Y-5865001D01*
X15575500Y-5865001D01*
X15430500Y-5865001D01*
X15430500Y-5865001D01*
X15430499Y-5865001D01*
X15430499Y-5865000D01*
X15430499Y-5865000D01*
X15430499Y-5835000D01*
X15430499Y-5835000D01*
X15430499Y-5834999D01*
X15430500Y-5834999D01*
X15430500Y-5834999D01*
X15575500Y-5834999D01*
X15575500Y-5834999D01*
G37*
G36*
X13120370Y-5809320D02*
G01*
X13122804Y-5810946D01*
X13124430Y-5813379D01*
X13125001Y-5816250D01*
X13125001Y-5831250D01*
X13124430Y-5834120D01*
X13122804Y-5836554D01*
X13120370Y-5838180D01*
X13117500Y-5838751D01*
X12985000Y-5838751D01*
X12982129Y-5838180D01*
X12979696Y-5836554D01*
X12978070Y-5834120D01*
X12977499Y-5831250D01*
X12977499Y-5816250D01*
X12978070Y-5813379D01*
X12979696Y-5810946D01*
X12982129Y-5809320D01*
X12985000Y-5808749D01*
X13117500Y-5808749D01*
X13120370Y-5809320D01*
G37*
G36*
X13952870Y-5809320D02*
G01*
X13955304Y-5810946D01*
X13956930Y-5813379D01*
X13957501Y-5816250D01*
X13957501Y-5831250D01*
X13956930Y-5834120D01*
X13955304Y-5836554D01*
X13952870Y-5838180D01*
X13950000Y-5838751D01*
X13817500Y-5838751D01*
X13814629Y-5838180D01*
X13812196Y-5836554D01*
X13810570Y-5834120D01*
X13809999Y-5831250D01*
X13809999Y-5816250D01*
X13810570Y-5813379D01*
X13812196Y-5810946D01*
X13814629Y-5809320D01*
X13817500Y-5808749D01*
X13950000Y-5808749D01*
X13952870Y-5809320D01*
G37*
G36*
X14510000Y-5764999D02*
G01*
X14510001Y-5764999D01*
X14510001Y-5765000D01*
X14510001Y-5765000D01*
X14510001Y-5835000D01*
X14510001Y-5835000D01*
X14510001Y-5835001D01*
X14510000Y-5835001D01*
X14510000Y-5835001D01*
X14430000Y-5835001D01*
X14430000Y-5835001D01*
X14429999Y-5835001D01*
X14429999Y-5835000D01*
X14429999Y-5835000D01*
X14429999Y-5765000D01*
X14429999Y-5765000D01*
X14429999Y-5764999D01*
X14430000Y-5764999D01*
X14430000Y-5764999D01*
X14510000Y-5764999D01*
X14510000Y-5764999D01*
G37*
G36*
X14770000Y-5764999D02*
G01*
X14770001Y-5764999D01*
X14770001Y-5765000D01*
X14770001Y-5765000D01*
X14770001Y-5835000D01*
X14770001Y-5835000D01*
X14770001Y-5835001D01*
X14770000Y-5835001D01*
X14770000Y-5835001D01*
X14690000Y-5835001D01*
X14690000Y-5835001D01*
X14689999Y-5835001D01*
X14689999Y-5835000D01*
X14689999Y-5835000D01*
X14689999Y-5765000D01*
X14689999Y-5765000D01*
X14689999Y-5764999D01*
X14690000Y-5764999D01*
X14690000Y-5764999D01*
X14770000Y-5764999D01*
X14770000Y-5764999D01*
G37*
G36*
X15575500Y-5784999D02*
G01*
X15575501Y-5784999D01*
X15575501Y-5785000D01*
X15575501Y-5785000D01*
X15575501Y-5815000D01*
X15575501Y-5815000D01*
X15575501Y-5815001D01*
X15575500Y-5815001D01*
X15575500Y-5815001D01*
X15430500Y-5815001D01*
X15430500Y-5815001D01*
X15430499Y-5815001D01*
X15430499Y-5815000D01*
X15430499Y-5815000D01*
X15430499Y-5785000D01*
X15430499Y-5785000D01*
X15430499Y-5784999D01*
X15430500Y-5784999D01*
X15430500Y-5784999D01*
X15575500Y-5784999D01*
X15575500Y-5784999D01*
G37*
G36*
X12768608Y-5748815D02*
G01*
X12773150Y-5751850D01*
X12776185Y-5756392D01*
X12777251Y-5761750D01*
X12777251Y-5789750D01*
X12776185Y-5795108D01*
X12773150Y-5799650D01*
X12768608Y-5802685D01*
X12763250Y-5803751D01*
X12729250Y-5803751D01*
X12723892Y-5802685D01*
X12719350Y-5799650D01*
X12716315Y-5795108D01*
X12715249Y-5789750D01*
X12715249Y-5761750D01*
X12716315Y-5756392D01*
X12719350Y-5751850D01*
X12723892Y-5748815D01*
X12729250Y-5747749D01*
X12763250Y-5747749D01*
X12768608Y-5748815D01*
G37*
G36*
X13120370Y-5759320D02*
G01*
X13122804Y-5760946D01*
X13124430Y-5763379D01*
X13125001Y-5766250D01*
X13125001Y-5781250D01*
X13124430Y-5784120D01*
X13122804Y-5786554D01*
X13120370Y-5788180D01*
X13117500Y-5788751D01*
X12985000Y-5788751D01*
X12982129Y-5788180D01*
X12979696Y-5786554D01*
X12978070Y-5784120D01*
X12977499Y-5781250D01*
X12977499Y-5766250D01*
X12978070Y-5763379D01*
X12979696Y-5760946D01*
X12982129Y-5759320D01*
X12985000Y-5758749D01*
X13117500Y-5758749D01*
X13120370Y-5759320D01*
G37*
G36*
X13952870Y-5759320D02*
G01*
X13955304Y-5760946D01*
X13956930Y-5763379D01*
X13957501Y-5766250D01*
X13957501Y-5781250D01*
X13956930Y-5784120D01*
X13955304Y-5786554D01*
X13952870Y-5788180D01*
X13950000Y-5788751D01*
X13817500Y-5788751D01*
X13814629Y-5788180D01*
X13812196Y-5786554D01*
X13810570Y-5784120D01*
X13809999Y-5781250D01*
X13809999Y-5766250D01*
X13810570Y-5763379D01*
X13812196Y-5760946D01*
X13814629Y-5759320D01*
X13817500Y-5758749D01*
X13950000Y-5758749D01*
X13952870Y-5759320D01*
G37*
G36*
X14963241Y-5719891D02*
G01*
X14968107Y-5723143D01*
X14971359Y-5728009D01*
X14972501Y-5733750D01*
X14972501Y-5763750D01*
X14971359Y-5769491D01*
X14968107Y-5774357D01*
X14963241Y-5777609D01*
X14957500Y-5778751D01*
X14855000Y-5778751D01*
X14849259Y-5777609D01*
X14844393Y-5774357D01*
X14841141Y-5769491D01*
X14839999Y-5763750D01*
X14839999Y-5733750D01*
X14841141Y-5728009D01*
X14844393Y-5723143D01*
X14849259Y-5719891D01*
X14855000Y-5718749D01*
X14957500Y-5718749D01*
X14963241Y-5719891D01*
G37*
G36*
X15190741Y-5719891D02*
G01*
X15195607Y-5723143D01*
X15198859Y-5728009D01*
X15200001Y-5733750D01*
X15200001Y-5763750D01*
X15198859Y-5769491D01*
X15195607Y-5774357D01*
X15190741Y-5777609D01*
X15185000Y-5778751D01*
X15082500Y-5778751D01*
X15076759Y-5777609D01*
X15071893Y-5774357D01*
X15068641Y-5769491D01*
X15067499Y-5763750D01*
X15067499Y-5733750D01*
X15068641Y-5728009D01*
X15071893Y-5723143D01*
X15076759Y-5719891D01*
X15082500Y-5718749D01*
X15185000Y-5718749D01*
X15190741Y-5719891D01*
G37*
G36*
X15575500Y-5734999D02*
G01*
X15575501Y-5734999D01*
X15575501Y-5735000D01*
X15575501Y-5735000D01*
X15575501Y-5765000D01*
X15575501Y-5765000D01*
X15575501Y-5765001D01*
X15575500Y-5765001D01*
X15575500Y-5765001D01*
X15430500Y-5765001D01*
X15430500Y-5765001D01*
X15430499Y-5765001D01*
X15430499Y-5765000D01*
X15430499Y-5765000D01*
X15430499Y-5735000D01*
X15430499Y-5735000D01*
X15430499Y-5734999D01*
X15430500Y-5734999D01*
X15430500Y-5734999D01*
X15575500Y-5734999D01*
X15575500Y-5734999D01*
G37*
G36*
X13120370Y-5709320D02*
G01*
X13122804Y-5710946D01*
X13124430Y-5713379D01*
X13125001Y-5716250D01*
X13125001Y-5731250D01*
X13124430Y-5734120D01*
X13122804Y-5736554D01*
X13120370Y-5738180D01*
X13117500Y-5738751D01*
X12985000Y-5738751D01*
X12982129Y-5738180D01*
X12979696Y-5736554D01*
X12978070Y-5734120D01*
X12977499Y-5731250D01*
X12977499Y-5716250D01*
X12978070Y-5713379D01*
X12979696Y-5710946D01*
X12982129Y-5709320D01*
X12985000Y-5708749D01*
X13117500Y-5708749D01*
X13120370Y-5709320D01*
G37*
G36*
X13952870Y-5709320D02*
G01*
X13955304Y-5710946D01*
X13956930Y-5713379D01*
X13957501Y-5716250D01*
X13957501Y-5731250D01*
X13956930Y-5734120D01*
X13955304Y-5736554D01*
X13952870Y-5738180D01*
X13950000Y-5738751D01*
X13817500Y-5738751D01*
X13814629Y-5738180D01*
X13812196Y-5736554D01*
X13810570Y-5734120D01*
X13809999Y-5731250D01*
X13809999Y-5716250D01*
X13810570Y-5713379D01*
X13812196Y-5710946D01*
X13814629Y-5709320D01*
X13817500Y-5708749D01*
X13950000Y-5708749D01*
X13952870Y-5709320D01*
G37*
G36*
X14510000Y-5664999D02*
G01*
X14510001Y-5664999D01*
X14510001Y-5665000D01*
X14510001Y-5665000D01*
X14510001Y-5735000D01*
X14510001Y-5735000D01*
X14510001Y-5735001D01*
X14510000Y-5735001D01*
X14510000Y-5735001D01*
X14430000Y-5735001D01*
X14430000Y-5735001D01*
X14429999Y-5735001D01*
X14429999Y-5735000D01*
X14429999Y-5735000D01*
X14429999Y-5665000D01*
X14429999Y-5665000D01*
X14429999Y-5664999D01*
X14430000Y-5664999D01*
X14430000Y-5664999D01*
X14510000Y-5664999D01*
X14510000Y-5664999D01*
G37*
G36*
X14770000Y-5664999D02*
G01*
X14770001Y-5664999D01*
X14770001Y-5665000D01*
X14770001Y-5665000D01*
X14770001Y-5735000D01*
X14770001Y-5735000D01*
X14770001Y-5735001D01*
X14770000Y-5735001D01*
X14770000Y-5735001D01*
X14690000Y-5735001D01*
X14690000Y-5735001D01*
X14689999Y-5735001D01*
X14689999Y-5735000D01*
X14689999Y-5735000D01*
X14689999Y-5665000D01*
X14689999Y-5665000D01*
X14689999Y-5664999D01*
X14690000Y-5664999D01*
X14690000Y-5664999D01*
X14770000Y-5664999D01*
X14770000Y-5664999D01*
G37*
G36*
X14351167Y-5675027D02*
G01*
X14355547Y-5677953D01*
X14358473Y-5682333D01*
X14359501Y-5687500D01*
X14359501Y-5714500D01*
X14358473Y-5719667D01*
X14355547Y-5724047D01*
X14351167Y-5726973D01*
X14346000Y-5728001D01*
X14309000Y-5728001D01*
X14303833Y-5726973D01*
X14299453Y-5724047D01*
X14296527Y-5719667D01*
X14295499Y-5714500D01*
X14295499Y-5687500D01*
X14296527Y-5682333D01*
X14299453Y-5677953D01*
X14303833Y-5675027D01*
X14309000Y-5673999D01*
X14346000Y-5673999D01*
X14351167Y-5675027D01*
G37*
G36*
X15575500Y-5684999D02*
G01*
X15575501Y-5684999D01*
X15575501Y-5685000D01*
X15575501Y-5685000D01*
X15575501Y-5715000D01*
X15575501Y-5715000D01*
X15575501Y-5715001D01*
X15575500Y-5715001D01*
X15575500Y-5715001D01*
X15430500Y-5715001D01*
X15430500Y-5715001D01*
X15430499Y-5715001D01*
X15430499Y-5715000D01*
X15430499Y-5715000D01*
X15430499Y-5685000D01*
X15430499Y-5685000D01*
X15430499Y-5684999D01*
X15430500Y-5684999D01*
X15430500Y-5684999D01*
X15575500Y-5684999D01*
X15575500Y-5684999D01*
G37*
G36*
X13120370Y-5659320D02*
G01*
X13122804Y-5660946D01*
X13124430Y-5663379D01*
X13125001Y-5666250D01*
X13125001Y-5681250D01*
X13124430Y-5684120D01*
X13122804Y-5686554D01*
X13120370Y-5688180D01*
X13117500Y-5688751D01*
X12985000Y-5688751D01*
X12982129Y-5688180D01*
X12979696Y-5686554D01*
X12978070Y-5684120D01*
X12977499Y-5681250D01*
X12977499Y-5666250D01*
X12978070Y-5663379D01*
X12979696Y-5660946D01*
X12982129Y-5659320D01*
X12985000Y-5658749D01*
X13117500Y-5658749D01*
X13120370Y-5659320D01*
G37*
G36*
X13952870Y-5659320D02*
G01*
X13955304Y-5660946D01*
X13956930Y-5663379D01*
X13957501Y-5666250D01*
X13957501Y-5681250D01*
X13956930Y-5684120D01*
X13955304Y-5686554D01*
X13952870Y-5688180D01*
X13950000Y-5688751D01*
X13817500Y-5688751D01*
X13814629Y-5688180D01*
X13812196Y-5686554D01*
X13810570Y-5684120D01*
X13809999Y-5681250D01*
X13809999Y-5666250D01*
X13810570Y-5663379D01*
X13812196Y-5660946D01*
X13814629Y-5659320D01*
X13817500Y-5658749D01*
X13950000Y-5658749D01*
X13952870Y-5659320D01*
G37*
G36*
X14963241Y-5624891D02*
G01*
X14968107Y-5628143D01*
X14971359Y-5633009D01*
X14972501Y-5638750D01*
X14972501Y-5668750D01*
X14971359Y-5674491D01*
X14968107Y-5679357D01*
X14963241Y-5682609D01*
X14957500Y-5683751D01*
X14855000Y-5683751D01*
X14849259Y-5682609D01*
X14844393Y-5679357D01*
X14841141Y-5674491D01*
X14839999Y-5668750D01*
X14839999Y-5638750D01*
X14841141Y-5633009D01*
X14844393Y-5628143D01*
X14849259Y-5624891D01*
X14855000Y-5623749D01*
X14957500Y-5623749D01*
X14963241Y-5624891D01*
G37*
G36*
X15190741Y-5624891D02*
G01*
X15195607Y-5628143D01*
X15198859Y-5633009D01*
X15200001Y-5638750D01*
X15200001Y-5668750D01*
X15198859Y-5674491D01*
X15195607Y-5679357D01*
X15190741Y-5682609D01*
X15185000Y-5683751D01*
X15082500Y-5683751D01*
X15076759Y-5682609D01*
X15071893Y-5679357D01*
X15068641Y-5674491D01*
X15067499Y-5668750D01*
X15067499Y-5638750D01*
X15068641Y-5633009D01*
X15071893Y-5628143D01*
X15076759Y-5624891D01*
X15082500Y-5623749D01*
X15185000Y-5623749D01*
X15190741Y-5624891D01*
G37*
G36*
X14080182Y-5599429D02*
G01*
X14085211Y-5602789D01*
X14088571Y-5607818D01*
X14089751Y-5613750D01*
X14089751Y-5656250D01*
X14088571Y-5662182D01*
X14085211Y-5667211D01*
X14080182Y-5670571D01*
X14074250Y-5671751D01*
X14043250Y-5671751D01*
X14037318Y-5670571D01*
X14032289Y-5667211D01*
X14028929Y-5662182D01*
X14027749Y-5656250D01*
X14027749Y-5613750D01*
X14028929Y-5607818D01*
X14032289Y-5602789D01*
X14037318Y-5599429D01*
X14043250Y-5598249D01*
X14074250Y-5598249D01*
X14080182Y-5599429D01*
G37*
G36*
X14218932Y-5599429D02*
G01*
X14223961Y-5602789D01*
X14227321Y-5607818D01*
X14228501Y-5613750D01*
X14228501Y-5656250D01*
X14227321Y-5662182D01*
X14223961Y-5667211D01*
X14218932Y-5670571D01*
X14213000Y-5671751D01*
X14182000Y-5671751D01*
X14176068Y-5670571D01*
X14171039Y-5667211D01*
X14167679Y-5662182D01*
X14166499Y-5656250D01*
X14166499Y-5613750D01*
X14167679Y-5607818D01*
X14171039Y-5602789D01*
X14176068Y-5599429D01*
X14182000Y-5598249D01*
X14213000Y-5598249D01*
X14218932Y-5599429D01*
G37*
G36*
X15575500Y-5634999D02*
G01*
X15575501Y-5634999D01*
X15575501Y-5635000D01*
X15575501Y-5635000D01*
X15575501Y-5665000D01*
X15575501Y-5665000D01*
X15575501Y-5665001D01*
X15575500Y-5665001D01*
X15575500Y-5665001D01*
X15430500Y-5665001D01*
X15430500Y-5665001D01*
X15430499Y-5665001D01*
X15430499Y-5665000D01*
X15430499Y-5665000D01*
X15430499Y-5635000D01*
X15430499Y-5635000D01*
X15430499Y-5634999D01*
X15430500Y-5634999D01*
X15430500Y-5634999D01*
X15575500Y-5634999D01*
X15575500Y-5634999D01*
G37*
G36*
X13120370Y-5609320D02*
G01*
X13122804Y-5610946D01*
X13124430Y-5613379D01*
X13125001Y-5616250D01*
X13125001Y-5631250D01*
X13124430Y-5634120D01*
X13122804Y-5636554D01*
X13120370Y-5638180D01*
X13117500Y-5638751D01*
X12985000Y-5638751D01*
X12982129Y-5638180D01*
X12979696Y-5636554D01*
X12978070Y-5634120D01*
X12977499Y-5631250D01*
X12977499Y-5616250D01*
X12978070Y-5613379D01*
X12979696Y-5610946D01*
X12982129Y-5609320D01*
X12985000Y-5608749D01*
X13117500Y-5608749D01*
X13120370Y-5609320D01*
G37*
G36*
X13952870Y-5609320D02*
G01*
X13955304Y-5610946D01*
X13956930Y-5613379D01*
X13957501Y-5616250D01*
X13957501Y-5631250D01*
X13956930Y-5634120D01*
X13955304Y-5636554D01*
X13952870Y-5638180D01*
X13950000Y-5638751D01*
X13817500Y-5638751D01*
X13814629Y-5638180D01*
X13812196Y-5636554D01*
X13810570Y-5634120D01*
X13809999Y-5631250D01*
X13809999Y-5616250D01*
X13810570Y-5613379D01*
X13812196Y-5610946D01*
X13814629Y-5609320D01*
X13817500Y-5608749D01*
X13950000Y-5608749D01*
X13952870Y-5609320D01*
G37*
G36*
X14351167Y-5573027D02*
G01*
X14355547Y-5575953D01*
X14358473Y-5580333D01*
X14359501Y-5585500D01*
X14359501Y-5612500D01*
X14358473Y-5617667D01*
X14355547Y-5622047D01*
X14351167Y-5624973D01*
X14346000Y-5626001D01*
X14309000Y-5626001D01*
X14303833Y-5624973D01*
X14299453Y-5622047D01*
X14296527Y-5617667D01*
X14295499Y-5612500D01*
X14295499Y-5585500D01*
X14296527Y-5580333D01*
X14299453Y-5575953D01*
X14303833Y-5573027D01*
X14309000Y-5571999D01*
X14346000Y-5571999D01*
X14351167Y-5573027D01*
G37*
G36*
X15575500Y-5584999D02*
G01*
X15575501Y-5584999D01*
X15575501Y-5585000D01*
X15575501Y-5585000D01*
X15575501Y-5615000D01*
X15575501Y-5615000D01*
X15575501Y-5615001D01*
X15575500Y-5615001D01*
X15575500Y-5615001D01*
X15430500Y-5615001D01*
X15430500Y-5615001D01*
X15430499Y-5615001D01*
X15430499Y-5615000D01*
X15430499Y-5615000D01*
X15430499Y-5585000D01*
X15430499Y-5585000D01*
X15430499Y-5584999D01*
X15430500Y-5584999D01*
X15430500Y-5584999D01*
X15575500Y-5584999D01*
X15575500Y-5584999D01*
G37*
G36*
X12905182Y-5519929D02*
G01*
X12910211Y-5523289D01*
X12913571Y-5528318D01*
X12914751Y-5534250D01*
X12914751Y-5576750D01*
X12913571Y-5582682D01*
X12910211Y-5587711D01*
X12905182Y-5591071D01*
X12899250Y-5592251D01*
X12868250Y-5592251D01*
X12862318Y-5591071D01*
X12857289Y-5587711D01*
X12853929Y-5582682D01*
X12852749Y-5576750D01*
X12852749Y-5534250D01*
X12853929Y-5528318D01*
X12857289Y-5523289D01*
X12862318Y-5519929D01*
X12868250Y-5518749D01*
X12899250Y-5518749D01*
X12905182Y-5519929D01*
G37*
G36*
X13120370Y-5559320D02*
G01*
X13122804Y-5560946D01*
X13124430Y-5563380D01*
X13125001Y-5566250D01*
X13125001Y-5581250D01*
X13124430Y-5584121D01*
X13122804Y-5586554D01*
X13120370Y-5588180D01*
X13117500Y-5588751D01*
X12985000Y-5588751D01*
X12982129Y-5588180D01*
X12979696Y-5586554D01*
X12978070Y-5584121D01*
X12977499Y-5581250D01*
X12977499Y-5566250D01*
X12978070Y-5563380D01*
X12979696Y-5560946D01*
X12982129Y-5559320D01*
X12985000Y-5558749D01*
X13117500Y-5558749D01*
X13120370Y-5559320D01*
G37*
G36*
X13952870Y-5559320D02*
G01*
X13955304Y-5560946D01*
X13956930Y-5563380D01*
X13957501Y-5566250D01*
X13957501Y-5581250D01*
X13956930Y-5584121D01*
X13955304Y-5586554D01*
X13952870Y-5588180D01*
X13950000Y-5588751D01*
X13817500Y-5588751D01*
X13814629Y-5588180D01*
X13812196Y-5586554D01*
X13810570Y-5584121D01*
X13809999Y-5581250D01*
X13809999Y-5566250D01*
X13810570Y-5563380D01*
X13812196Y-5560946D01*
X13814629Y-5559320D01*
X13817500Y-5558749D01*
X13950000Y-5558749D01*
X13952870Y-5559320D01*
G37*
G36*
X15575500Y-5499999D02*
G01*
X15575501Y-5499999D01*
X15575501Y-5500000D01*
X15575501Y-5500000D01*
X15575501Y-5560000D01*
X15575501Y-5560000D01*
X15575501Y-5560001D01*
X15575500Y-5560001D01*
X15575500Y-5560001D01*
X15430500Y-5560001D01*
X15430500Y-5560001D01*
X15430499Y-5560001D01*
X15430499Y-5560000D01*
X15430499Y-5560000D01*
X15430499Y-5500000D01*
X15430499Y-5500000D01*
X15430499Y-5499999D01*
X15430500Y-5499999D01*
X15430500Y-5499999D01*
X15575500Y-5499999D01*
X15575500Y-5499999D01*
G37*
G36*
X14080182Y-5485929D02*
G01*
X14085211Y-5489289D01*
X14088571Y-5494318D01*
X14089751Y-5500250D01*
X14089751Y-5542750D01*
X14088571Y-5548682D01*
X14085211Y-5553711D01*
X14080182Y-5557071D01*
X14074250Y-5558251D01*
X14043250Y-5558251D01*
X14037318Y-5557071D01*
X14032289Y-5553711D01*
X14028929Y-5548682D01*
X14027749Y-5542750D01*
X14027749Y-5500250D01*
X14028929Y-5494318D01*
X14032289Y-5489289D01*
X14037318Y-5485929D01*
X14043250Y-5484749D01*
X14074250Y-5484749D01*
X14080182Y-5485929D01*
G37*
G36*
X14218932Y-5485929D02*
G01*
X14223961Y-5489289D01*
X14227321Y-5494318D01*
X14228501Y-5500250D01*
X14228501Y-5542750D01*
X14227321Y-5548682D01*
X14223961Y-5553711D01*
X14218932Y-5557071D01*
X14213000Y-5558251D01*
X14182000Y-5558251D01*
X14176068Y-5557071D01*
X14171039Y-5553711D01*
X14167679Y-5548682D01*
X14166499Y-5542750D01*
X14166499Y-5500250D01*
X14167679Y-5494318D01*
X14171039Y-5489289D01*
X14176068Y-5485929D01*
X14182000Y-5484749D01*
X14213000Y-5484749D01*
X14218932Y-5485929D01*
G37*
G36*
X15151167Y-5492527D02*
G01*
X15155547Y-5495453D01*
X15158473Y-5499833D01*
X15159501Y-5505000D01*
X15159501Y-5532000D01*
X15158473Y-5537167D01*
X15155547Y-5541547D01*
X15151167Y-5544473D01*
X15146000Y-5545501D01*
X15109000Y-5545501D01*
X15103833Y-5544473D01*
X15099453Y-5541547D01*
X15096527Y-5537167D01*
X15095499Y-5532000D01*
X15095499Y-5505000D01*
X15096527Y-5499833D01*
X15099453Y-5495453D01*
X15103833Y-5492527D01*
X15109000Y-5491499D01*
X15146000Y-5491499D01*
X15151167Y-5492527D01*
G37*
G36*
X15665557Y-5458976D02*
G01*
X15674524Y-5467943D01*
X15679376Y-5479659D01*
X15679376Y-5492341D01*
X15674524Y-5504057D01*
X15665557Y-5513024D01*
X15653841Y-5517877D01*
X15641159Y-5517877D01*
X15629443Y-5513024D01*
X15620476Y-5504057D01*
X15615623Y-5492341D01*
X15615623Y-5479659D01*
X15620476Y-5467943D01*
X15629443Y-5458976D01*
X15641159Y-5454124D01*
X15653841Y-5454124D01*
X15665557Y-5458976D01*
G37*
G36*
X13202870Y-5359320D02*
G01*
X13205304Y-5360946D01*
X13206930Y-5363380D01*
X13207501Y-5366250D01*
X13207501Y-5498750D01*
X13206930Y-5501621D01*
X13205304Y-5504054D01*
X13202870Y-5505680D01*
X13200000Y-5506251D01*
X13185000Y-5506251D01*
X13182129Y-5505680D01*
X13179696Y-5504054D01*
X13178070Y-5501621D01*
X13177499Y-5498750D01*
X13177499Y-5366250D01*
X13178070Y-5363380D01*
X13179696Y-5360946D01*
X13182129Y-5359320D01*
X13185000Y-5358749D01*
X13200000Y-5358749D01*
X13202870Y-5359320D01*
G37*
G36*
X13252870Y-5359320D02*
G01*
X13255304Y-5360946D01*
X13256930Y-5363380D01*
X13257501Y-5366250D01*
X13257501Y-5498750D01*
X13256930Y-5501621D01*
X13255304Y-5504054D01*
X13252870Y-5505680D01*
X13250000Y-5506251D01*
X13235000Y-5506251D01*
X13232129Y-5505680D01*
X13229696Y-5504054D01*
X13228070Y-5501621D01*
X13227499Y-5498750D01*
X13227499Y-5366250D01*
X13228070Y-5363380D01*
X13229696Y-5360946D01*
X13232129Y-5359320D01*
X13235000Y-5358749D01*
X13250000Y-5358749D01*
X13252870Y-5359320D01*
G37*
G36*
X13302870Y-5359320D02*
G01*
X13305304Y-5360946D01*
X13306930Y-5363380D01*
X13307501Y-5366250D01*
X13307501Y-5498750D01*
X13306930Y-5501621D01*
X13305304Y-5504054D01*
X13302870Y-5505680D01*
X13300000Y-5506251D01*
X13285000Y-5506251D01*
X13282129Y-5505680D01*
X13279696Y-5504054D01*
X13278070Y-5501621D01*
X13277499Y-5498750D01*
X13277499Y-5366250D01*
X13278070Y-5363380D01*
X13279696Y-5360946D01*
X13282129Y-5359320D01*
X13285000Y-5358749D01*
X13300000Y-5358749D01*
X13302870Y-5359320D01*
G37*
G36*
X13352870Y-5359320D02*
G01*
X13355304Y-5360946D01*
X13356930Y-5363380D01*
X13357501Y-5366250D01*
X13357501Y-5498750D01*
X13356930Y-5501621D01*
X13355304Y-5504054D01*
X13352870Y-5505680D01*
X13350000Y-5506251D01*
X13335000Y-5506251D01*
X13332129Y-5505680D01*
X13329696Y-5504054D01*
X13328070Y-5501621D01*
X13327499Y-5498750D01*
X13327499Y-5366250D01*
X13328070Y-5363380D01*
X13329696Y-5360946D01*
X13332129Y-5359320D01*
X13335000Y-5358749D01*
X13350000Y-5358749D01*
X13352870Y-5359320D01*
G37*
G36*
X13402870Y-5359320D02*
G01*
X13405304Y-5360946D01*
X13406930Y-5363380D01*
X13407501Y-5366250D01*
X13407501Y-5498750D01*
X13406930Y-5501621D01*
X13405304Y-5504054D01*
X13402870Y-5505680D01*
X13400000Y-5506251D01*
X13385000Y-5506251D01*
X13382129Y-5505680D01*
X13379696Y-5504054D01*
X13378070Y-5501621D01*
X13377499Y-5498750D01*
X13377499Y-5366250D01*
X13378070Y-5363380D01*
X13379696Y-5360946D01*
X13382129Y-5359320D01*
X13385000Y-5358749D01*
X13400000Y-5358749D01*
X13402870Y-5359320D01*
G37*
G36*
X13452870Y-5359320D02*
G01*
X13455304Y-5360946D01*
X13456930Y-5363380D01*
X13457501Y-5366250D01*
X13457501Y-5498750D01*
X13456930Y-5501621D01*
X13455304Y-5504054D01*
X13452870Y-5505680D01*
X13450000Y-5506251D01*
X13435000Y-5506251D01*
X13432129Y-5505680D01*
X13429696Y-5504054D01*
X13428070Y-5501621D01*
X13427499Y-5498750D01*
X13427499Y-5366250D01*
X13428070Y-5363380D01*
X13429696Y-5360946D01*
X13432129Y-5359320D01*
X13435000Y-5358749D01*
X13450000Y-5358749D01*
X13452870Y-5359320D01*
G37*
G36*
X13502870Y-5359320D02*
G01*
X13505304Y-5360946D01*
X13506930Y-5363380D01*
X13507501Y-5366250D01*
X13507501Y-5498750D01*
X13506930Y-5501621D01*
X13505304Y-5504054D01*
X13502870Y-5505680D01*
X13500000Y-5506251D01*
X13485000Y-5506251D01*
X13482129Y-5505680D01*
X13479696Y-5504054D01*
X13478070Y-5501621D01*
X13477499Y-5498750D01*
X13477499Y-5366250D01*
X13478070Y-5363380D01*
X13479696Y-5360946D01*
X13482129Y-5359320D01*
X13485000Y-5358749D01*
X13500000Y-5358749D01*
X13502870Y-5359320D01*
G37*
G36*
X13552870Y-5359320D02*
G01*
X13555304Y-5360946D01*
X13556930Y-5363380D01*
X13557501Y-5366250D01*
X13557501Y-5498750D01*
X13556930Y-5501621D01*
X13555304Y-5504054D01*
X13552870Y-5505680D01*
X13550000Y-5506251D01*
X13535000Y-5506251D01*
X13532129Y-5505680D01*
X13529696Y-5504054D01*
X13528070Y-5501621D01*
X13527499Y-5498750D01*
X13527499Y-5366250D01*
X13528070Y-5363380D01*
X13529696Y-5360946D01*
X13532129Y-5359320D01*
X13535000Y-5358749D01*
X13550000Y-5358749D01*
X13552870Y-5359320D01*
G37*
G36*
X13602870Y-5359320D02*
G01*
X13605304Y-5360946D01*
X13606930Y-5363380D01*
X13607501Y-5366250D01*
X13607501Y-5498750D01*
X13606930Y-5501621D01*
X13605304Y-5504054D01*
X13602870Y-5505680D01*
X13600000Y-5506251D01*
X13585000Y-5506251D01*
X13582129Y-5505680D01*
X13579696Y-5504054D01*
X13578070Y-5501621D01*
X13577499Y-5498750D01*
X13577499Y-5366250D01*
X13578070Y-5363380D01*
X13579696Y-5360946D01*
X13582129Y-5359320D01*
X13585000Y-5358749D01*
X13600000Y-5358749D01*
X13602870Y-5359320D01*
G37*
G36*
X13652870Y-5359320D02*
G01*
X13655304Y-5360946D01*
X13656930Y-5363380D01*
X13657501Y-5366250D01*
X13657501Y-5498750D01*
X13656930Y-5501621D01*
X13655304Y-5504054D01*
X13652870Y-5505680D01*
X13650000Y-5506251D01*
X13635000Y-5506251D01*
X13632129Y-5505680D01*
X13629696Y-5504054D01*
X13628070Y-5501621D01*
X13627499Y-5498750D01*
X13627499Y-5366250D01*
X13628070Y-5363380D01*
X13629696Y-5360946D01*
X13632129Y-5359320D01*
X13635000Y-5358749D01*
X13650000Y-5358749D01*
X13652870Y-5359320D01*
G37*
G36*
X13702870Y-5359320D02*
G01*
X13705304Y-5360946D01*
X13706930Y-5363380D01*
X13707501Y-5366250D01*
X13707501Y-5498750D01*
X13706930Y-5501621D01*
X13705304Y-5504054D01*
X13702870Y-5505680D01*
X13700000Y-5506251D01*
X13685000Y-5506251D01*
X13682129Y-5505680D01*
X13679696Y-5504054D01*
X13678070Y-5501621D01*
X13677499Y-5498750D01*
X13677499Y-5366250D01*
X13678070Y-5363380D01*
X13679696Y-5360946D01*
X13682129Y-5359320D01*
X13685000Y-5358749D01*
X13700000Y-5358749D01*
X13702870Y-5359320D01*
G37*
G36*
X13752870Y-5359320D02*
G01*
X13755304Y-5360946D01*
X13756930Y-5363380D01*
X13757501Y-5366250D01*
X13757501Y-5498750D01*
X13756930Y-5501621D01*
X13755304Y-5504054D01*
X13752870Y-5505680D01*
X13750000Y-5506251D01*
X13735000Y-5506251D01*
X13732129Y-5505680D01*
X13729696Y-5504054D01*
X13728070Y-5501621D01*
X13727499Y-5498750D01*
X13727499Y-5366250D01*
X13728070Y-5363380D01*
X13729696Y-5360946D01*
X13732129Y-5359320D01*
X13735000Y-5358749D01*
X13750000Y-5358749D01*
X13752870Y-5359320D01*
G37*
G36*
X15575500Y-5419999D02*
G01*
X15575501Y-5419999D01*
X15575501Y-5420000D01*
X15575501Y-5420000D01*
X15575501Y-5480000D01*
X15575501Y-5480000D01*
X15575501Y-5480001D01*
X15575500Y-5480001D01*
X15575500Y-5480001D01*
X15430500Y-5480001D01*
X15430500Y-5480001D01*
X15430499Y-5480001D01*
X15430499Y-5480000D01*
X15430499Y-5480000D01*
X15430499Y-5420000D01*
X15430499Y-5420000D01*
X15430499Y-5419999D01*
X15430500Y-5419999D01*
X15430500Y-5419999D01*
X15575500Y-5419999D01*
X15575500Y-5419999D01*
G37*
G36*
X12905182Y-5406429D02*
G01*
X12910211Y-5409789D01*
X12913571Y-5414818D01*
X12914751Y-5420750D01*
X12914751Y-5463250D01*
X12913571Y-5469182D01*
X12910211Y-5474211D01*
X12905182Y-5477571D01*
X12899250Y-5478751D01*
X12868250Y-5478751D01*
X12862318Y-5477571D01*
X12857289Y-5474211D01*
X12853929Y-5469182D01*
X12852749Y-5463250D01*
X12852749Y-5420750D01*
X12853929Y-5414818D01*
X12857289Y-5409789D01*
X12862318Y-5406429D01*
X12868250Y-5405249D01*
X12899250Y-5405249D01*
X12905182Y-5406429D01*
G37*
G36*
X15151167Y-5390527D02*
G01*
X15155547Y-5393453D01*
X15158473Y-5397833D01*
X15159501Y-5403000D01*
X15159501Y-5430000D01*
X15158473Y-5435167D01*
X15155547Y-5439547D01*
X15151167Y-5442473D01*
X15146000Y-5443501D01*
X15109000Y-5443501D01*
X15103833Y-5442473D01*
X15099453Y-5439547D01*
X15096527Y-5435167D01*
X15095499Y-5430000D01*
X15095499Y-5403000D01*
X15096527Y-5397833D01*
X15099453Y-5393453D01*
X15103833Y-5390527D01*
X15109000Y-5389499D01*
X15146000Y-5389499D01*
X15151167Y-5390527D01*
G37*
G36*
X15659255Y-5293960D02*
G01*
X15677279Y-5301426D01*
X15691074Y-5315221D01*
X15698540Y-5333245D01*
X15698540Y-5352755D01*
X15691074Y-5370779D01*
X15677279Y-5384574D01*
X15659255Y-5392040D01*
X15649500Y-5393001D01*
X15649255Y-5393001D01*
X15539745Y-5393001D01*
X15539500Y-5393001D01*
X15529745Y-5392040D01*
X15511721Y-5384574D01*
X15497926Y-5370779D01*
X15490460Y-5352755D01*
X15490460Y-5333245D01*
X15497926Y-5315221D01*
X15511721Y-5301426D01*
X15529745Y-5293960D01*
X15539500Y-5292999D01*
X15649500Y-5292999D01*
X15659255Y-5293960D01*
G37*
G36*
X16052255Y-5293960D02*
G01*
X16070279Y-5301426D01*
X16084074Y-5315221D01*
X16091540Y-5333245D01*
X16091540Y-5352755D01*
X16084074Y-5370779D01*
X16070279Y-5384574D01*
X16052255Y-5392040D01*
X16042500Y-5393001D01*
X16042255Y-5393001D01*
X15982745Y-5393001D01*
X15982500Y-5393001D01*
X15972745Y-5392040D01*
X15954721Y-5384574D01*
X15940926Y-5370779D01*
X15933460Y-5352755D01*
X15933460Y-5333245D01*
X15940926Y-5315221D01*
X15954721Y-5301426D01*
X15972745Y-5293960D01*
X15982500Y-5292999D01*
X16042500Y-5292999D01*
X16052255Y-5293960D01*
G37*
G36*
X13147432Y-5218929D02*
G01*
X13152461Y-5222289D01*
X13155821Y-5227318D01*
X13157001Y-5233250D01*
X13157001Y-5264250D01*
X13155821Y-5270182D01*
X13152461Y-5275211D01*
X13147432Y-5278571D01*
X13141500Y-5279751D01*
X13099000Y-5279751D01*
X13093068Y-5278571D01*
X13088039Y-5275211D01*
X13084679Y-5270182D01*
X13083499Y-5264250D01*
X13083499Y-5233250D01*
X13084679Y-5227318D01*
X13088039Y-5222289D01*
X13093068Y-5218929D01*
X13099000Y-5217749D01*
X13141500Y-5217749D01*
X13147432Y-5218929D01*
G37*
G36*
X13260932Y-5218929D02*
G01*
X13265961Y-5222289D01*
X13269321Y-5227318D01*
X13270501Y-5233250D01*
X13270501Y-5264250D01*
X13269321Y-5270182D01*
X13265961Y-5275211D01*
X13260932Y-5278571D01*
X13255000Y-5279751D01*
X13212500Y-5279751D01*
X13206568Y-5278571D01*
X13201539Y-5275211D01*
X13198179Y-5270182D01*
X13196999Y-5264250D01*
X13196999Y-5233250D01*
X13198179Y-5227318D01*
X13201539Y-5222289D01*
X13206568Y-5218929D01*
X13212500Y-5217749D01*
X13255000Y-5217749D01*
X13260932Y-5218929D01*
G37*
G36*
X13915167Y-5185027D02*
G01*
X13919547Y-5187953D01*
X13922473Y-5192333D01*
X13923501Y-5197500D01*
X13923501Y-5234500D01*
X13922473Y-5239667D01*
X13919547Y-5244047D01*
X13915167Y-5246973D01*
X13910000Y-5248001D01*
X13883000Y-5248001D01*
X13877833Y-5246973D01*
X13873453Y-5244047D01*
X13870527Y-5239667D01*
X13869499Y-5234500D01*
X13869499Y-5197500D01*
X13870527Y-5192333D01*
X13873453Y-5187953D01*
X13877833Y-5185027D01*
X13883000Y-5183999D01*
X13910000Y-5183999D01*
X13915167Y-5185027D01*
G37*
G36*
X14017167Y-5185027D02*
G01*
X14021547Y-5187953D01*
X14024473Y-5192333D01*
X14025501Y-5197500D01*
X14025501Y-5234500D01*
X14024473Y-5239667D01*
X14021547Y-5244047D01*
X14017167Y-5246973D01*
X14012000Y-5248001D01*
X13985000Y-5248001D01*
X13979833Y-5246973D01*
X13975453Y-5244047D01*
X13972527Y-5239667D01*
X13971499Y-5234500D01*
X13971499Y-5197500D01*
X13972527Y-5192333D01*
X13975453Y-5187953D01*
X13979833Y-5185027D01*
X13985000Y-5183999D01*
X14012000Y-5183999D01*
X14017167Y-5185027D01*
G37*
G36*
X14165167Y-5185027D02*
G01*
X14169547Y-5187953D01*
X14172473Y-5192333D01*
X14173501Y-5197500D01*
X14173501Y-5234500D01*
X14172473Y-5239667D01*
X14169547Y-5244047D01*
X14165167Y-5246973D01*
X14160000Y-5248001D01*
X14133000Y-5248001D01*
X14127833Y-5246973D01*
X14123453Y-5244047D01*
X14120527Y-5239667D01*
X14119499Y-5234500D01*
X14119499Y-5197500D01*
X14120527Y-5192333D01*
X14123453Y-5187953D01*
X14127833Y-5185027D01*
X14133000Y-5183999D01*
X14160000Y-5183999D01*
X14165167Y-5185027D01*
G37*
G36*
X14267167Y-5185027D02*
G01*
X14271547Y-5187953D01*
X14274473Y-5192333D01*
X14275501Y-5197500D01*
X14275501Y-5234500D01*
X14274473Y-5239667D01*
X14271547Y-5244047D01*
X14267167Y-5246973D01*
X14262000Y-5248001D01*
X14235000Y-5248001D01*
X14229833Y-5246973D01*
X14225453Y-5244047D01*
X14222527Y-5239667D01*
X14221499Y-5234500D01*
X14221499Y-5197500D01*
X14222527Y-5192333D01*
X14225453Y-5187953D01*
X14229833Y-5185027D01*
X14235000Y-5183999D01*
X14262000Y-5183999D01*
X14267167Y-5185027D01*
G37*
G36*
X14485917Y-5185027D02*
G01*
X14490297Y-5187953D01*
X14493223Y-5192333D01*
X14494251Y-5197500D01*
X14494251Y-5234500D01*
X14493223Y-5239667D01*
X14490297Y-5244047D01*
X14485917Y-5246973D01*
X14480750Y-5248001D01*
X14453750Y-5248001D01*
X14448583Y-5246973D01*
X14444203Y-5244047D01*
X14441277Y-5239667D01*
X14440249Y-5234500D01*
X14440249Y-5197500D01*
X14441277Y-5192333D01*
X14444203Y-5187953D01*
X14448583Y-5185027D01*
X14453750Y-5183999D01*
X14480750Y-5183999D01*
X14485917Y-5185027D01*
G37*
G36*
X14587917Y-5185027D02*
G01*
X14592297Y-5187953D01*
X14595223Y-5192333D01*
X14596251Y-5197500D01*
X14596251Y-5234500D01*
X14595223Y-5239667D01*
X14592297Y-5244047D01*
X14587917Y-5246973D01*
X14582750Y-5248001D01*
X14555750Y-5248001D01*
X14550583Y-5246973D01*
X14546203Y-5244047D01*
X14543277Y-5239667D01*
X14542249Y-5234500D01*
X14542249Y-5197500D01*
X14543277Y-5192333D01*
X14546203Y-5187953D01*
X14550583Y-5185027D01*
X14555750Y-5183999D01*
X14582750Y-5183999D01*
X14587917Y-5185027D01*
G37*
G36*
X14713682Y-5186179D02*
G01*
X14718711Y-5189539D01*
X14722071Y-5194568D01*
X14723251Y-5200500D01*
X14723251Y-5231500D01*
X14722071Y-5237432D01*
X14718711Y-5242461D01*
X14713682Y-5245821D01*
X14707750Y-5247001D01*
X14665250Y-5247001D01*
X14659318Y-5245821D01*
X14654289Y-5242461D01*
X14650929Y-5237432D01*
X14649749Y-5231500D01*
X14649749Y-5200500D01*
X14650929Y-5194568D01*
X14654289Y-5189539D01*
X14659318Y-5186179D01*
X14665250Y-5184999D01*
X14707750Y-5184999D01*
X14713682Y-5186179D01*
G37*
G36*
X14827182Y-5186179D02*
G01*
X14832211Y-5189539D01*
X14835571Y-5194568D01*
X14836751Y-5200500D01*
X14836751Y-5231500D01*
X14835571Y-5237432D01*
X14832211Y-5242461D01*
X14827182Y-5245821D01*
X14821250Y-5247001D01*
X14778750Y-5247001D01*
X14772818Y-5245821D01*
X14767789Y-5242461D01*
X14764429Y-5237432D01*
X14763249Y-5231500D01*
X14763249Y-5200500D01*
X14764429Y-5194568D01*
X14767789Y-5189539D01*
X14772818Y-5186179D01*
X14778750Y-5184999D01*
X14821250Y-5184999D01*
X14827182Y-5186179D01*
G37*
G36*
X13426167Y-5165027D02*
G01*
X13430547Y-5167953D01*
X13433473Y-5172333D01*
X13434501Y-5177500D01*
X13434501Y-5204500D01*
X13433473Y-5209667D01*
X13430547Y-5214047D01*
X13426167Y-5216973D01*
X13421000Y-5218001D01*
X13384000Y-5218001D01*
X13378833Y-5216973D01*
X13374453Y-5214047D01*
X13371527Y-5209667D01*
X13370499Y-5204500D01*
X13370499Y-5177500D01*
X13371527Y-5172333D01*
X13374453Y-5167953D01*
X13378833Y-5165027D01*
X13384000Y-5163999D01*
X13421000Y-5163999D01*
X13426167Y-5165027D01*
G37*
G36*
X15297932Y-5110179D02*
G01*
X15302961Y-5113539D01*
X15306321Y-5118568D01*
X15307501Y-5124500D01*
X15307501Y-5155500D01*
X15306321Y-5161432D01*
X15302961Y-5166461D01*
X15297932Y-5169821D01*
X15292000Y-5171001D01*
X15249500Y-5171001D01*
X15243568Y-5169821D01*
X15238539Y-5166461D01*
X15235179Y-5161432D01*
X15233999Y-5155500D01*
X15233999Y-5124500D01*
X15235179Y-5118568D01*
X15238539Y-5113539D01*
X15243568Y-5110179D01*
X15249500Y-5108999D01*
X15292000Y-5108999D01*
X15297932Y-5110179D01*
G37*
G36*
X15411432Y-5110179D02*
G01*
X15416461Y-5113539D01*
X15419821Y-5118568D01*
X15421001Y-5124500D01*
X15421001Y-5155500D01*
X15419821Y-5161432D01*
X15416461Y-5166461D01*
X15411432Y-5169821D01*
X15405500Y-5171001D01*
X15363000Y-5171001D01*
X15357068Y-5169821D01*
X15352039Y-5166461D01*
X15348679Y-5161432D01*
X15347499Y-5155500D01*
X15347499Y-5124500D01*
X15348679Y-5118568D01*
X15352039Y-5113539D01*
X15357068Y-5110179D01*
X15363000Y-5108999D01*
X15405500Y-5108999D01*
X15411432Y-5110179D01*
G37*
G36*
X15167123Y-5092759D02*
G01*
X15172314Y-5096227D01*
X15175783Y-5101419D01*
X15177001Y-5107542D01*
X15177001Y-5152042D01*
X15175783Y-5158165D01*
X15172314Y-5163356D01*
X15167123Y-5166825D01*
X15161000Y-5168043D01*
X15129000Y-5168043D01*
X15122877Y-5166825D01*
X15117686Y-5163356D01*
X15114217Y-5158165D01*
X15112999Y-5152042D01*
X15112999Y-5107542D01*
X15114217Y-5101419D01*
X15117686Y-5096227D01*
X15122877Y-5092759D01*
X15129000Y-5091541D01*
X15161000Y-5091541D01*
X15167123Y-5092759D01*
G37*
G36*
X13426167Y-5063027D02*
G01*
X13430547Y-5065953D01*
X13433473Y-5070333D01*
X13434501Y-5075500D01*
X13434501Y-5102500D01*
X13433473Y-5107667D01*
X13430547Y-5112047D01*
X13426167Y-5114973D01*
X13421000Y-5116001D01*
X13384000Y-5116001D01*
X13378833Y-5114973D01*
X13374453Y-5112047D01*
X13371527Y-5107667D01*
X13370499Y-5102500D01*
X13370499Y-5075500D01*
X13371527Y-5070333D01*
X13374453Y-5065953D01*
X13378833Y-5063027D01*
X13384000Y-5061999D01*
X13421000Y-5061999D01*
X13426167Y-5063027D01*
G37*
G36*
X12986682Y-5020179D02*
G01*
X12991711Y-5023539D01*
X12995071Y-5028568D01*
X12996251Y-5034500D01*
X12996251Y-5065500D01*
X12995071Y-5071432D01*
X12991711Y-5076461D01*
X12986682Y-5079821D01*
X12980750Y-5081001D01*
X12938250Y-5081001D01*
X12932318Y-5079821D01*
X12927289Y-5076461D01*
X12923929Y-5071432D01*
X12922749Y-5065500D01*
X12922749Y-5034500D01*
X12923929Y-5028568D01*
X12927289Y-5023539D01*
X12932318Y-5020179D01*
X12938250Y-5018999D01*
X12980750Y-5018999D01*
X12986682Y-5020179D01*
G37*
G36*
X13100182Y-5020179D02*
G01*
X13105211Y-5023539D01*
X13108571Y-5028568D01*
X13109751Y-5034500D01*
X13109751Y-5065500D01*
X13108571Y-5071432D01*
X13105211Y-5076461D01*
X13100182Y-5079821D01*
X13094250Y-5081001D01*
X13051750Y-5081001D01*
X13045818Y-5079821D01*
X13040789Y-5076461D01*
X13037429Y-5071432D01*
X13036249Y-5065500D01*
X13036249Y-5034500D01*
X13037429Y-5028568D01*
X13040789Y-5023539D01*
X13045818Y-5020179D01*
X13051750Y-5018999D01*
X13094250Y-5018999D01*
X13100182Y-5020179D01*
G37*
G36*
X13815556Y-5019355D02*
G01*
X13819206Y-5021794D01*
X13821645Y-5025444D01*
X13822501Y-5029750D01*
X13822501Y-5052250D01*
X13821645Y-5056556D01*
X13819206Y-5060206D01*
X13815556Y-5062645D01*
X13811250Y-5063501D01*
X13773750Y-5063501D01*
X13769444Y-5062645D01*
X13765794Y-5060206D01*
X13763355Y-5056556D01*
X13762499Y-5052250D01*
X13762499Y-5029750D01*
X13763355Y-5025444D01*
X13765794Y-5021794D01*
X13769444Y-5019355D01*
X13773750Y-5018499D01*
X13811250Y-5018499D01*
X13815556Y-5019355D01*
G37*
G36*
X14025556Y-5019355D02*
G01*
X14029206Y-5021794D01*
X14031645Y-5025444D01*
X14032501Y-5029750D01*
X14032501Y-5052250D01*
X14031645Y-5056556D01*
X14029206Y-5060206D01*
X14025556Y-5062645D01*
X14021250Y-5063501D01*
X13983750Y-5063501D01*
X13979444Y-5062645D01*
X13975794Y-5060206D01*
X13973355Y-5056556D01*
X13972499Y-5052250D01*
X13972499Y-5029750D01*
X13973355Y-5025444D01*
X13975794Y-5021794D01*
X13979444Y-5019355D01*
X13983750Y-5018499D01*
X14021250Y-5018499D01*
X14025556Y-5019355D01*
G37*
G36*
X14165556Y-5019355D02*
G01*
X14169206Y-5021794D01*
X14171645Y-5025444D01*
X14172501Y-5029750D01*
X14172501Y-5052250D01*
X14171645Y-5056556D01*
X14169206Y-5060206D01*
X14165556Y-5062645D01*
X14161250Y-5063501D01*
X14123750Y-5063501D01*
X14119444Y-5062645D01*
X14115794Y-5060206D01*
X14113355Y-5056556D01*
X14112499Y-5052250D01*
X14112499Y-5029750D01*
X14113355Y-5025444D01*
X14115794Y-5021794D01*
X14119444Y-5019355D01*
X14123750Y-5018499D01*
X14161250Y-5018499D01*
X14165556Y-5019355D01*
G37*
G36*
X14375556Y-5019355D02*
G01*
X14379206Y-5021794D01*
X14381645Y-5025444D01*
X14382501Y-5029750D01*
X14382501Y-5052250D01*
X14381645Y-5056556D01*
X14379206Y-5060206D01*
X14375556Y-5062645D01*
X14371250Y-5063501D01*
X14333750Y-5063501D01*
X14329444Y-5062645D01*
X14325794Y-5060206D01*
X14323355Y-5056556D01*
X14322499Y-5052250D01*
X14322499Y-5029750D01*
X14323355Y-5025444D01*
X14325794Y-5021794D01*
X14329444Y-5019355D01*
X14333750Y-5018499D01*
X14371250Y-5018499D01*
X14375556Y-5019355D01*
G37*
G36*
X14515556Y-5019355D02*
G01*
X14519206Y-5021794D01*
X14521645Y-5025444D01*
X14522501Y-5029750D01*
X14522501Y-5052250D01*
X14521645Y-5056556D01*
X14519206Y-5060206D01*
X14515556Y-5062645D01*
X14511250Y-5063501D01*
X14473750Y-5063501D01*
X14469444Y-5062645D01*
X14465794Y-5060206D01*
X14463355Y-5056556D01*
X14462499Y-5052250D01*
X14462499Y-5029750D01*
X14463355Y-5025444D01*
X14465794Y-5021794D01*
X14469444Y-5019355D01*
X14473750Y-5018499D01*
X14511250Y-5018499D01*
X14515556Y-5019355D01*
G37*
G36*
X14725556Y-5019355D02*
G01*
X14729206Y-5021794D01*
X14731645Y-5025444D01*
X14732501Y-5029750D01*
X14732501Y-5052250D01*
X14731645Y-5056556D01*
X14729206Y-5060206D01*
X14725556Y-5062645D01*
X14721250Y-5063501D01*
X14683750Y-5063501D01*
X14679444Y-5062645D01*
X14675794Y-5060206D01*
X14673355Y-5056556D01*
X14672499Y-5052250D01*
X14672499Y-5029750D01*
X14673355Y-5025444D01*
X14675794Y-5021794D01*
X14679444Y-5019355D01*
X14683750Y-5018499D01*
X14721250Y-5018499D01*
X14725556Y-5019355D01*
G37*
G36*
X15167123Y-4978259D02*
G01*
X15172314Y-4981727D01*
X15175783Y-4986919D01*
X15177001Y-4993042D01*
X15177001Y-5037542D01*
X15175783Y-5043665D01*
X15172314Y-5048856D01*
X15167123Y-5052325D01*
X15161000Y-5053543D01*
X15129000Y-5053543D01*
X15122877Y-5052325D01*
X15117686Y-5048856D01*
X15114217Y-5043665D01*
X15112999Y-5037542D01*
X15112999Y-4993042D01*
X15114217Y-4986919D01*
X15117686Y-4981727D01*
X15122877Y-4978259D01*
X15129000Y-4977041D01*
X15161000Y-4977041D01*
X15167123Y-4978259D01*
G37*
G36*
X15053682Y-4968721D02*
G01*
X15058711Y-4972081D01*
X15062071Y-4977110D01*
X15063251Y-4983042D01*
X15063251Y-5025542D01*
X15062071Y-5031474D01*
X15058711Y-5036503D01*
X15053682Y-5039863D01*
X15047750Y-5041043D01*
X15016750Y-5041043D01*
X15010818Y-5039863D01*
X15005789Y-5036503D01*
X15002429Y-5031474D01*
X15001249Y-5025542D01*
X15001249Y-4983042D01*
X15002429Y-4977110D01*
X15005789Y-4972081D01*
X15010818Y-4968721D01*
X15016750Y-4967541D01*
X15047750Y-4967541D01*
X15053682Y-4968721D01*
G37*
G36*
X13291667Y-4869027D02*
G01*
X13296047Y-4871953D01*
X13298973Y-4876333D01*
X13300001Y-4881500D01*
X13300001Y-4918500D01*
X13298973Y-4923667D01*
X13296047Y-4928047D01*
X13291667Y-4930973D01*
X13286500Y-4932001D01*
X13259500Y-4932001D01*
X13254333Y-4930973D01*
X13249953Y-4928047D01*
X13247027Y-4923667D01*
X13245999Y-4918500D01*
X13245999Y-4881500D01*
X13247027Y-4876333D01*
X13249953Y-4871953D01*
X13254333Y-4869027D01*
X13259500Y-4867999D01*
X13286500Y-4867999D01*
X13291667Y-4869027D01*
G37*
G36*
X13393667Y-4869027D02*
G01*
X13398047Y-4871953D01*
X13400973Y-4876333D01*
X13402001Y-4881500D01*
X13402001Y-4918500D01*
X13400973Y-4923667D01*
X13398047Y-4928047D01*
X13393667Y-4930973D01*
X13388500Y-4932001D01*
X13361500Y-4932001D01*
X13356333Y-4930973D01*
X13351953Y-4928047D01*
X13349027Y-4923667D01*
X13347999Y-4918500D01*
X13347999Y-4881500D01*
X13349027Y-4876333D01*
X13351953Y-4871953D01*
X13356333Y-4869027D01*
X13361500Y-4867999D01*
X13388500Y-4867999D01*
X13393667Y-4869027D01*
G37*
G36*
X12993432Y-4870179D02*
G01*
X12998461Y-4873539D01*
X13001821Y-4878568D01*
X13003001Y-4884500D01*
X13003001Y-4915500D01*
X13001821Y-4921432D01*
X12998461Y-4926461D01*
X12993432Y-4929821D01*
X12987500Y-4931001D01*
X12945000Y-4931001D01*
X12939068Y-4929821D01*
X12934039Y-4926461D01*
X12930679Y-4921432D01*
X12929499Y-4915500D01*
X12929499Y-4884500D01*
X12930679Y-4878568D01*
X12934039Y-4873539D01*
X12939068Y-4870179D01*
X12945000Y-4868999D01*
X12987500Y-4868999D01*
X12993432Y-4870179D01*
G37*
G36*
X13106932Y-4870179D02*
G01*
X13111961Y-4873539D01*
X13115321Y-4878568D01*
X13116501Y-4884500D01*
X13116501Y-4915500D01*
X13115321Y-4921432D01*
X13111961Y-4926461D01*
X13106932Y-4929821D01*
X13101000Y-4931001D01*
X13058500Y-4931001D01*
X13052568Y-4929821D01*
X13047539Y-4926461D01*
X13044179Y-4921432D01*
X13042999Y-4915500D01*
X13042999Y-4884500D01*
X13044179Y-4878568D01*
X13047539Y-4873539D01*
X13052568Y-4870179D01*
X13058500Y-4868999D01*
X13101000Y-4868999D01*
X13106932Y-4870179D01*
G37*
G36*
X15053682Y-4855221D02*
G01*
X15058711Y-4858581D01*
X15062071Y-4863610D01*
X15063251Y-4869542D01*
X15063251Y-4912042D01*
X15062071Y-4917974D01*
X15058711Y-4923003D01*
X15053682Y-4926363D01*
X15047750Y-4927543D01*
X15016750Y-4927543D01*
X15010818Y-4926363D01*
X15005789Y-4923003D01*
X15002429Y-4917974D01*
X15001249Y-4912042D01*
X15001249Y-4869542D01*
X15002429Y-4863610D01*
X15005789Y-4858581D01*
X15010818Y-4855221D01*
X15016750Y-4854041D01*
X15047750Y-4854041D01*
X15053682Y-4855221D01*
G37*
G36*
X13098000Y-4694999D02*
G01*
X13098001Y-4694999D01*
X13098001Y-4695000D01*
X13098001Y-4695000D01*
X13098001Y-4805000D01*
X13098001Y-4805000D01*
X13098001Y-4805001D01*
X13098000Y-4805001D01*
X13098000Y-4805001D01*
X12948000Y-4805001D01*
X12948000Y-4805001D01*
X12947999Y-4805001D01*
X12947999Y-4805000D01*
X12947999Y-4805000D01*
X12947999Y-4695000D01*
X12947999Y-4695000D01*
X12947999Y-4694999D01*
X12948000Y-4694999D01*
X12948000Y-4694999D01*
X13098000Y-4694999D01*
X13098000Y-4694999D01*
G37*
G36*
X13398000Y-4694999D02*
G01*
X13398001Y-4694999D01*
X13398001Y-4695000D01*
X13398001Y-4695000D01*
X13398001Y-4805000D01*
X13398001Y-4805000D01*
X13398001Y-4805001D01*
X13398000Y-4805001D01*
X13398000Y-4805001D01*
X13248000Y-4805001D01*
X13248000Y-4805001D01*
X13247999Y-4805001D01*
X13247999Y-4805000D01*
X13247999Y-4805000D01*
X13247999Y-4695000D01*
X13247999Y-4695000D01*
X13247999Y-4694999D01*
X13248000Y-4694999D01*
X13248000Y-4694999D01*
X13398000Y-4694999D01*
X13398000Y-4694999D01*
G37*
G36*
X15180432Y-4737679D02*
G01*
X15185461Y-4741039D01*
X15188821Y-4746068D01*
X15190001Y-4752000D01*
X15190001Y-4783000D01*
X15188821Y-4788932D01*
X15185461Y-4793961D01*
X15180432Y-4797321D01*
X15174500Y-4798501D01*
X15132000Y-4798501D01*
X15126068Y-4797321D01*
X15121039Y-4793961D01*
X15117679Y-4788932D01*
X15116499Y-4783000D01*
X15116499Y-4752000D01*
X15117679Y-4746068D01*
X15121039Y-4741039D01*
X15126068Y-4737679D01*
X15132000Y-4736499D01*
X15174500Y-4736499D01*
X15180432Y-4737679D01*
G37*
G36*
X15293932Y-4737679D02*
G01*
X15298961Y-4741039D01*
X15302321Y-4746068D01*
X15303501Y-4752000D01*
X15303501Y-4783000D01*
X15302321Y-4788932D01*
X15298961Y-4793961D01*
X15293932Y-4797321D01*
X15288000Y-4798501D01*
X15245500Y-4798501D01*
X15239568Y-4797321D01*
X15234539Y-4793961D01*
X15231179Y-4788932D01*
X15229999Y-4783000D01*
X15229999Y-4752000D01*
X15231179Y-4746068D01*
X15234539Y-4741039D01*
X15239568Y-4737679D01*
X15245500Y-4736499D01*
X15288000Y-4736499D01*
X15293932Y-4737679D01*
G37*
G36*
X14030500Y-4540999D02*
G01*
X14030501Y-4540999D01*
X14030501Y-4541000D01*
X14030501Y-4541000D01*
X14030501Y-4781000D01*
X14030501Y-4781000D01*
X14030501Y-4781001D01*
X14030500Y-4781001D01*
X14030500Y-4781001D01*
X13956500Y-4781001D01*
X13956500Y-4781001D01*
X13956499Y-4781001D01*
X13956499Y-4781000D01*
X13956499Y-4781000D01*
X13956499Y-4541000D01*
X13956499Y-4541000D01*
X13956499Y-4540999D01*
X13956500Y-4540999D01*
X13956500Y-4540999D01*
X14030500Y-4540999D01*
X14030500Y-4540999D01*
G37*
G36*
X14157500Y-4540999D02*
G01*
X14157501Y-4540999D01*
X14157501Y-4541000D01*
X14157501Y-4541000D01*
X14157501Y-4781000D01*
X14157501Y-4781000D01*
X14157501Y-4781001D01*
X14157500Y-4781001D01*
X14157500Y-4781001D01*
X14083500Y-4781001D01*
X14083500Y-4781001D01*
X14083499Y-4781001D01*
X14083499Y-4781000D01*
X14083499Y-4781000D01*
X14083499Y-4541000D01*
X14083499Y-4541000D01*
X14083499Y-4540999D01*
X14083500Y-4540999D01*
X14083500Y-4540999D01*
X14157500Y-4540999D01*
X14157500Y-4540999D01*
G37*
G36*
X14284500Y-4540999D02*
G01*
X14284501Y-4540999D01*
X14284501Y-4541000D01*
X14284501Y-4541000D01*
X14284501Y-4781000D01*
X14284501Y-4781000D01*
X14284501Y-4781001D01*
X14284500Y-4781001D01*
X14284500Y-4781001D01*
X14210500Y-4781001D01*
X14210500Y-4781001D01*
X14210499Y-4781001D01*
X14210499Y-4781000D01*
X14210499Y-4781000D01*
X14210499Y-4541000D01*
X14210499Y-4541000D01*
X14210499Y-4540999D01*
X14210500Y-4540999D01*
X14210500Y-4540999D01*
X14284500Y-4540999D01*
X14284500Y-4540999D01*
G37*
G36*
X14411500Y-4540999D02*
G01*
X14411501Y-4540999D01*
X14411501Y-4541000D01*
X14411501Y-4541000D01*
X14411501Y-4781000D01*
X14411501Y-4781000D01*
X14411501Y-4781001D01*
X14411500Y-4781001D01*
X14411500Y-4781001D01*
X14337500Y-4781001D01*
X14337500Y-4781001D01*
X14337499Y-4781001D01*
X14337499Y-4781000D01*
X14337499Y-4781000D01*
X14337499Y-4541000D01*
X14337499Y-4541000D01*
X14337499Y-4540999D01*
X14337500Y-4540999D01*
X14337500Y-4540999D01*
X14411500Y-4540999D01*
X14411500Y-4540999D01*
G37*
G36*
X14538500Y-4540999D02*
G01*
X14538501Y-4540999D01*
X14538501Y-4541000D01*
X14538501Y-4541000D01*
X14538501Y-4781000D01*
X14538501Y-4781000D01*
X14538501Y-4781001D01*
X14538500Y-4781001D01*
X14538500Y-4781001D01*
X14464500Y-4781001D01*
X14464500Y-4781001D01*
X14464499Y-4781001D01*
X14464499Y-4781000D01*
X14464499Y-4781000D01*
X14464499Y-4541000D01*
X14464499Y-4541000D01*
X14464499Y-4540999D01*
X14464500Y-4540999D01*
X14464500Y-4540999D01*
X14538500Y-4540999D01*
X14538500Y-4540999D01*
G37*
G36*
X16036403Y-4508076D02*
G01*
X16039712Y-4510288D01*
X16041924Y-4513597D01*
X16042700Y-4517500D01*
X16042700Y-4717500D01*
X16041924Y-4721403D01*
X16039712Y-4724713D01*
X16036403Y-4726924D01*
X16032500Y-4727700D01*
X15782500Y-4727700D01*
X15778597Y-4726924D01*
X15775287Y-4724713D01*
X15773076Y-4721403D01*
X15772300Y-4717500D01*
X15772300Y-4517500D01*
X15773076Y-4513597D01*
X15775287Y-4510288D01*
X15778597Y-4508076D01*
X15782500Y-4507300D01*
X16032500Y-4507300D01*
X16036403Y-4508076D01*
G37*
G36*
X15196241Y-4527391D02*
G01*
X15201107Y-4530643D01*
X15204359Y-4535509D01*
X15205501Y-4541250D01*
X15205501Y-4643750D01*
X15204359Y-4649491D01*
X15201107Y-4654357D01*
X15196241Y-4657609D01*
X15190500Y-4658751D01*
X15160500Y-4658751D01*
X15154759Y-4657609D01*
X15149893Y-4654357D01*
X15146641Y-4649491D01*
X15145499Y-4643750D01*
X15145499Y-4541250D01*
X15146641Y-4535509D01*
X15149893Y-4530643D01*
X15154759Y-4527391D01*
X15160500Y-4526249D01*
X15190500Y-4526249D01*
X15196241Y-4527391D01*
G37*
G36*
X15291241Y-4527391D02*
G01*
X15296107Y-4530643D01*
X15299359Y-4535509D01*
X15300501Y-4541250D01*
X15300501Y-4643750D01*
X15299359Y-4649491D01*
X15296107Y-4654357D01*
X15291241Y-4657609D01*
X15285500Y-4658751D01*
X15255500Y-4658751D01*
X15249759Y-4657609D01*
X15244893Y-4654357D01*
X15241641Y-4649491D01*
X15240499Y-4643750D01*
X15240499Y-4541250D01*
X15241641Y-4535509D01*
X15244893Y-4530643D01*
X15249759Y-4527391D01*
X15255500Y-4526249D01*
X15285500Y-4526249D01*
X15291241Y-4527391D01*
G37*
G36*
X15386241Y-4527391D02*
G01*
X15391107Y-4530643D01*
X15394359Y-4535509D01*
X15395501Y-4541250D01*
X15395501Y-4643750D01*
X15394359Y-4649491D01*
X15391107Y-4654357D01*
X15386241Y-4657609D01*
X15380500Y-4658751D01*
X15350500Y-4658751D01*
X15344759Y-4657609D01*
X15339893Y-4654357D01*
X15336641Y-4649491D01*
X15335499Y-4643750D01*
X15335499Y-4541250D01*
X15336641Y-4535509D01*
X15339893Y-4530643D01*
X15344759Y-4527391D01*
X15350500Y-4526249D01*
X15380500Y-4526249D01*
X15386241Y-4527391D01*
G37*
G36*
X13098000Y-4544999D02*
G01*
X13098001Y-4544999D01*
X13098001Y-4545000D01*
X13098001Y-4545000D01*
X13098001Y-4655000D01*
X13098001Y-4655000D01*
X13098001Y-4655001D01*
X13098000Y-4655001D01*
X13098000Y-4655001D01*
X12948000Y-4655001D01*
X12948000Y-4655001D01*
X12947999Y-4655001D01*
X12947999Y-4655000D01*
X12947999Y-4655000D01*
X12947999Y-4545000D01*
X12947999Y-4545000D01*
X12947999Y-4544999D01*
X12948000Y-4544999D01*
X12948000Y-4544999D01*
X13098000Y-4544999D01*
X13098000Y-4544999D01*
G37*
G36*
X13398000Y-4544999D02*
G01*
X13398001Y-4544999D01*
X13398001Y-4545000D01*
X13398001Y-4545000D01*
X13398001Y-4655000D01*
X13398001Y-4655000D01*
X13398001Y-4655001D01*
X13398000Y-4655001D01*
X13398000Y-4655001D01*
X13248000Y-4655001D01*
X13248000Y-4655001D01*
X13247999Y-4655001D01*
X13247999Y-4655000D01*
X13247999Y-4655000D01*
X13247999Y-4545000D01*
X13247999Y-4545000D01*
X13247999Y-4544999D01*
X13248000Y-4544999D01*
X13248000Y-4544999D01*
X13398000Y-4544999D01*
X13398000Y-4544999D01*
G37*
G36*
X13763056Y-4441855D02*
G01*
X13766706Y-4444294D01*
X13769145Y-4447944D01*
X13770001Y-4452250D01*
X13770001Y-4489750D01*
X13769145Y-4494056D01*
X13766706Y-4497706D01*
X13763056Y-4500145D01*
X13758750Y-4501001D01*
X13736250Y-4501001D01*
X13731944Y-4500145D01*
X13728294Y-4497706D01*
X13725855Y-4494056D01*
X13724999Y-4489750D01*
X13724999Y-4452250D01*
X13725855Y-4447944D01*
X13728294Y-4444294D01*
X13731944Y-4441855D01*
X13736250Y-4440999D01*
X13758750Y-4440999D01*
X13763056Y-4441855D01*
G37*
G36*
X12990667Y-4419027D02*
G01*
X12995047Y-4421953D01*
X12997973Y-4426333D01*
X12999001Y-4431500D01*
X12999001Y-4468500D01*
X12997973Y-4473667D01*
X12995047Y-4478047D01*
X12990667Y-4480973D01*
X12985500Y-4482001D01*
X12958500Y-4482001D01*
X12953333Y-4480973D01*
X12948953Y-4478047D01*
X12946027Y-4473667D01*
X12944999Y-4468500D01*
X12944999Y-4431500D01*
X12946027Y-4426333D01*
X12948953Y-4421953D01*
X12953333Y-4419027D01*
X12958500Y-4417999D01*
X12985500Y-4417999D01*
X12990667Y-4419027D01*
G37*
G36*
X13092667Y-4419027D02*
G01*
X13097047Y-4421953D01*
X13099973Y-4426333D01*
X13101001Y-4431500D01*
X13101001Y-4468500D01*
X13099973Y-4473667D01*
X13097047Y-4478047D01*
X13092667Y-4480973D01*
X13087500Y-4482001D01*
X13060500Y-4482001D01*
X13055333Y-4480973D01*
X13050953Y-4478047D01*
X13048027Y-4473667D01*
X13046999Y-4468500D01*
X13046999Y-4431500D01*
X13048027Y-4426333D01*
X13050953Y-4421953D01*
X13055333Y-4419027D01*
X13060500Y-4417999D01*
X13087500Y-4417999D01*
X13092667Y-4419027D01*
G37*
G36*
X13290667Y-4419027D02*
G01*
X13295047Y-4421953D01*
X13297973Y-4426333D01*
X13299001Y-4431500D01*
X13299001Y-4468500D01*
X13297973Y-4473667D01*
X13295047Y-4478047D01*
X13290667Y-4480973D01*
X13285500Y-4482001D01*
X13258500Y-4482001D01*
X13253333Y-4480973D01*
X13248953Y-4478047D01*
X13246027Y-4473667D01*
X13244999Y-4468500D01*
X13244999Y-4431500D01*
X13246027Y-4426333D01*
X13248953Y-4421953D01*
X13253333Y-4419027D01*
X13258500Y-4417999D01*
X13285500Y-4417999D01*
X13290667Y-4419027D01*
G37*
G36*
X13392667Y-4419027D02*
G01*
X13397047Y-4421953D01*
X13399973Y-4426333D01*
X13401001Y-4431500D01*
X13401001Y-4468500D01*
X13399973Y-4473667D01*
X13397047Y-4478047D01*
X13392667Y-4480973D01*
X13387500Y-4482001D01*
X13360500Y-4482001D01*
X13355333Y-4480973D01*
X13350953Y-4478047D01*
X13348027Y-4473667D01*
X13346999Y-4468500D01*
X13346999Y-4431500D01*
X13348027Y-4426333D01*
X13350953Y-4421953D01*
X13355333Y-4419027D01*
X13360500Y-4417999D01*
X13387500Y-4417999D01*
X13392667Y-4419027D01*
G37*
G36*
X15196241Y-4299891D02*
G01*
X15201107Y-4303143D01*
X15204359Y-4308009D01*
X15205501Y-4313750D01*
X15205501Y-4416250D01*
X15204359Y-4421991D01*
X15201107Y-4426857D01*
X15196241Y-4430109D01*
X15190500Y-4431251D01*
X15160500Y-4431251D01*
X15154759Y-4430109D01*
X15149893Y-4426857D01*
X15146641Y-4421991D01*
X15145499Y-4416250D01*
X15145499Y-4313750D01*
X15146641Y-4308009D01*
X15149893Y-4303143D01*
X15154759Y-4299891D01*
X15160500Y-4298749D01*
X15190500Y-4298749D01*
X15196241Y-4299891D01*
G37*
G36*
X15386241Y-4299891D02*
G01*
X15391107Y-4303143D01*
X15394359Y-4308009D01*
X15395501Y-4313750D01*
X15395501Y-4416250D01*
X15394359Y-4421991D01*
X15391107Y-4426857D01*
X15386241Y-4430109D01*
X15380500Y-4431251D01*
X15350500Y-4431251D01*
X15344759Y-4430109D01*
X15339893Y-4426857D01*
X15336641Y-4421991D01*
X15335499Y-4416250D01*
X15335499Y-4313750D01*
X15336641Y-4308009D01*
X15339893Y-4303143D01*
X15344759Y-4299891D01*
X15350500Y-4298749D01*
X15380500Y-4298749D01*
X15386241Y-4299891D01*
G37*
G36*
X14030500Y-4150999D02*
G01*
X14030501Y-4150999D01*
X14030501Y-4151000D01*
X14030501Y-4151000D01*
X14030501Y-4391000D01*
X14030501Y-4391000D01*
X14030501Y-4391001D01*
X14030500Y-4391001D01*
X14030500Y-4391001D01*
X13956500Y-4391001D01*
X13956500Y-4391001D01*
X13956499Y-4391001D01*
X13956499Y-4391000D01*
X13956499Y-4391000D01*
X13956499Y-4151000D01*
X13956499Y-4151000D01*
X13956499Y-4150999D01*
X13956500Y-4150999D01*
X13956500Y-4150999D01*
X14030500Y-4150999D01*
X14030500Y-4150999D01*
G37*
G36*
X14157500Y-4150999D02*
G01*
X14157501Y-4150999D01*
X14157501Y-4151000D01*
X14157501Y-4151000D01*
X14157501Y-4391000D01*
X14157501Y-4391000D01*
X14157501Y-4391001D01*
X14157500Y-4391001D01*
X14157500Y-4391001D01*
X14083500Y-4391001D01*
X14083500Y-4391001D01*
X14083499Y-4391001D01*
X14083499Y-4391000D01*
X14083499Y-4391000D01*
X14083499Y-4151000D01*
X14083499Y-4151000D01*
X14083499Y-4150999D01*
X14083500Y-4150999D01*
X14083500Y-4150999D01*
X14157500Y-4150999D01*
X14157500Y-4150999D01*
G37*
G36*
X14284500Y-4150999D02*
G01*
X14284501Y-4150999D01*
X14284501Y-4151000D01*
X14284501Y-4151000D01*
X14284501Y-4391000D01*
X14284501Y-4391000D01*
X14284501Y-4391001D01*
X14284500Y-4391001D01*
X14284500Y-4391001D01*
X14210500Y-4391001D01*
X14210500Y-4391001D01*
X14210499Y-4391001D01*
X14210499Y-4391000D01*
X14210499Y-4391000D01*
X14210499Y-4151000D01*
X14210499Y-4151000D01*
X14210499Y-4150999D01*
X14210500Y-4150999D01*
X14210500Y-4150999D01*
X14284500Y-4150999D01*
X14284500Y-4150999D01*
G37*
G36*
X14411500Y-4150999D02*
G01*
X14411501Y-4150999D01*
X14411501Y-4151000D01*
X14411501Y-4151000D01*
X14411501Y-4391000D01*
X14411501Y-4391000D01*
X14411501Y-4391001D01*
X14411500Y-4391001D01*
X14411500Y-4391001D01*
X14337500Y-4391001D01*
X14337500Y-4391001D01*
X14337499Y-4391001D01*
X14337499Y-4391000D01*
X14337499Y-4391000D01*
X14337499Y-4151000D01*
X14337499Y-4151000D01*
X14337499Y-4150999D01*
X14337500Y-4150999D01*
X14337500Y-4150999D01*
X14411500Y-4150999D01*
X14411500Y-4150999D01*
G37*
G36*
X14538500Y-4150999D02*
G01*
X14538501Y-4150999D01*
X14538501Y-4151000D01*
X14538501Y-4151000D01*
X14538501Y-4391000D01*
X14538501Y-4391000D01*
X14538501Y-4391001D01*
X14538500Y-4391001D01*
X14538500Y-4391001D01*
X14464500Y-4391001D01*
X14464500Y-4391001D01*
X14464499Y-4391001D01*
X14464499Y-4391000D01*
X14464499Y-4391000D01*
X14464499Y-4151000D01*
X14464499Y-4151000D01*
X14464499Y-4150999D01*
X14464500Y-4150999D01*
X14464500Y-4150999D01*
X14538500Y-4150999D01*
X14538500Y-4150999D01*
G37*
G36*
X13596167Y-4316027D02*
G01*
X13600547Y-4318953D01*
X13603473Y-4323333D01*
X13604501Y-4328500D01*
X13604501Y-4355500D01*
X13603473Y-4360667D01*
X13600547Y-4365047D01*
X13596167Y-4367973D01*
X13591000Y-4369001D01*
X13554000Y-4369001D01*
X13548833Y-4367973D01*
X13544453Y-4365047D01*
X13541527Y-4360667D01*
X13540499Y-4355500D01*
X13540499Y-4328500D01*
X13541527Y-4323333D01*
X13544453Y-4318953D01*
X13548833Y-4316027D01*
X13554000Y-4314999D01*
X13591000Y-4314999D01*
X13596167Y-4316027D01*
G37*
G36*
X13763056Y-4231855D02*
G01*
X13766706Y-4234294D01*
X13769145Y-4237944D01*
X13770001Y-4242250D01*
X13770001Y-4279750D01*
X13769145Y-4284056D01*
X13766706Y-4287706D01*
X13763056Y-4290145D01*
X13758750Y-4291001D01*
X13736250Y-4291001D01*
X13731944Y-4290145D01*
X13728294Y-4287706D01*
X13725855Y-4284056D01*
X13724999Y-4279750D01*
X13724999Y-4242250D01*
X13725855Y-4237944D01*
X13728294Y-4234294D01*
X13731944Y-4231855D01*
X13736250Y-4230999D01*
X13758750Y-4230999D01*
X13763056Y-4231855D01*
G37*
G36*
X13596167Y-4214027D02*
G01*
X13600547Y-4216953D01*
X13603473Y-4221333D01*
X13604501Y-4226500D01*
X13604501Y-4253500D01*
X13603473Y-4258667D01*
X13600547Y-4263047D01*
X13596167Y-4265973D01*
X13591000Y-4267001D01*
X13554000Y-4267001D01*
X13548833Y-4265973D01*
X13544453Y-4263047D01*
X13541527Y-4258667D01*
X13540499Y-4253500D01*
X13540499Y-4226500D01*
X13541527Y-4221333D01*
X13544453Y-4216953D01*
X13548833Y-4214027D01*
X13554000Y-4212999D01*
X13591000Y-4212999D01*
X13596167Y-4214027D01*
G37*
G36*
X16036403Y-4008076D02*
G01*
X16039712Y-4010287D01*
X16041924Y-4013597D01*
X16042700Y-4017500D01*
X16042700Y-4217500D01*
X16041924Y-4221403D01*
X16039712Y-4224713D01*
X16036403Y-4226924D01*
X16032500Y-4227700D01*
X15782500Y-4227700D01*
X15778597Y-4226924D01*
X15775287Y-4224713D01*
X15773076Y-4221403D01*
X15772300Y-4217500D01*
X15772300Y-4017500D01*
X15773076Y-4013597D01*
X15775287Y-4010287D01*
X15778597Y-4008076D01*
X15782500Y-4007300D01*
X16032500Y-4007300D01*
X16036403Y-4008076D01*
G37*
G36*
X15084417Y-4161527D02*
G01*
X15088797Y-4164453D01*
X15091723Y-4168833D01*
X15092751Y-4174000D01*
X15092751Y-4211000D01*
X15091723Y-4216167D01*
X15088797Y-4220547D01*
X15084417Y-4223473D01*
X15079250Y-4224501D01*
X15052250Y-4224501D01*
X15047083Y-4223473D01*
X15042703Y-4220547D01*
X15039777Y-4216167D01*
X15038749Y-4211000D01*
X15038749Y-4174000D01*
X15039777Y-4168833D01*
X15042703Y-4164453D01*
X15047083Y-4161527D01*
X15052250Y-4160499D01*
X15079250Y-4160499D01*
X15084417Y-4161527D01*
G37*
G36*
X15186417Y-4161527D02*
G01*
X15190797Y-4164453D01*
X15193723Y-4168833D01*
X15194751Y-4174000D01*
X15194751Y-4211000D01*
X15193723Y-4216167D01*
X15190797Y-4220547D01*
X15186417Y-4223473D01*
X15181250Y-4224501D01*
X15154250Y-4224501D01*
X15149083Y-4223473D01*
X15144703Y-4220547D01*
X15141777Y-4216167D01*
X15140749Y-4211000D01*
X15140749Y-4174000D01*
X15141777Y-4168833D01*
X15144703Y-4164453D01*
X15149083Y-4161527D01*
X15154250Y-4160499D01*
X15181250Y-4160499D01*
X15186417Y-4161527D01*
G37*
G36*
X15309417Y-4161527D02*
G01*
X15313797Y-4164453D01*
X15316723Y-4168833D01*
X15317751Y-4174000D01*
X15317751Y-4211000D01*
X15316723Y-4216167D01*
X15313797Y-4220547D01*
X15309417Y-4223473D01*
X15304250Y-4224501D01*
X15277250Y-4224501D01*
X15272083Y-4223473D01*
X15267703Y-4220547D01*
X15264777Y-4216167D01*
X15263749Y-4211000D01*
X15263749Y-4174000D01*
X15264777Y-4168833D01*
X15267703Y-4164453D01*
X15272083Y-4161527D01*
X15277250Y-4160499D01*
X15304250Y-4160499D01*
X15309417Y-4161527D01*
G37*
G36*
X15411417Y-4161527D02*
G01*
X15415797Y-4164453D01*
X15418723Y-4168833D01*
X15419751Y-4174000D01*
X15419751Y-4211000D01*
X15418723Y-4216167D01*
X15415797Y-4220547D01*
X15411417Y-4223473D01*
X15406250Y-4224501D01*
X15379250Y-4224501D01*
X15374083Y-4223473D01*
X15369703Y-4220547D01*
X15366777Y-4216167D01*
X15365749Y-4211000D01*
X15365749Y-4174000D01*
X15366777Y-4168833D01*
X15369703Y-4164453D01*
X15374083Y-4161527D01*
X15379250Y-4160499D01*
X15406250Y-4160499D01*
X15411417Y-4161527D01*
G37*
G36*
X12676392Y-3899464D02*
G01*
X12720536Y-3943608D01*
X12744427Y-4001285D01*
X12744427Y-4063715D01*
X12720536Y-4121392D01*
X12676392Y-4165536D01*
X12618715Y-4189427D01*
X12556285Y-4189427D01*
X12498608Y-4165536D01*
X12454464Y-4121392D01*
X12430573Y-4063715D01*
X12430573Y-4001285D01*
X12454464Y-3943608D01*
X12498608Y-3899464D01*
X12556285Y-3875573D01*
X12618715Y-3875573D01*
X12676392Y-3899464D01*
G37*
G36*
X15312182Y-4037679D02*
G01*
X15317211Y-4041039D01*
X15320571Y-4046068D01*
X15321751Y-4052000D01*
X15321751Y-4083000D01*
X15320571Y-4088932D01*
X15317211Y-4093961D01*
X15312182Y-4097321D01*
X15306250Y-4098501D01*
X15263750Y-4098501D01*
X15257818Y-4097321D01*
X15252789Y-4093961D01*
X15249429Y-4088932D01*
X15248249Y-4083000D01*
X15248249Y-4052000D01*
X15249429Y-4046068D01*
X15252789Y-4041039D01*
X15257818Y-4037679D01*
X15263750Y-4036499D01*
X15306250Y-4036499D01*
X15312182Y-4037679D01*
G37*
G36*
X15425682Y-4037679D02*
G01*
X15430711Y-4041039D01*
X15434071Y-4046068D01*
X15435251Y-4052000D01*
X15435251Y-4083000D01*
X15434071Y-4088932D01*
X15430711Y-4093961D01*
X15425682Y-4097321D01*
X15419750Y-4098501D01*
X15377250Y-4098501D01*
X15371318Y-4097321D01*
X15366289Y-4093961D01*
X15362929Y-4088932D01*
X15361749Y-4083000D01*
X15361749Y-4052000D01*
X15362929Y-4046068D01*
X15366289Y-4041039D01*
X15371318Y-4037679D01*
X15377250Y-4036499D01*
X15419750Y-4036499D01*
X15425682Y-4037679D01*
G37*
G36*
X15312182Y-3912679D02*
G01*
X15317211Y-3916039D01*
X15320571Y-3921068D01*
X15321751Y-3927000D01*
X15321751Y-3958000D01*
X15320571Y-3963932D01*
X15317211Y-3968961D01*
X15312182Y-3972321D01*
X15306250Y-3973501D01*
X15263750Y-3973501D01*
X15257818Y-3972321D01*
X15252789Y-3968961D01*
X15249429Y-3963932D01*
X15248249Y-3958000D01*
X15248249Y-3927000D01*
X15249429Y-3921068D01*
X15252789Y-3916039D01*
X15257818Y-3912679D01*
X15263750Y-3911499D01*
X15306250Y-3911499D01*
X15312182Y-3912679D01*
G37*
G36*
X15425682Y-3912679D02*
G01*
X15430711Y-3916039D01*
X15434071Y-3921068D01*
X15435251Y-3927000D01*
X15435251Y-3958000D01*
X15434071Y-3963932D01*
X15430711Y-3968961D01*
X15425682Y-3972321D01*
X15419750Y-3973501D01*
X15377250Y-3973501D01*
X15371318Y-3972321D01*
X15366289Y-3968961D01*
X15362929Y-3963932D01*
X15361749Y-3958000D01*
X15361749Y-3927000D01*
X15362929Y-3921068D01*
X15366289Y-3916039D01*
X15371318Y-3912679D01*
X15377250Y-3911499D01*
X15419750Y-3911499D01*
X15425682Y-3912679D01*
G37*
G36*
X14415556Y-3894355D02*
G01*
X14419206Y-3896794D01*
X14421645Y-3900444D01*
X14422501Y-3904750D01*
X14422501Y-3927250D01*
X14421645Y-3931556D01*
X14419206Y-3935206D01*
X14415556Y-3937645D01*
X14411250Y-3938501D01*
X14373750Y-3938501D01*
X14369444Y-3937645D01*
X14365794Y-3935206D01*
X14363355Y-3931556D01*
X14362499Y-3927250D01*
X14362499Y-3904750D01*
X14363355Y-3900444D01*
X14365794Y-3896794D01*
X14369444Y-3894355D01*
X14373750Y-3893499D01*
X14411250Y-3893499D01*
X14415556Y-3894355D01*
G37*
G36*
X14625556Y-3894355D02*
G01*
X14629206Y-3896794D01*
X14631645Y-3900444D01*
X14632501Y-3904750D01*
X14632501Y-3927250D01*
X14631645Y-3931556D01*
X14629206Y-3935206D01*
X14625556Y-3937645D01*
X14621250Y-3938501D01*
X14583750Y-3938501D01*
X14579444Y-3937645D01*
X14575794Y-3935206D01*
X14573355Y-3931556D01*
X14572499Y-3927250D01*
X14572499Y-3904750D01*
X14573355Y-3900444D01*
X14575794Y-3896794D01*
X14579444Y-3894355D01*
X14583750Y-3893499D01*
X14621250Y-3893499D01*
X14625556Y-3894355D01*
G37*
M02*
