%TF.GenerationSoftware,KiCad,Pcbnew,9.0.0*%
%TF.CreationDate,2025-02-24T12:48:06+01:00*%
%TF.ProjectId,mixed_signal,6d697865-645f-4736-9967-6e616c2e6b69,rev?*%
%TF.SameCoordinates,Original*%
%TF.FileFunction,Soldermask,Bot*%
%TF.FilePolarity,Negative*%
%FSLAX45Y45*%
G04 Gerber Fmt 4.5, Leading zero omitted, Abs format (unit mm)*
G04 Created by KiCad (PCBNEW 9.0.0) date 2025-02-24 12:48:06*
%MOMM*%
%LPD*%
G01*
G04 APERTURE LIST*
G04 APERTURE END LIST*
G36*
X14296392Y-10126964D02*
G01*
X14340536Y-10171108D01*
X14364427Y-10228785D01*
X14364427Y-10291215D01*
X14340536Y-10348892D01*
X14296392Y-10393036D01*
X14238715Y-10416927D01*
X14176285Y-10416927D01*
X14118608Y-10393036D01*
X14074464Y-10348892D01*
X14050573Y-10291215D01*
X14050573Y-10228785D01*
X14074464Y-10171108D01*
X14118608Y-10126964D01*
X14176285Y-10103073D01*
X14238715Y-10103073D01*
X14296392Y-10126964D01*
G37*
G36*
X12595391Y-9901380D02*
G01*
X12627120Y-9933109D01*
X12644291Y-9974564D01*
X12644291Y-10019436D01*
X12627120Y-10060891D01*
X12595391Y-10092620D01*
X12553936Y-10109791D01*
X12509064Y-10109791D01*
X12467609Y-10092620D01*
X12435880Y-10060891D01*
X12418709Y-10019436D01*
X12418709Y-9974564D01*
X12435880Y-9933109D01*
X12467609Y-9901380D01*
X12509064Y-9884209D01*
X12553936Y-9884209D01*
X12595391Y-9901380D01*
G37*
G36*
X13611391Y-9899380D02*
G01*
X13643120Y-9931109D01*
X13660291Y-9972564D01*
X13660291Y-10017436D01*
X13643120Y-10058891D01*
X13611391Y-10090620D01*
X13569936Y-10107791D01*
X13525064Y-10107791D01*
X13483609Y-10090620D01*
X13451880Y-10058891D01*
X13434709Y-10017436D01*
X13434709Y-9972564D01*
X13451880Y-9931109D01*
X13483609Y-9899380D01*
X13525064Y-9882209D01*
X13569936Y-9882209D01*
X13611391Y-9899380D01*
G37*
G36*
X14943891Y-9894380D02*
G01*
X14975620Y-9926109D01*
X14992791Y-9967564D01*
X14992791Y-10012436D01*
X14975620Y-10053891D01*
X14943891Y-10085620D01*
X14902436Y-10102791D01*
X14857564Y-10102791D01*
X14816109Y-10085620D01*
X14784380Y-10053891D01*
X14767209Y-10012436D01*
X14767209Y-9967564D01*
X14784380Y-9926109D01*
X14816109Y-9894380D01*
X14857564Y-9877209D01*
X14902436Y-9877209D01*
X14943891Y-9894380D01*
G37*
G36*
X15959891Y-9892380D02*
G01*
X15991620Y-9924109D01*
X16008791Y-9965564D01*
X16008791Y-10010436D01*
X15991620Y-10051891D01*
X15959891Y-10083620D01*
X15918436Y-10100791D01*
X15873564Y-10100791D01*
X15832109Y-10083620D01*
X15800380Y-10051891D01*
X15783209Y-10010436D01*
X15783209Y-9965564D01*
X15800380Y-9924109D01*
X15832109Y-9892380D01*
X15873564Y-9875209D01*
X15918436Y-9875209D01*
X15959891Y-9892380D01*
G37*
G36*
X13081835Y-9423641D02*
G01*
X13102859Y-9444665D01*
X13114237Y-9472134D01*
X13114237Y-9501866D01*
X13102859Y-9529335D01*
X13081835Y-9550359D01*
X13054366Y-9561737D01*
X13024634Y-9561737D01*
X12997165Y-9550359D01*
X12976141Y-9529335D01*
X12964763Y-9501866D01*
X12964763Y-9472134D01*
X12976141Y-9444665D01*
X12997165Y-9423641D01*
X13024634Y-9412263D01*
X13054366Y-9412263D01*
X13081835Y-9423641D01*
G37*
G36*
X13335835Y-9423641D02*
G01*
X13356859Y-9444665D01*
X13368237Y-9472134D01*
X13368237Y-9501866D01*
X13356859Y-9529335D01*
X13335835Y-9550359D01*
X13308366Y-9561737D01*
X13278634Y-9561737D01*
X13251165Y-9550359D01*
X13230141Y-9529335D01*
X13218763Y-9501866D01*
X13218763Y-9472134D01*
X13230141Y-9444665D01*
X13251165Y-9423641D01*
X13278634Y-9412263D01*
X13308366Y-9412263D01*
X13335835Y-9423641D01*
G37*
G36*
X15430335Y-9416641D02*
G01*
X15451359Y-9437665D01*
X15462737Y-9465134D01*
X15462737Y-9494866D01*
X15451359Y-9522335D01*
X15430335Y-9543359D01*
X15402866Y-9554737D01*
X15373134Y-9554737D01*
X15345665Y-9543359D01*
X15324641Y-9522335D01*
X15313263Y-9494866D01*
X15313263Y-9465134D01*
X15324641Y-9437665D01*
X15345665Y-9416641D01*
X15373134Y-9405263D01*
X15402866Y-9405263D01*
X15430335Y-9416641D01*
G37*
G36*
X15684335Y-9416641D02*
G01*
X15705359Y-9437665D01*
X15716737Y-9465134D01*
X15716737Y-9494866D01*
X15705359Y-9522335D01*
X15684335Y-9543359D01*
X15656866Y-9554737D01*
X15627134Y-9554737D01*
X15599665Y-9543359D01*
X15578641Y-9522335D01*
X15567263Y-9494866D01*
X15567263Y-9465134D01*
X15578641Y-9437665D01*
X15599665Y-9416641D01*
X15627134Y-9405263D01*
X15656866Y-9405263D01*
X15684335Y-9416641D01*
G37*
G36*
X15903892Y-7534464D02*
G01*
X15948036Y-7578608D01*
X15971927Y-7636285D01*
X15971927Y-7698715D01*
X15948036Y-7756392D01*
X15903892Y-7800536D01*
X15846215Y-7824427D01*
X15783785Y-7824427D01*
X15726108Y-7800536D01*
X15681964Y-7756392D01*
X15658073Y-7698715D01*
X15658073Y-7636285D01*
X15681964Y-7578608D01*
X15726108Y-7534464D01*
X15783785Y-7510573D01*
X15846215Y-7510573D01*
X15903892Y-7534464D01*
G37*
G36*
X15659255Y-6157960D02*
G01*
X15677279Y-6165426D01*
X15691074Y-6179221D01*
X15698540Y-6197245D01*
X15698540Y-6216755D01*
X15691074Y-6234779D01*
X15677279Y-6248574D01*
X15659255Y-6256040D01*
X15649500Y-6257001D01*
X15649255Y-6257001D01*
X15539745Y-6257001D01*
X15539500Y-6257001D01*
X15529745Y-6256040D01*
X15511721Y-6248574D01*
X15497926Y-6234779D01*
X15490460Y-6216755D01*
X15490460Y-6197245D01*
X15497926Y-6179221D01*
X15511721Y-6165426D01*
X15529745Y-6157960D01*
X15539500Y-6156999D01*
X15649500Y-6156999D01*
X15659255Y-6157960D01*
G37*
G36*
X16052255Y-6157960D02*
G01*
X16070279Y-6165426D01*
X16084074Y-6179221D01*
X16091540Y-6197245D01*
X16091540Y-6216755D01*
X16084074Y-6234779D01*
X16070279Y-6248574D01*
X16052255Y-6256040D01*
X16042500Y-6257001D01*
X16042255Y-6257001D01*
X15982745Y-6257001D01*
X15982500Y-6257001D01*
X15972745Y-6256040D01*
X15954721Y-6248574D01*
X15940926Y-6234779D01*
X15933460Y-6216755D01*
X15933460Y-6197245D01*
X15940926Y-6179221D01*
X15954721Y-6165426D01*
X15972745Y-6157960D01*
X15982500Y-6156999D01*
X16042500Y-6156999D01*
X16052255Y-6157960D01*
G37*
G36*
X15665557Y-6036976D02*
G01*
X15674524Y-6045943D01*
X15679376Y-6057659D01*
X15679376Y-6070341D01*
X15674524Y-6082057D01*
X15665557Y-6091024D01*
X15653841Y-6095876D01*
X15641159Y-6095876D01*
X15629443Y-6091024D01*
X15620476Y-6082057D01*
X15615623Y-6070341D01*
X15615623Y-6057659D01*
X15620476Y-6045943D01*
X15629443Y-6036976D01*
X15641159Y-6032123D01*
X15653841Y-6032123D01*
X15665557Y-6036976D01*
G37*
G36*
X15665557Y-5458976D02*
G01*
X15674524Y-5467943D01*
X15679376Y-5479659D01*
X15679376Y-5492341D01*
X15674524Y-5504057D01*
X15665557Y-5513024D01*
X15653841Y-5517877D01*
X15641159Y-5517877D01*
X15629443Y-5513024D01*
X15620476Y-5504057D01*
X15615623Y-5492341D01*
X15615623Y-5479659D01*
X15620476Y-5467943D01*
X15629443Y-5458976D01*
X15641159Y-5454124D01*
X15653841Y-5454124D01*
X15665557Y-5458976D01*
G37*
G36*
X15659255Y-5293960D02*
G01*
X15677279Y-5301426D01*
X15691074Y-5315221D01*
X15698540Y-5333245D01*
X15698540Y-5352755D01*
X15691074Y-5370779D01*
X15677279Y-5384574D01*
X15659255Y-5392040D01*
X15649500Y-5393001D01*
X15649255Y-5393001D01*
X15539745Y-5393001D01*
X15539500Y-5393001D01*
X15529745Y-5392040D01*
X15511721Y-5384574D01*
X15497926Y-5370779D01*
X15490460Y-5352755D01*
X15490460Y-5333245D01*
X15497926Y-5315221D01*
X15511721Y-5301426D01*
X15529745Y-5293960D01*
X15539500Y-5292999D01*
X15649500Y-5292999D01*
X15659255Y-5293960D01*
G37*
G36*
X16052255Y-5293960D02*
G01*
X16070279Y-5301426D01*
X16084074Y-5315221D01*
X16091540Y-5333245D01*
X16091540Y-5352755D01*
X16084074Y-5370779D01*
X16070279Y-5384574D01*
X16052255Y-5392040D01*
X16042500Y-5393001D01*
X16042255Y-5393001D01*
X15982745Y-5393001D01*
X15982500Y-5393001D01*
X15972745Y-5392040D01*
X15954721Y-5384574D01*
X15940926Y-5370779D01*
X15933460Y-5352755D01*
X15933460Y-5333245D01*
X15940926Y-5315221D01*
X15954721Y-5301426D01*
X15972745Y-5293960D01*
X15982500Y-5292999D01*
X16042500Y-5292999D01*
X16052255Y-5293960D01*
G37*
G36*
X12676392Y-3899464D02*
G01*
X12720536Y-3943608D01*
X12744427Y-4001285D01*
X12744427Y-4063715D01*
X12720536Y-4121392D01*
X12676392Y-4165536D01*
X12618715Y-4189427D01*
X12556285Y-4189427D01*
X12498608Y-4165536D01*
X12454464Y-4121392D01*
X12430573Y-4063715D01*
X12430573Y-4001285D01*
X12454464Y-3943608D01*
X12498608Y-3899464D01*
X12556285Y-3875573D01*
X12618715Y-3875573D01*
X12676392Y-3899464D01*
G37*
M02*
