%TF.GenerationSoftware,KiCad,Pcbnew,9.0.0*%
%TF.CreationDate,2025-02-24T12:48:06+01:00*%
%TF.ProjectId,mixed_signal,6d697865-645f-4736-9967-6e616c2e6b69,rev?*%
%TF.SameCoordinates,Original*%
%TF.FileFunction,Copper,L4,Bot*%
%TF.FilePolarity,Positive*%
%FSLAX45Y45*%
G04 Gerber Fmt 4.5, Leading zero omitted, Abs format (unit mm)*
G04 Created by KiCad (PCBNEW 9.0.0) date 2025-02-24 12:48:06*
%MOMM*%
%LPD*%
G01*
G04 APERTURE LIST*
%TA.AperFunction,ComponentPad*%
%ADD10C,2.300000*%
%TD*%
%TA.AperFunction,ComponentPad*%
%ADD11C,1.524000*%
%TD*%
%TA.AperFunction,ComponentPad*%
%ADD12O,2.100000X1.000000*%
%TD*%
%TA.AperFunction,ComponentPad*%
%ADD13O,1.600000X1.000000*%
%TD*%
%TA.AperFunction,ViaPad*%
%ADD14C,0.700000*%
%TD*%
%TA.AperFunction,Conductor*%
%ADD15C,0.500000*%
%TD*%
%TA.AperFunction,Conductor*%
%ADD16C,0.200000*%
%TD*%
%TA.AperFunction,Conductor*%
%ADD17C,0.300000*%
%TD*%
G04 APERTURE END LIST*
D10*
%TO.P,J401,*%
%TO.N,*%
X15896000Y-9988000D03*
X14880000Y-9990000D03*
D11*
%TO.P,J401,1,In*%
%TO.N,GND*%
X15642000Y-9480000D03*
%TO.P,J401,2,Ext*%
%TO.N,/DAC/OUT*%
X15388000Y-9480000D03*
%TD*%
D10*
%TO.P,J501,*%
%TO.N,*%
X13547500Y-9995000D03*
X12531500Y-9997000D03*
D11*
%TO.P,J501,1,In*%
%TO.N,GND*%
X13293500Y-9487000D03*
%TO.P,J501,2,Ext*%
%TO.N,/ADC/IN*%
X13039500Y-9487000D03*
%TD*%
D12*
%TO.P,J601,S1,SHIELD*%
%TO.N,unconnected-(J601-SHIELD-PadS1)_1*%
X15594500Y-6207000D03*
D13*
%TO.N,unconnected-(J601-SHIELD-PadS1)*%
X16012500Y-6207000D03*
D12*
%TO.N,unconnected-(J601-SHIELD-PadS1)_3*%
X15594500Y-5343000D03*
D13*
%TO.N,unconnected-(J601-SHIELD-PadS1)_2*%
X16012500Y-5343000D03*
%TD*%
D14*
%TO.N,+5V*%
X13542500Y-7477500D03*
X15270000Y-5015000D03*
%TO.N,GND*%
X14687500Y-9217500D03*
X13290000Y-5575000D03*
X15040000Y-9070000D03*
X13975000Y-6380000D03*
X13042500Y-8760000D03*
X15165500Y-4070000D03*
X13680000Y-5652500D03*
X14501500Y-4856000D03*
X13750000Y-8327500D03*
X13071250Y-8498750D03*
X15112500Y-7127500D03*
X15432500Y-6845000D03*
X14854905Y-5432577D03*
X14295000Y-7261000D03*
X13547500Y-6432500D03*
X15125000Y-5322500D03*
X14925000Y-7462500D03*
X12620000Y-7125000D03*
X15710000Y-8940000D03*
X15127500Y-6097500D03*
X12752500Y-8887500D03*
X12473750Y-6413750D03*
X14917500Y-7815000D03*
X14567500Y-9220000D03*
X15190000Y-9160000D03*
X15372500Y-5020000D03*
X13794000Y-4881000D03*
X14160095Y-5848673D03*
X14212500Y-8715000D03*
X13267500Y-7217500D03*
X15377500Y-6247500D03*
X13997500Y-5352500D03*
X13647500Y-8640000D03*
X15087500Y-7465000D03*
X15125000Y-7817500D03*
X12947500Y-7797500D03*
X14281500Y-3916000D03*
X12997500Y-5442500D03*
X15266240Y-5769526D03*
X12802500Y-9262500D03*
X12877250Y-6716250D03*
X13625000Y-8940000D03*
X14842500Y-6615000D03*
X14807500Y-5033500D03*
X14000000Y-8355000D03*
X15383000Y-4767500D03*
X12752500Y-8627500D03*
X13290000Y-9085000D03*
X15387500Y-5262500D03*
X13746500Y-4598500D03*
X15065500Y-4296375D03*
X13352500Y-6075000D03*
X14351500Y-5208500D03*
X15030000Y-4768000D03*
X13590000Y-7367500D03*
X15977500Y-9055000D03*
X13147500Y-6767500D03*
X13235000Y-5917500D03*
X15832500Y-4417500D03*
X12718750Y-6006250D03*
X14342500Y-9217500D03*
X14532500Y-5480000D03*
X13215000Y-7677500D03*
X13442500Y-7282500D03*
X15270000Y-6365000D03*
X15165500Y-3942500D03*
%TO.N,+3.3VA*%
X12925000Y-9262500D03*
X13635000Y-8257500D03*
X14000000Y-8242500D03*
X13265000Y-7355000D03*
%TO.N,/MICRO/NRST*%
X14600000Y-5392500D03*
X13227500Y-5782500D03*
%TO.N,+3V3*%
X14777500Y-5377500D03*
X14162500Y-6657500D03*
X13147500Y-6657500D03*
X15570000Y-6840000D03*
X14237500Y-5903750D03*
X15695000Y-4422500D03*
%TO.N,/MICRO/SWDIO*%
X13715000Y-5757500D03*
X13887500Y-5357500D03*
%TO.N,/DAC/DAC_NCLR*%
X13877500Y-6280000D03*
X14915000Y-7700000D03*
X13470000Y-6075000D03*
X15125000Y-7705000D03*
%TO.N,/DAC/DAC_NLDAC*%
X15130000Y-7565000D03*
X14915000Y-7570000D03*
%TD*%
D15*
%TO.N,+5V*%
X14939905Y-5345095D02*
X15270000Y-5015000D01*
X13542500Y-7477500D02*
X13647500Y-7477500D01*
X14939905Y-6185095D02*
X14939905Y-5345095D01*
X13647500Y-7477500D02*
X14939905Y-6185095D01*
%TO.N,+3.3VA*%
X13515000Y-8377500D02*
X13515000Y-8672500D01*
X14000000Y-8242500D02*
X13650000Y-8242500D01*
X13675000Y-7765000D02*
X13265000Y-7355000D01*
X13675000Y-8217500D02*
X13675000Y-7765000D01*
X13515000Y-8672500D02*
X12925000Y-9262500D01*
X13635000Y-8257500D02*
X13515000Y-8377500D01*
X13650000Y-8242500D02*
X13635000Y-8257500D01*
X13635000Y-8257500D02*
X13675000Y-8217500D01*
D16*
%TO.N,/MICRO/NRST*%
X13330000Y-5885000D02*
X14010000Y-5885000D01*
X14010000Y-5885000D02*
X14502500Y-5392500D01*
X13227500Y-5782500D02*
X13330000Y-5885000D01*
X14502500Y-5392500D02*
X14600000Y-5392500D01*
D17*
%TO.N,+3V3*%
X14251250Y-5903750D02*
X14237500Y-5903750D01*
D15*
X15570000Y-6840000D02*
X15570000Y-6507500D01*
X15810000Y-6267500D02*
X15810000Y-4537500D01*
D17*
X14237500Y-6582500D02*
X14162500Y-6657500D01*
X14237500Y-5903750D02*
X14237500Y-6582500D01*
D16*
X14162500Y-6657500D02*
X13147500Y-6657500D01*
D17*
X14777500Y-5377500D02*
X14251250Y-5903750D01*
D15*
X15570000Y-6507500D02*
X15810000Y-6267500D01*
X15810000Y-4537500D02*
X15695000Y-4422500D01*
D16*
%TO.N,/MICRO/SWDIO*%
X13715000Y-5757500D02*
X13862500Y-5610000D01*
X13862500Y-5610000D02*
X13862500Y-5380000D01*
X13862500Y-5380000D02*
X13897500Y-5345000D01*
%TO.N,/DAC/DAC_NCLR*%
X14915000Y-7700000D02*
X15120000Y-7700000D01*
X13877500Y-6280000D02*
X13675000Y-6280000D01*
X15120000Y-7700000D02*
X15125000Y-7705000D01*
X13675000Y-6280000D02*
X13470000Y-6075000D01*
%TO.N,/DAC/DAC_NLDAC*%
X14915000Y-7570000D02*
X15125000Y-7570000D01*
X15125000Y-7570000D02*
X15130000Y-7565000D01*
%TD*%
M02*
